<?xml version="1.0" encoding="utf-8"?>
<svg version="1.1" xmlns:xlink="http://www.w3.org/1999/xlink" width="199px" height="195px" xmlns="http://www.w3.org/2000/svg">
  <g transform="matrix(1 0 0 1 -156 -123 )">
    <path d="M 156 123  L 355 123  L 355 318  L 156 318  L 156 123  " fill-rule="nonzero" fill="#cccccc" stroke="none" />
    <path d="M 170 137  L 341 137  L 341 304  L 170 304  L 170 137  " fill-rule="nonzero" fill="#ffffff" stroke="none" />
    <path d="M 274.105 181.5  C 265.915 181.5  259.48 175.065  259.48 166.875  C 259.48 158.685  265.915 152.25  274.105 152.25  C 282.295 152.25  288.73 158.685  288.73 166.875  C 288.73 175.065  282.295 181.5  274.105 181.5  " fill-rule="nonzero" fill="#cccccc" stroke="none" />
    <path d="M 175 299  L 175 212.65  L 215.25 173.4  L 271.6 206.693467336683  L 303.8 196.95  L 336 206.693467336683  L 336 299  L 175 299  " fill-rule="nonzero" fill="#169bd5" stroke="none" />
  </g>
</svg>