<?xml version="1.0" encoding="utf-8"?>
<svg version="1.1" xmlns:xlink="http://www.w3.org/1999/xlink" width="12px" height="12px" viewBox="338 2862  12 12" xmlns="http://www.w3.org/2000/svg">
  <path d="M 344 2862  C 347.36 2862  350 2864.64  350 2868  C 350 2871.36  347.36 2874  344 2874  C 340.64 2874  338 2871.36  338 2868  C 338 2864.64  340.64 2862  344 2862  Z " fill-rule="nonzero" fill="#ffffff" stroke="none" />
  <path d="M 344 2862.5  C 347.08 2862.5  349.5 2864.92  349.5 2868  C 349.5 2871.08  347.08 2873.5  344 2873.5  C 340.92 2873.5  338.5 2871.08  338.5 2868  C 338.5 2864.92  340.92 2862.5  344 2862.5  Z " stroke-width="1" stroke="#797979" fill="none" />
  <path d="M 344 2871  C 342.32 2871  341 2869.68  341 2868  C 341 2866.32  342.32 2865  344 2865  C 345.68 2865  347 2866.32  347 2868  C 347 2869.68  345.68 2871  344 2871  " fill-rule="nonzero" fill="#797979" stroke="none" />
</svg>