<?xml version="1.0" encoding="utf-8"?>
<svg version="1.1" xmlns:xlink="http://www.w3.org/1999/xlink" width="12px" height="12px" viewBox="484 2862  12 12" xmlns="http://www.w3.org/2000/svg">
  <path d="M 490 2862  C 493.36 2862  496 2864.64  496 2868  C 496 2871.36  493.36 2874  490 2874  C 486.64 2874  484 2871.36  484 2868  C 484 2864.64  486.64 2862  490 2862  Z " fill-rule="nonzero" fill="#ffffff" stroke="none" />
  <path d="M 490 2862.5  C 493.08 2862.5  495.5 2864.92  495.5 2868  C 495.5 2871.08  493.08 2873.5  490 2873.5  C 486.92 2873.5  484.5 2871.08  484.5 2868  C 484.5 2864.92  486.92 2862.5  490 2862.5  Z " stroke-width="1" stroke="#797979" fill="none" />
  <path d="M 490 2871  C 488.32 2871  487 2869.68  487 2868  C 487 2866.32  488.32 2865  490 2865  C 491.68 2865  493 2866.32  493 2868  C 493 2869.68  491.68 2871  490 2871  " fill-rule="nonzero" fill="#797979" stroke="none" />
</svg>