<?xml version="1.0" encoding="utf-8"?>
<svg version="1.1" xmlns:xlink="http://www.w3.org/1999/xlink" width="12px" height="12px" viewBox="1306 2879  12 12" xmlns="http://www.w3.org/2000/svg">
  <path d="M 1312 2879  C 1315.36 2879  1318 2881.64  1318 2885  C 1318 2888.36  1315.36 2891  1312 2891  C 1308.64 2891  1306 2888.36  1306 2885  C 1306 2881.64  1308.64 2879  1312 2879  Z " fill-rule="nonzero" fill="#ffffff" stroke="none" />
  <path d="M 1312 2879.5  C 1315.08 2879.5  1317.5 2881.92  1317.5 2885  C 1317.5 2888.08  1315.08 2890.5  1312 2890.5  C 1308.92 2890.5  1306.5 2888.08  1306.5 2885  C 1306.5 2881.92  1308.92 2879.5  1312 2879.5  Z " stroke-width="1" stroke="#797979" fill="none" />
  <path d="M 1312 2888  C 1310.32 2888  1309 2886.68  1309 2885  C 1309 2883.32  1310.32 2882  1312 2882  C 1313.68 2882  1315 2883.32  1315 2885  C 1315 2886.68  1313.68 2888  1312 2888  " fill-rule="nonzero" fill="#797979" stroke="none" />
</svg>