<?xml version="1.0" encoding="utf-8"?>
<svg version="1.1" xmlns:xlink="http://www.w3.org/1999/xlink" width="15px" height="15px" xmlns="http://www.w3.org/2000/svg">
  <defs>
    <mask fill="white" id="clip102">
      <path d="M 14.9627130681818 11.4599609375  C 14.9875710227273 11.7887369791667  15 12.1256510416667  15 12.470703125  C 15 13.251953125  14.7407670454545 13.8688151041667  14.2223011363636 14.3212890625  C 13.7038352272727 14.7737630208333  13.0149147727273 15  12.1555397727273 15  L 2.84446022727272 15  C 1.98508522727272 15  1.29616477272728 14.7737630208333  0.777698863636374 14.3212890625  C 0.259232954545467 13.8688151041667  0 13.251953125  0 12.470703125  C 0 12.1256510416667  0.0124289772727195 11.7887369791667  0.037286931818187 11.4599609375  C 0.062144886363626 11.1311848958333  0.111860795454561 10.7763671875  0.186434659090907 10.3955078125  C 0.26100852272728 10.0146484375  0.355113636363626 9.66145833333333  0.46875 9.3359375  C 0.582386363636374 9.01041666666667  0.73508522727272 8.69303385416666  0.926846590909093 8.3837890625  C 1.11860795454544 8.07454427083333  1.33877840909091 7.81087239583333  1.58735795454544 7.5927734375  C 1.8359375 7.37467447916667  2.13955965909091 7.20052083333333  2.49822443181819 7.0703125  C 2.85688920454547 6.94010416666667  3.25284090909091 6.875  3.68607954545456 6.875  C 3.75 6.875  3.89914772727272 6.94498697916667  4.13352272727272 7.0849609375  C 4.36789772727272 7.22493489583333  4.63245738636363 7.38118489583333  4.92720170454544 7.5537109375  C 5.22194602272728 7.72623697916667  5.60546875 7.88248697916667  6.07776988636363 8.0224609375  C 6.55007102272728 8.16243489583333  7.02414772727272 8.232421875  7.5 8.232421875  C 7.97585227272728 8.232421875  8.44992897727272 8.16243489583333  8.92223011363637 8.0224609375  C 9.39453125 7.88248697916667  9.77805397727272 7.72623697916667  10.0727982954546 7.5537109375  C 10.3675426136364 7.38118489583333  10.6321022727273 7.22493489583333  10.8664772727273 7.0849609375  C 11.1008522727273 6.94498697916667  11.25 6.875  11.3139204545454 6.875  C 11.7471590909091 6.875  12.1431107954546 6.94010416666667  12.5017755681818 7.0703125  C 12.8604403409091 7.20052083333333  13.1640625 7.37467447916667  13.4126420454546 7.5927734375  C 13.6612215909091 7.81087239583333  13.8813920454546 8.07454427083333  14.0731534090909 8.3837890625  C 14.2649147727273 8.69303385416666  14.4176136363636 9.01041666666667  14.53125 9.3359375  C 14.6448863636364 9.66145833333333  14.7389914772727 10.0146484375  14.8135653409091 10.3955078125  C 14.8881392045454 10.7763671875  14.9378551136364 11.1311848958333  14.9627130681818 11.4599609375  Z M 10.3924005681818 1.0986328125  C 11.19140625 1.8310546875  11.5909090909091 2.71484375  11.5909090909091 3.75  C 11.5909090909091 4.78515625  11.19140625 5.6689453125  10.3924005681818 6.4013671875  C 9.59339488636363 7.1337890625  8.62926136363637 7.5  7.5 7.5  C 6.37073863636363 7.5  5.40660511363637 7.1337890625  4.60759943181819 6.4013671875  C 3.80859375 5.6689453125  3.40909090909091 4.78515625  3.40909090909091 3.75  C 3.40909090909091 2.71484375  3.80859375 1.8310546875  4.60759943181819 1.0986328125  C 5.40660511363637 0.3662109375  6.37073863636363 0  7.5 0  C 8.62926136363637 0  9.59339488636363 0.3662109375  10.3924005681818 1.0986328125  Z " fill-rule="evenodd" />
    </mask>
  </defs>
  <g transform="matrix(1 0 0 1 -170 -57 )">
    <path d="M 14.9627130681818 11.4599609375  C 14.9875710227273 11.7887369791667  15 12.1256510416667  15 12.470703125  C 15 13.251953125  14.7407670454545 13.8688151041667  14.2223011363636 14.3212890625  C 13.7038352272727 14.7737630208333  13.0149147727273 15  12.1555397727273 15  L 2.84446022727272 15  C 1.98508522727272 15  1.29616477272728 14.7737630208333  0.777698863636374 14.3212890625  C 0.259232954545467 13.8688151041667  0 13.251953125  0 12.470703125  C 0 12.1256510416667  0.0124289772727195 11.7887369791667  0.037286931818187 11.4599609375  C 0.062144886363626 11.1311848958333  0.111860795454561 10.7763671875  0.186434659090907 10.3955078125  C 0.26100852272728 10.0146484375  0.355113636363626 9.66145833333333  0.46875 9.3359375  C 0.582386363636374 9.01041666666667  0.73508522727272 8.69303385416666  0.926846590909093 8.3837890625  C 1.11860795454544 8.07454427083333  1.33877840909091 7.81087239583333  1.58735795454544 7.5927734375  C 1.8359375 7.37467447916667  2.13955965909091 7.20052083333333  2.49822443181819 7.0703125  C 2.85688920454547 6.94010416666667  3.25284090909091 6.875  3.68607954545456 6.875  C 3.75 6.875  3.89914772727272 6.94498697916667  4.13352272727272 7.0849609375  C 4.36789772727272 7.22493489583333  4.63245738636363 7.38118489583333  4.92720170454544 7.5537109375  C 5.22194602272728 7.72623697916667  5.60546875 7.88248697916667  6.07776988636363 8.0224609375  C 6.55007102272728 8.16243489583333  7.02414772727272 8.232421875  7.5 8.232421875  C 7.97585227272728 8.232421875  8.44992897727272 8.16243489583333  8.92223011363637 8.0224609375  C 9.39453125 7.88248697916667  9.77805397727272 7.72623697916667  10.0727982954546 7.5537109375  C 10.3675426136364 7.38118489583333  10.6321022727273 7.22493489583333  10.8664772727273 7.0849609375  C 11.1008522727273 6.94498697916667  11.25 6.875  11.3139204545454 6.875  C 11.7471590909091 6.875  12.1431107954546 6.94010416666667  12.5017755681818 7.0703125  C 12.8604403409091 7.20052083333333  13.1640625 7.37467447916667  13.4126420454546 7.5927734375  C 13.6612215909091 7.81087239583333  13.8813920454546 8.07454427083333  14.0731534090909 8.3837890625  C 14.2649147727273 8.69303385416666  14.4176136363636 9.01041666666667  14.53125 9.3359375  C 14.6448863636364 9.66145833333333  14.7389914772727 10.0146484375  14.8135653409091 10.3955078125  C 14.8881392045454 10.7763671875  14.9378551136364 11.1311848958333  14.9627130681818 11.4599609375  Z M 10.3924005681818 1.0986328125  C 11.19140625 1.8310546875  11.5909090909091 2.71484375  11.5909090909091 3.75  C 11.5909090909091 4.78515625  11.19140625 5.6689453125  10.3924005681818 6.4013671875  C 9.59339488636363 7.1337890625  8.62926136363637 7.5  7.5 7.5  C 6.37073863636363 7.5  5.40660511363637 7.1337890625  4.60759943181819 6.4013671875  C 3.80859375 5.6689453125  3.40909090909091 4.78515625  3.40909090909091 3.75  C 3.40909090909091 2.71484375  3.80859375 1.8310546875  4.60759943181819 1.0986328125  C 5.40660511363637 0.3662109375  6.37073863636363 0  7.5 0  C 8.62926136363637 0  9.59339488636363 0.3662109375  10.3924005681818 1.0986328125  Z " fill-rule="nonzero" fill="#00ff00" stroke="none" transform="matrix(1 0 0 1 170 57 )" />
    <path d="M 14.9627130681818 11.4599609375  C 14.9875710227273 11.7887369791667  15 12.1256510416667  15 12.470703125  C 15 13.251953125  14.7407670454545 13.8688151041667  14.2223011363636 14.3212890625  C 13.7038352272727 14.7737630208333  13.0149147727273 15  12.1555397727273 15  L 2.84446022727272 15  C 1.98508522727272 15  1.29616477272728 14.7737630208333  0.777698863636374 14.3212890625  C 0.259232954545467 13.8688151041667  0 13.251953125  0 12.470703125  C 0 12.1256510416667  0.0124289772727195 11.7887369791667  0.037286931818187 11.4599609375  C 0.062144886363626 11.1311848958333  0.111860795454561 10.7763671875  0.186434659090907 10.3955078125  C 0.26100852272728 10.0146484375  0.355113636363626 9.66145833333333  0.46875 9.3359375  C 0.582386363636374 9.01041666666667  0.73508522727272 8.69303385416666  0.926846590909093 8.3837890625  C 1.11860795454544 8.07454427083333  1.33877840909091 7.81087239583333  1.58735795454544 7.5927734375  C 1.8359375 7.37467447916667  2.13955965909091 7.20052083333333  2.49822443181819 7.0703125  C 2.85688920454547 6.94010416666667  3.25284090909091 6.875  3.68607954545456 6.875  C 3.75 6.875  3.89914772727272 6.94498697916667  4.13352272727272 7.0849609375  C 4.36789772727272 7.22493489583333  4.63245738636363 7.38118489583333  4.92720170454544 7.5537109375  C 5.22194602272728 7.72623697916667  5.60546875 7.88248697916667  6.07776988636363 8.0224609375  C 6.55007102272728 8.16243489583333  7.02414772727272 8.232421875  7.5 8.232421875  C 7.97585227272728 8.232421875  8.44992897727272 8.16243489583333  8.92223011363637 8.0224609375  C 9.39453125 7.88248697916667  9.77805397727272 7.72623697916667  10.0727982954546 7.5537109375  C 10.3675426136364 7.38118489583333  10.6321022727273 7.22493489583333  10.8664772727273 7.0849609375  C 11.1008522727273 6.94498697916667  11.25 6.875  11.3139204545454 6.875  C 11.7471590909091 6.875  12.1431107954546 6.94010416666667  12.5017755681818 7.0703125  C 12.8604403409091 7.20052083333333  13.1640625 7.37467447916667  13.4126420454546 7.5927734375  C 13.6612215909091 7.81087239583333  13.8813920454546 8.07454427083333  14.0731534090909 8.3837890625  C 14.2649147727273 8.69303385416666  14.4176136363636 9.01041666666667  14.53125 9.3359375  C 14.6448863636364 9.66145833333333  14.7389914772727 10.0146484375  14.8135653409091 10.3955078125  C 14.8881392045454 10.7763671875  14.9378551136364 11.1311848958333  14.9627130681818 11.4599609375  Z " stroke-width="2" stroke="#797979" fill="none" transform="matrix(1 0 0 1 170 57 )" mask="url(#clip102)" />
    <path d="M 10.3924005681818 1.0986328125  C 11.19140625 1.8310546875  11.5909090909091 2.71484375  11.5909090909091 3.75  C 11.5909090909091 4.78515625  11.19140625 5.6689453125  10.3924005681818 6.4013671875  C 9.59339488636363 7.1337890625  8.62926136363637 7.5  7.5 7.5  C 6.37073863636363 7.5  5.40660511363637 7.1337890625  4.60759943181819 6.4013671875  C 3.80859375 5.6689453125  3.40909090909091 4.78515625  3.40909090909091 3.75  C 3.40909090909091 2.71484375  3.80859375 1.8310546875  4.60759943181819 1.0986328125  C 5.40660511363637 0.3662109375  6.37073863636363 0  7.5 0  C 8.62926136363637 0  9.59339488636363 0.3662109375  10.3924005681818 1.0986328125  Z " stroke-width="2" stroke="#797979" fill="none" transform="matrix(1 0 0 1 170 57 )" mask="url(#clip102)" />
  </g>
</svg>