<?xml version="1.0" encoding="utf-8"?>
<svg version="1.1" xmlns:xlink="http://www.w3.org/1999/xlink" width="15px" height="15px" xmlns="http://www.w3.org/2000/svg">
  <defs>
    <mask fill="white" id="clip104">
      <path d="M 13.8490513392857 13.8490513392857  C 13.9020647321428 13.7960379464286  13.9285714285714 13.7332589285714  13.9285714285714 13.6607142857143  L 13.9285714285714 4.55357142857143  C 13.9285714285714 4.48102678571428  13.9020647321428 4.41824776785714  13.8490513392857 4.365234375  C 13.7960379464286 4.31222098214286  13.7332589285714 4.28571428571429  13.6607142857143 4.28571428571429  L 4.55357142857144 4.28571428571429  C 4.48102678571428 4.28571428571429  4.41824776785711 4.31222098214286  4.365234375 4.365234375  C 4.31222098214289 4.41824776785714  4.28571428571428 4.48102678571428  4.28571428571428 4.55357142857143  L 4.28571428571428 13.6607142857143  C 4.28571428571428 13.7332589285714  4.31222098214289 13.7960379464286  4.365234375 13.8490513392857  C 4.41824776785711 13.9020647321429  4.48102678571428 13.9285714285714  4.55357142857144 13.9285714285714  L 13.6607142857143 13.9285714285714  C 13.7332589285714 13.9285714285714  13.7960379464286 13.9020647321429  13.8490513392857 13.8490513392857  Z M 14.6065848214286 3.60770089285714  C 14.8688616071428 3.86997767857143  15 4.18526785714286  15 4.55357142857143  L 15 13.6607142857143  C 15 14.0290178571429  14.8688616071428 14.3443080357143  14.6065848214286 14.6065848214286  C 14.3443080357143 14.8688616071429  14.0290178571429 15  13.6607142857143 15  L 4.55357142857144 15  C 4.18526785714283 15  3.86997767857144 14.8688616071429  3.60770089285717 14.6065848214286  C 3.34542410714289 14.3443080357143  3.21428571428572 14.0290178571429  3.21428571428572 13.6607142857143  L 3.21428571428572 4.55357142857143  C 3.21428571428572 4.18526785714286  3.34542410714289 3.86997767857143  3.60770089285717 3.60770089285714  C 3.86997767857144 3.34542410714286  4.18526785714283 3.21428571428571  4.55357142857144 3.21428571428571  L 13.6607142857143 3.21428571428571  C 14.0290178571429 3.21428571428571  14.3443080357143 3.34542410714286  14.6065848214286 3.60770089285714  Z M 11.3922991071428 0.393415178571431  C 11.6545758928571 0.655691964285708  11.7857142857143 0.970982142857139  11.7857142857143 1.33928571428571  L 11.7857142857143 2.67857142857143  L 10.7142857142857 2.67857142857143  L 10.7142857142857 1.33928571428571  C 10.7142857142857 1.26674107142857  10.6877790178571 1.20396205357143  10.634765625 1.15094866071429  C 10.5817522321429 1.09793526785714  10.5189732142857 1.07142857142857  10.4464285714286 1.07142857142857  L 1.33928571428572 1.07142857142857  C 1.26674107142856 1.07142857142857  1.20396205357144 1.09793526785714  1.15094866071428 1.15094866071429  C 1.09793526785717 1.20396205357143  1.07142857142856 1.26674107142857  1.07142857142856 1.33928571428571  L 1.07142857142856 10.4464285714286  C 1.07142857142856 10.5189732142857  1.09793526785717 10.5817522321429  1.15094866071428 10.634765625  C 1.20396205357144 10.6877790178571  1.26674107142856 10.7142857142857  1.33928571428572 10.7142857142857  L 2.67857142857144 10.7142857142857  L 2.67857142857144 11.7857142857143  L 1.33928571428572 11.7857142857143  C 0.970982142857167 11.7857142857143  0.655691964285722 11.6545758928571  0.393415178571445 11.3922991071429  C 0.131138392857167 11.1300223214286  0 10.8147321428571  0 10.4464285714286  L 0 1.33928571428571  C 0 0.970982142857139  0.131138392857167 0.655691964285708  0.393415178571445 0.393415178571431  C 0.655691964285722 0.131138392857139  0.970982142857167 0  1.33928571428572 0  L 10.4464285714286 0  C 10.8147321428572 0  11.1300223214286 0.131138392857139  11.3922991071428 0.393415178571431  Z " fill-rule="evenodd" />
    </mask>
  </defs>
  <g transform="matrix(1 0 0 1 -189 -57 )">
    <path d="M 13.8490513392857 13.8490513392857  C 13.9020647321428 13.7960379464286  13.9285714285714 13.7332589285714  13.9285714285714 13.6607142857143  L 13.9285714285714 4.55357142857143  C 13.9285714285714 4.48102678571428  13.9020647321428 4.41824776785714  13.8490513392857 4.365234375  C 13.7960379464286 4.31222098214286  13.7332589285714 4.28571428571429  13.6607142857143 4.28571428571429  L 4.55357142857144 4.28571428571429  C 4.48102678571428 4.28571428571429  4.41824776785711 4.31222098214286  4.365234375 4.365234375  C 4.31222098214289 4.41824776785714  4.28571428571428 4.48102678571428  4.28571428571428 4.55357142857143  L 4.28571428571428 13.6607142857143  C 4.28571428571428 13.7332589285714  4.31222098214289 13.7960379464286  4.365234375 13.8490513392857  C 4.41824776785711 13.9020647321429  4.48102678571428 13.9285714285714  4.55357142857144 13.9285714285714  L 13.6607142857143 13.9285714285714  C 13.7332589285714 13.9285714285714  13.7960379464286 13.9020647321429  13.8490513392857 13.8490513392857  Z M 14.6065848214286 3.60770089285714  C 14.8688616071428 3.86997767857143  15 4.18526785714286  15 4.55357142857143  L 15 13.6607142857143  C 15 14.0290178571429  14.8688616071428 14.3443080357143  14.6065848214286 14.6065848214286  C 14.3443080357143 14.8688616071429  14.0290178571429 15  13.6607142857143 15  L 4.55357142857144 15  C 4.18526785714283 15  3.86997767857144 14.8688616071429  3.60770089285717 14.6065848214286  C 3.34542410714289 14.3443080357143  3.21428571428572 14.0290178571429  3.21428571428572 13.6607142857143  L 3.21428571428572 4.55357142857143  C 3.21428571428572 4.18526785714286  3.34542410714289 3.86997767857143  3.60770089285717 3.60770089285714  C 3.86997767857144 3.34542410714286  4.18526785714283 3.21428571428571  4.55357142857144 3.21428571428571  L 13.6607142857143 3.21428571428571  C 14.0290178571429 3.21428571428571  14.3443080357143 3.34542410714286  14.6065848214286 3.60770089285714  Z M 11.3922991071428 0.393415178571431  C 11.6545758928571 0.655691964285708  11.7857142857143 0.970982142857139  11.7857142857143 1.33928571428571  L 11.7857142857143 2.67857142857143  L 10.7142857142857 2.67857142857143  L 10.7142857142857 1.33928571428571  C 10.7142857142857 1.26674107142857  10.6877790178571 1.20396205357143  10.634765625 1.15094866071429  C 10.5817522321429 1.09793526785714  10.5189732142857 1.07142857142857  10.4464285714286 1.07142857142857  L 1.33928571428572 1.07142857142857  C 1.26674107142856 1.07142857142857  1.20396205357144 1.09793526785714  1.15094866071428 1.15094866071429  C 1.09793526785717 1.20396205357143  1.07142857142856 1.26674107142857  1.07142857142856 1.33928571428571  L 1.07142857142856 10.4464285714286  C 1.07142857142856 10.5189732142857  1.09793526785717 10.5817522321429  1.15094866071428 10.634765625  C 1.20396205357144 10.6877790178571  1.26674107142856 10.7142857142857  1.33928571428572 10.7142857142857  L 2.67857142857144 10.7142857142857  L 2.67857142857144 11.7857142857143  L 1.33928571428572 11.7857142857143  C 0.970982142857167 11.7857142857143  0.655691964285722 11.6545758928571  0.393415178571445 11.3922991071429  C 0.131138392857167 11.1300223214286  0 10.8147321428571  0 10.4464285714286  L 0 1.33928571428571  C 0 0.970982142857139  0.131138392857167 0.655691964285708  0.393415178571445 0.393415178571431  C 0.655691964285722 0.131138392857139  0.970982142857167 0  1.33928571428572 0  L 10.4464285714286 0  C 10.8147321428572 0  11.1300223214286 0.131138392857139  11.3922991071428 0.393415178571431  Z " fill-rule="nonzero" fill="#ccffff" stroke="none" transform="matrix(1 0 0 1 189 57 )" />
    <path d="M 13.8490513392857 13.8490513392857  C 13.9020647321428 13.7960379464286  13.9285714285714 13.7332589285714  13.9285714285714 13.6607142857143  L 13.9285714285714 4.55357142857143  C 13.9285714285714 4.48102678571428  13.9020647321428 4.41824776785714  13.8490513392857 4.365234375  C 13.7960379464286 4.31222098214286  13.7332589285714 4.28571428571429  13.6607142857143 4.28571428571429  L 4.55357142857144 4.28571428571429  C 4.48102678571428 4.28571428571429  4.41824776785711 4.31222098214286  4.365234375 4.365234375  C 4.31222098214289 4.41824776785714  4.28571428571428 4.48102678571428  4.28571428571428 4.55357142857143  L 4.28571428571428 13.6607142857143  C 4.28571428571428 13.7332589285714  4.31222098214289 13.7960379464286  4.365234375 13.8490513392857  C 4.41824776785711 13.9020647321429  4.48102678571428 13.9285714285714  4.55357142857144 13.9285714285714  L 13.6607142857143 13.9285714285714  C 13.7332589285714 13.9285714285714  13.7960379464286 13.9020647321429  13.8490513392857 13.8490513392857  Z " stroke-width="2" stroke="#797979" fill="none" transform="matrix(1 0 0 1 189 57 )" mask="url(#clip104)" />
    <path d="M 14.6065848214286 3.60770089285714  C 14.8688616071428 3.86997767857143  15 4.18526785714286  15 4.55357142857143  L 15 13.6607142857143  C 15 14.0290178571429  14.8688616071428 14.3443080357143  14.6065848214286 14.6065848214286  C 14.3443080357143 14.8688616071429  14.0290178571429 15  13.6607142857143 15  L 4.55357142857144 15  C 4.18526785714283 15  3.86997767857144 14.8688616071429  3.60770089285717 14.6065848214286  C 3.34542410714289 14.3443080357143  3.21428571428572 14.0290178571429  3.21428571428572 13.6607142857143  L 3.21428571428572 4.55357142857143  C 3.21428571428572 4.18526785714286  3.34542410714289 3.86997767857143  3.60770089285717 3.60770089285714  C 3.86997767857144 3.34542410714286  4.18526785714283 3.21428571428571  4.55357142857144 3.21428571428571  L 13.6607142857143 3.21428571428571  C 14.0290178571429 3.21428571428571  14.3443080357143 3.34542410714286  14.6065848214286 3.60770089285714  Z " stroke-width="2" stroke="#797979" fill="none" transform="matrix(1 0 0 1 189 57 )" mask="url(#clip104)" />
    <path d="M 11.3922991071428 0.393415178571431  C 11.6545758928571 0.655691964285708  11.7857142857143 0.970982142857139  11.7857142857143 1.33928571428571  L 11.7857142857143 2.67857142857143  L 10.7142857142857 2.67857142857143  L 10.7142857142857 1.33928571428571  C 10.7142857142857 1.26674107142857  10.6877790178571 1.20396205357143  10.634765625 1.15094866071429  C 10.5817522321429 1.09793526785714  10.5189732142857 1.07142857142857  10.4464285714286 1.07142857142857  L 1.33928571428572 1.07142857142857  C 1.26674107142856 1.07142857142857  1.20396205357144 1.09793526785714  1.15094866071428 1.15094866071429  C 1.09793526785717 1.20396205357143  1.07142857142856 1.26674107142857  1.07142857142856 1.33928571428571  L 1.07142857142856 10.4464285714286  C 1.07142857142856 10.5189732142857  1.09793526785717 10.5817522321429  1.15094866071428 10.634765625  C 1.20396205357144 10.6877790178571  1.26674107142856 10.7142857142857  1.33928571428572 10.7142857142857  L 2.67857142857144 10.7142857142857  L 2.67857142857144 11.7857142857143  L 1.33928571428572 11.7857142857143  C 0.970982142857167 11.7857142857143  0.655691964285722 11.6545758928571  0.393415178571445 11.3922991071429  C 0.131138392857167 11.1300223214286  0 10.8147321428571  0 10.4464285714286  L 0 1.33928571428571  C 0 0.970982142857139  0.131138392857167 0.655691964285708  0.393415178571445 0.393415178571431  C 0.655691964285722 0.131138392857139  0.970982142857167 0  1.33928571428572 0  L 10.4464285714286 0  C 10.8147321428572 0  11.1300223214286 0.131138392857139  11.3922991071428 0.393415178571431  Z " stroke-width="2" stroke="#797979" fill="none" transform="matrix(1 0 0 1 189 57 )" mask="url(#clip104)" />
  </g>
</svg>