<?xml version="1.0" encoding="utf-8"?>
<svg version="1.1" xmlns:xlink="http://www.w3.org/1999/xlink" width="15px" height="15px" xmlns="http://www.w3.org/2000/svg">
  <defs>
    <mask fill="white" id="clip106">
      <path d="M 6.42857142857144 4.28571428571429  L 6.42857142857144 13.9285714285714  L 13.9285714285714 13.9285714285714  L 13.9285714285714 8.57142857142857  L 10.4464285714286 8.57142857142857  C 10.2232142857143 8.57142857142857  10.0334821428572 8.49330357142857  9.87723214285717 8.33705357142857  C 9.72098214285711 8.18080357142857  9.64285714285717 7.99107142857143  9.64285714285717 7.76785714285714  L 9.64285714285717 4.28571428571429  L 6.42857142857144 4.28571428571429  Z M 8.49190848214283 2.06333705357143  C 8.544921875 2.01032366071428  8.57142857142856 1.94754464285714  8.57142857142856 1.875  L 8.57142857142856 1.33928571428571  C 8.57142857142856 1.26674107142857  8.544921875 1.20396205357143  8.49190848214283 1.15094866071429  C 8.43889508928572 1.09793526785714  8.37611607142856 1.07142857142857  8.30357142857144 1.07142857142857  L 2.41071428571428 1.07142857142857  C 2.33816964285711 1.07142857142857  2.275390625 1.09793526785714  2.22237723214283 1.15094866071429  C 2.16936383928572 1.20396205357143  2.14285714285717 1.26674107142857  2.14285714285717 1.33928571428571  L 2.14285714285717 1.875  C 2.14285714285717 1.94754464285714  2.16936383928572 2.01032366071428  2.22237723214283 2.06333705357143  C 2.275390625 2.11635044642857  2.33816964285711 2.14285714285714  2.41071428571428 2.14285714285714  L 8.30357142857144 2.14285714285714  C 8.37611607142856 2.14285714285714  8.43889508928572 2.11635044642857  8.49190848214283 2.06333705357143  Z M 10.7142857142857 4.99720982142857  L 10.7142857142857 7.5  L 13.2170758928572 7.5  L 10.7142857142857 4.99720982142857  Z M 14.8325892857143 7.83482142857143  C 14.9441964285714 8.10267857142857  15 8.34821428571429  15 8.57142857142857  L 15 14.1964285714286  C 15 14.4196428571429  14.921875 14.609375  14.765625 14.765625  C 14.609375 14.921875  14.4196428571429 15  14.1964285714286 15  L 6.16071428571428 15  C 5.9375 15  5.74776785714289 14.921875  5.59151785714283 14.765625  C 5.43526785714283 14.609375  5.35714285714283 14.4196428571429  5.35714285714283 14.1964285714286  L 5.35714285714283 12.8571428571429  L 0.803571428571445 12.8571428571429  C 0.58035714285711 12.8571428571429  0.390625 12.7790178571429  0.234375 12.6227678571429  C 0.078125 12.4665178571429  0 12.2767857142857  0 12.0535714285714  L 0 0.803571428571431  C 0 0.580357142857139  0.078125 0.390625  0.234375 0.234375  C 0.390625 0.078125  0.58035714285711 0  0.803571428571445 0  L 9.91071428571428 0  C 10.1339285714286 0  10.3236607142857 0.078125  10.4799107142857 0.234375  C 10.6361607142857 0.390625  10.7142857142857 0.580357142857139  10.7142857142857 0.803571428571431  L 10.7142857142857 3.54910714285714  C 10.8314732142857 3.62165178571428  10.9319196428572 3.69977678571429  11.015625 3.78348214285714  L 14.4308035714286 7.19866071428571  C 14.5870535714286 7.35491071428571  14.7209821428572 7.56696428571429  14.8325892857143 7.83482142857143  Z " fill-rule="evenodd" />
    </mask>
  </defs>
  <g transform="matrix(1 0 0 1 -143 -78 )">
    <path d="M 6.42857142857144 4.28571428571429  L 6.42857142857144 13.9285714285714  L 13.9285714285714 13.9285714285714  L 13.9285714285714 8.57142857142857  L 10.4464285714286 8.57142857142857  C 10.2232142857143 8.57142857142857  10.0334821428572 8.49330357142857  9.87723214285717 8.33705357142857  C 9.72098214285711 8.18080357142857  9.64285714285717 7.99107142857143  9.64285714285717 7.76785714285714  L 9.64285714285717 4.28571428571429  L 6.42857142857144 4.28571428571429  Z M 8.49190848214283 2.06333705357143  C 8.544921875 2.01032366071428  8.57142857142856 1.94754464285714  8.57142857142856 1.875  L 8.57142857142856 1.33928571428571  C 8.57142857142856 1.26674107142857  8.544921875 1.20396205357143  8.49190848214283 1.15094866071429  C 8.43889508928572 1.09793526785714  8.37611607142856 1.07142857142857  8.30357142857144 1.07142857142857  L 2.41071428571428 1.07142857142857  C 2.33816964285711 1.07142857142857  2.275390625 1.09793526785714  2.22237723214283 1.15094866071429  C 2.16936383928572 1.20396205357143  2.14285714285717 1.26674107142857  2.14285714285717 1.33928571428571  L 2.14285714285717 1.875  C 2.14285714285717 1.94754464285714  2.16936383928572 2.01032366071428  2.22237723214283 2.06333705357143  C 2.275390625 2.11635044642857  2.33816964285711 2.14285714285714  2.41071428571428 2.14285714285714  L 8.30357142857144 2.14285714285714  C 8.37611607142856 2.14285714285714  8.43889508928572 2.11635044642857  8.49190848214283 2.06333705357143  Z M 10.7142857142857 4.99720982142857  L 10.7142857142857 7.5  L 13.2170758928572 7.5  L 10.7142857142857 4.99720982142857  Z M 14.8325892857143 7.83482142857143  C 14.9441964285714 8.10267857142857  15 8.34821428571429  15 8.57142857142857  L 15 14.1964285714286  C 15 14.4196428571429  14.921875 14.609375  14.765625 14.765625  C 14.609375 14.921875  14.4196428571429 15  14.1964285714286 15  L 6.16071428571428 15  C 5.9375 15  5.74776785714289 14.921875  5.59151785714283 14.765625  C 5.43526785714283 14.609375  5.35714285714283 14.4196428571429  5.35714285714283 14.1964285714286  L 5.35714285714283 12.8571428571429  L 0.803571428571445 12.8571428571429  C 0.58035714285711 12.8571428571429  0.390625 12.7790178571429  0.234375 12.6227678571429  C 0.078125 12.4665178571429  0 12.2767857142857  0 12.0535714285714  L 0 0.803571428571431  C 0 0.580357142857139  0.078125 0.390625  0.234375 0.234375  C 0.390625 0.078125  0.58035714285711 0  0.803571428571445 0  L 9.91071428571428 0  C 10.1339285714286 0  10.3236607142857 0.078125  10.4799107142857 0.234375  C 10.6361607142857 0.390625  10.7142857142857 0.580357142857139  10.7142857142857 0.803571428571431  L 10.7142857142857 3.54910714285714  C 10.8314732142857 3.62165178571428  10.9319196428572 3.69977678571429  11.015625 3.78348214285714  L 14.4308035714286 7.19866071428571  C 14.5870535714286 7.35491071428571  14.7209821428572 7.56696428571429  14.8325892857143 7.83482142857143  Z " fill-rule="nonzero" fill="#008000" stroke="none" transform="matrix(1 0 0 1 143 78 )" />
    <path d="M 6.42857142857144 4.28571428571429  L 6.42857142857144 13.9285714285714  L 13.9285714285714 13.9285714285714  L 13.9285714285714 8.57142857142857  L 10.4464285714286 8.57142857142857  C 10.2232142857143 8.57142857142857  10.0334821428572 8.49330357142857  9.87723214285717 8.33705357142857  C 9.72098214285711 8.18080357142857  9.64285714285717 7.99107142857143  9.64285714285717 7.76785714285714  L 9.64285714285717 4.28571428571429  L 6.42857142857144 4.28571428571429  Z " stroke-width="2" stroke="#797979" fill="none" transform="matrix(1 0 0 1 143 78 )" mask="url(#clip106)" />
    <path d="M 8.49190848214283 2.06333705357143  C 8.544921875 2.01032366071428  8.57142857142856 1.94754464285714  8.57142857142856 1.875  L 8.57142857142856 1.33928571428571  C 8.57142857142856 1.26674107142857  8.544921875 1.20396205357143  8.49190848214283 1.15094866071429  C 8.43889508928572 1.09793526785714  8.37611607142856 1.07142857142857  8.30357142857144 1.07142857142857  L 2.41071428571428 1.07142857142857  C 2.33816964285711 1.07142857142857  2.275390625 1.09793526785714  2.22237723214283 1.15094866071429  C 2.16936383928572 1.20396205357143  2.14285714285717 1.26674107142857  2.14285714285717 1.33928571428571  L 2.14285714285717 1.875  C 2.14285714285717 1.94754464285714  2.16936383928572 2.01032366071428  2.22237723214283 2.06333705357143  C 2.275390625 2.11635044642857  2.33816964285711 2.14285714285714  2.41071428571428 2.14285714285714  L 8.30357142857144 2.14285714285714  C 8.37611607142856 2.14285714285714  8.43889508928572 2.11635044642857  8.49190848214283 2.06333705357143  Z " stroke-width="2" stroke="#797979" fill="none" transform="matrix(1 0 0 1 143 78 )" mask="url(#clip106)" />
    <path d="M 10.7142857142857 4.99720982142857  L 10.7142857142857 7.5  L 13.2170758928572 7.5  L 10.7142857142857 4.99720982142857  Z " stroke-width="2" stroke="#797979" fill="none" transform="matrix(1 0 0 1 143 78 )" mask="url(#clip106)" />
    <path d="M 14.8325892857143 7.83482142857143  C 14.9441964285714 8.10267857142857  15 8.34821428571429  15 8.57142857142857  L 15 14.1964285714286  C 15 14.4196428571429  14.921875 14.609375  14.765625 14.765625  C 14.609375 14.921875  14.4196428571429 15  14.1964285714286 15  L 6.16071428571428 15  C 5.9375 15  5.74776785714289 14.921875  5.59151785714283 14.765625  C 5.43526785714283 14.609375  5.35714285714283 14.4196428571429  5.35714285714283 14.1964285714286  L 5.35714285714283 12.8571428571429  L 0.803571428571445 12.8571428571429  C 0.58035714285711 12.8571428571429  0.390625 12.7790178571429  0.234375 12.6227678571429  C 0.078125 12.4665178571429  0 12.2767857142857  0 12.0535714285714  L 0 0.803571428571431  C 0 0.580357142857139  0.078125 0.390625  0.234375 0.234375  C 0.390625 0.078125  0.58035714285711 0  0.803571428571445 0  L 9.91071428571428 0  C 10.1339285714286 0  10.3236607142857 0.078125  10.4799107142857 0.234375  C 10.6361607142857 0.390625  10.7142857142857 0.580357142857139  10.7142857142857 0.803571428571431  L 10.7142857142857 3.54910714285714  C 10.8314732142857 3.62165178571428  10.9319196428572 3.69977678571429  11.015625 3.78348214285714  L 14.4308035714286 7.19866071428571  C 14.5870535714286 7.35491071428571  14.7209821428572 7.56696428571429  14.8325892857143 7.83482142857143  Z " stroke-width="2" stroke="#797979" fill="none" transform="matrix(1 0 0 1 143 78 )" mask="url(#clip106)" />
  </g>
</svg>