<?xml version="1.0" encoding="utf-8"?>
<svg version="1.1" xmlns:xlink="http://www.w3.org/1999/xlink" width="12px" height="12px" viewBox="1560 216  12 12" xmlns="http://www.w3.org/2000/svg">
  <path d="M 1566 216  C 1569.36 216  1572 218.64  1572 222  C 1572 225.36  1569.36 228  1566 228  C 1562.64 228  1560 225.36  1560 222  C 1560 218.64  1562.64 216  1566 216  Z " fill-rule="nonzero" fill="#ffffff" stroke="none" />
  <path d="M 1566 216.5  C 1569.08 216.5  1571.5 218.92  1571.5 222  C 1571.5 225.08  1569.08 227.5  1566 227.5  C 1562.92 227.5  1560.5 225.08  1560.5 222  C 1560.5 218.92  1562.92 216.5  1566 216.5  Z " stroke-width="1" stroke="#797979" fill="none" />
  <path d="M 1566 225  C 1564.32 225  1563 223.68  1563 222  C 1563 220.32  1564.32 219  1566 219  C 1567.68 219  1569 220.32  1569 222  C 1569 223.68  1567.68 225  1566 225  " fill-rule="nonzero" fill="#797979" stroke="none" />
</svg>