<?xml version="1.0" encoding="utf-8"?>
<svg version="1.1" xmlns:xlink="http://www.w3.org/1999/xlink" width="25px" height="25px" xmlns="http://www.w3.org/2000/svg">
  <g transform="matrix(1 0 0 1 -27 -482 )">
    <path d="M 39.5 482  C 46.5 482  52 487.5  52 494.5  C 52 501.5  46.5 507  39.5 507  C 32.5 507  27 501.5  27 494.5  C 27 487.5  32.5 482  39.5 482  Z " fill-rule="nonzero" fill="#e4e4e4" stroke="none" />
    <path d="M 39.5 482.5  C 46.22 482.5  51.5 487.78  51.5 494.5  C 51.5 501.22  46.22 506.5  39.5 506.5  C 32.78 506.5  27.5 501.22  27.5 494.5  C 27.5 487.78  32.78 482.5  39.5 482.5  Z " stroke-width="1" stroke="#797979" fill="none" />
  </g>
</svg>