<?xml version="1.0" encoding="utf-8"?>
<svg version="1.1" xmlns:xlink="http://www.w3.org/1999/xlink" width="25px" height="22px" xmlns="http://www.w3.org/2000/svg">
  <g transform="matrix(1 0 0 1 -14 -36 )">
    <path d="M 23.6614612381484 0.13489409141583  C 23.9868005205429 -0.0367892976588653  24.3028443948689 -0.0286138981791191  24.6095928611266 0.159420289855073  C 24.9163413273843 0.355629877369007  25.0418293363079 0.61724266072092  24.9860568878974 0.944258639910815  L 21.4166201896263 19.7803790412486  C 21.3701431492843 20.0174656261613  21.2214166201896 20.2014121144556  20.9704406023424 20.3322185061316  C 20.8403048893846 20.3976217019695  20.6962260643242 20.4303232998885  20.5382041271612 20.4303232998885  C 20.4359546384086 20.4303232998885  20.3244097415877 20.4098848011892  20.2035694366983 20.3690078037904  L 12.8555493586168 17.7324414715719  L 8.70050195203569 21.742474916388  C 8.53318460680424 21.9141583054627  8.31474251719651 22  8.04517568321249 22  C 7.91503997025469 22  7.80814277746793 21.9836492010405  7.7244841048522 21.9509476031215  C 7.54787135155233 21.8937198067633  7.40844023052612 21.7976588628763  7.30619074177356 21.6627647714604  C 7.20394125302101 21.5278706800446  7.15281650864473 21.3786696395392  7.15281650864473 21.2151616499443  L 7.15281650864473 15.6722408026756  L 0.571667596207474 13.3054626532887  C 0.227737497676148 13.1910070605723  0.0418293363078639 12.9661835748792  0.0139431121026213 12.6309921962096  C -0.0139431121026213 12.3121516164994  0.134783416992006 12.0709773318469  0.460122699386503 11.907469342252  L 23.6614612381484 0.13489409141583  Z M 12.9810373675404 16.0769230769231  L 19.8410485220301 18.5418060200669  L 22.9224762967094 2.31772575250836  L 2.92805354155047 12.4593088071349  L 7.61293920803123 14.139353400223  L 19.6458449525934 6.30323299888517  L 12.9810373675404 16.0769230769231  Z " fill-rule="nonzero" fill="#000000" stroke="none" transform="matrix(1 0 0 1 14 36 )" />
  </g>
</svg>