<?xml version="1.0" encoding="utf-8"?>
<svg version="1.1" xmlns:xlink="http://www.w3.org/1999/xlink" width="34px" height="35px" xmlns="http://www.w3.org/2000/svg">
  <g transform="matrix(1 0 0 1 -77 -129 )">
    <path d="M 26.49609375 19.9837239583333  C 26.7764756944444 19.6950954861111  26.9166666666667 19.3532986111111  26.9166666666667 18.9583333333333  L 26.9166666666667 16.0416666666667  C 26.9166666666667 15.6467013888889  26.7764756944444 15.3049045138889  26.49609375 15.0162760416667  C 26.2157118055556 14.7276475694444  25.8836805555556 14.5833333333333  25.5 14.5833333333333  L 19.8333333333333 14.5833333333333  L 19.8333333333333 8.75  C 19.8333333333333 8.35503472222222  19.6931423611111 8.01323784722222  19.4127604166667 7.724609375  C 19.1323784722222 7.43598090277778  18.8003472222222 7.29166666666667  18.4166666666667 7.29166666666667  L 15.5833333333333 7.29166666666667  C 15.1996527777778 7.29166666666667  14.8676215277778 7.43598090277778  14.5872395833333 7.724609375  C 14.3068576388889 8.01323784722222  14.1666666666667 8.35503472222222  14.1666666666667 8.75  L 14.1666666666667 14.5833333333333  L 8.5 14.5833333333333  C 8.11631944444444 14.5833333333333  7.78428819444444 14.7276475694444  7.50390625 15.0162760416667  C 7.22352430555556 15.3049045138889  7.08333333333333 15.6467013888889  7.08333333333333 16.0416666666667  L 7.08333333333333 18.9583333333333  C 7.08333333333333 19.3532986111111  7.22352430555556 19.6950954861111  7.50390625 19.9837239583333  C 7.78428819444444 20.2723524305556  8.11631944444444 20.4166666666667  8.5 20.4166666666667  L 14.1666666666667 20.4166666666667  L 14.1666666666667 26.25  C 14.1666666666667 26.6449652777778  14.3068576388889 26.9867621527778  14.5872395833333 27.275390625  C 14.8676215277778 27.5640190972222  15.1996527777778 27.7083333333333  15.5833333333333 27.7083333333333  L 18.4166666666667 27.7083333333333  C 18.8003472222222 27.7083333333333  19.1323784722222 27.5640190972222  19.4127604166667 27.275390625  C 19.6931423611111 26.9867621527778  19.8333333333333 26.6449652777778  19.8333333333333 26.25  L 19.8333333333333 20.4166666666667  L 25.5 20.4166666666667  C 25.8836805555556 20.4166666666667  26.2157118055556 20.2723524305556  26.49609375 19.9837239583333  Z M 31.7200520833333 8.7158203125  C 33.2400173611111 11.3970269097222  34 14.3250868055556  34 17.5  C 34 20.6749131944444  33.2400173611111 23.6029730902778  31.7200520833333 26.2841796875  C 30.2000868055556 28.9653862847222  28.1378038194444 31.0883246527778  25.533203125 32.6529947916667  C 22.9286024305556 34.2176649305556  20.0842013888889 35  17 35  C 13.9157986111111 35  11.0713975694444 34.2176649305556  8.466796875 32.6529947916667  C 5.86219618055556 31.0883246527778  3.79991319444444 28.9653862847222  2.27994791666667 26.2841796875  C 0.759982638888889 23.6029730902778  0 20.6749131944444  0 17.5  C 0 14.3250868055556  0.759982638888889 11.3970269097222  2.27994791666667 8.7158203125  C 3.79991319444444 6.03461371527778  5.86219618055556 3.91167534722222  8.466796875 2.34700520833333  C 11.0713975694444 0.782335069444441  13.9157986111111 0  17 0  C 20.0842013888889 0  22.9286024305556 0.782335069444441  25.533203125 2.34700520833333  C 28.1378038194444 3.91167534722222  30.2000868055556 6.03461371527778  31.7200520833333 8.7158203125  Z " fill-rule="nonzero" fill="#ffffff" stroke="none" transform="matrix(1 0 0 1 77 129 )" />
  </g>
</svg>