<?xml version="1.0" encoding="utf-8"?>
<svg version="1.1" xmlns:xlink="http://www.w3.org/1999/xlink" width="140px" height="82px" xmlns="http://www.w3.org/2000/svg">
  <g transform="matrix(1 0 0 1 -103 -300 )">
    <path d="M 29.599609375 54.99125  C 31.7415364583333 53.3854166666667  32.8125 51.455  32.8125 49.2  C 32.8125 46.945  31.7415364583333 45.0145833333333  29.599609375 43.40875  C 27.4576822916667 41.8029166666667  24.8828125 41  21.875 41  C 18.8671875 41  16.2923177083333 41.8029166666667  14.150390625 43.40875  C 12.0084635416667 45.0145833333333  10.9375 46.945  10.9375 49.2  C 10.9375 51.455  12.0084635416667 53.3854166666667  14.150390625 54.99125  C 16.2923177083333 56.5970833333333  18.8671875 57.4  21.875 57.4  C 24.8828125 57.4  27.4576822916667 56.5970833333333  29.599609375 54.99125  Z M 41.357421875 14.50375  L 35.2734375 33  L 104.7265625 33  L 98.642578125 14.50375  C 98.5514322916667 14.2304166666667  98.232421875 13.9314583333333  97.685546875 13.606875  C 97.138671875 13.2822916666667  96.66015625 13.12  96.25 14  L 43.75 14  C 43.33984375 13.12  42.861328125 13.2822916666667  42.314453125 13.606875  C 41.767578125 13.9314583333333  41.4485677083333 14.2304166666667  41.357421875 14.50375  Z M 125.849609375 54.99125  C 127.991536458333 53.3854166666667  129.0625 51.455  129.0625 49.2  C 129.0625 46.945  127.991536458333 45.0145833333333  125.849609375 43.40875  C 123.707682291667 41.8029166666667  121.1328125 41  118.125 41  C 115.1171875 41  112.542317708333 41.8029166666667  110.400390625 43.40875  C 108.258463541667 45.0145833333333  107.1875 46.945  107.1875 49.2  C 107.1875 51.455  108.258463541667 53.3854166666667  110.400390625 54.99125  C 112.542317708333 56.5970833333333  115.1171875 57.4  118.125 57.4  C 121.1328125 57.4  123.707682291667 56.5970833333333  125.849609375 54.99125  Z M 135.5224609375 36.156875  C 138.507486979167 38.3947916666667  140 41.1025  140 44.28  L 140 63.96  C 140 64.4383333333333  139.794921875 64.83125  139.384765625 65.13875  C 138.974609375 65.44625  138.450520833333 65.6  137.8125 65.6  L 131.25 65.6  L 131.25 72.16  C 131.25 74.8933333333333  129.973958333333 77.2166666666667  127.421875 79.13  C 124.869791666667 81.0433333333333  121.770833333333 82  118.125 82  C 114.479166666667 82  111.380208333333 81.0433333333333  108.828125 79.13  C 106.276041666667 77.2166666666667  105 74.8933333333333  105 72.16  L 105 65  L 35 65  L 35 72.16  C 35 74.8933333333333  33.7239583333333 77.2166666666667  31.171875 79.13  C 28.6197916666667 81.0433333333333  25.5208333333333 82  21.875 82  C 18.2291666666667 82  15.1302083333333 81.0433333333333  12.578125 79.13  C 10.0260416666667 77.2166666666667  8.75 74.8933333333333  8.75 72.16  L 8.75 65.6  L 2.1875 65.6  C 1.54947916666667 65.6  1.025390625 65.44625  0.615234375 65.13875  C 0.205078125 64.83125  0 64.4383333333333  0 63.96  L 0 44.28  C 0 41.1025  1.49251302083333 38.3947916666667  4.4775390625 36.156875  C 7.46256510416667 33.9189583333333  11.07421875 32.8  15.3125 32.8  L 17.2265625 32.8  L 24.404296875 11.32625  C 25.4524739583333 8.11458333333333  27.822265625 5.42395833333333  31.513671875 3.254375  C 35.205078125 1.08479166666666  39.2838541666667 0  43.75 0  L 96.25 0  C 100.716145833333 0  104.794921875 1.08479166666666  108.486328125 3.254375  C 112.177734375 5.42395833333333  114.547526041667 8.11458333333333  115.595703125 11.32625  L 122.7734375 32.8  L 124.6875 32.8  C 128.92578125 32.8  132.537434895833 33.9189583333333  135.5224609375 36.156875  Z " fill-rule="nonzero" fill="#cccccc" stroke="none" transform="matrix(1 0 0 1 103 300 )" />
  </g>
</svg>