<?xml version="1.0" encoding="utf-8"?>
<svg version="1.1" xmlns:xlink="http://www.w3.org/1999/xlink" width="36px" height="36px" xmlns="http://www.w3.org/2000/svg">
  <g transform="matrix(1 0 0 1 -100 -164 )">
    <path d="M 118 164  C 128.08 164  136 171.92  136 182  C 136 192.08  128.08 200  118 200  C 107.92 200  100 192.08  100 182  C 100 171.92  107.92 164  118 164  Z " fill-rule="nonzero" fill="#0066ff" stroke="none" />
    <path d="M 118 164.5  C 127.8 164.5  135.5 172.2  135.5 182  C 135.5 191.8  127.8 199.5  118 199.5  C 108.2 199.5  100.5 191.8  100.5 182  C 100.5 172.2  108.2 164.5  118 164.5  Z " stroke-width="1" stroke="#797979" fill="none" />
  </g>
</svg>