<?xml version="1.0" encoding="utf-8"?>
<svg version="1.1" xmlns:xlink="http://www.w3.org/1999/xlink" width="31px" height="20px" xmlns="http://www.w3.org/2000/svg">
  <g transform="matrix(1 0 0 1 -294 -185 )">
    <path d="M 30.2207880434783 8.84467265725289  C 30.7402626811594 9.14420196833547  31 9.52931108258451  31 10  C 31 10.4621309370988  30.7402626811594 10.8515190415062  30.2207880434783 11.1681643132221  L 16.5108695652174 19.5250320924262  C 15.9633152173913 19.8416773641421  15.3245018115942 20  14.5944293478261 20  C 13.8783967391304 20  13.2466032608696 19.8416773641421  12.6990489130435 19.5250320924262  L 11.1195652173913 18.5622593068036  C 10.5860507246377 18.2370560547711  10.3192934782609 17.8476679503637  10.3192934782609 17.3940949935815  C 10.3192934782609 16.9405220367993  10.5860507246377 16.551133932392  11.1195652173913 16.2259306803594  L 17.2900815217391 12.4646983311938  L 2.46399456521739 12.4646983311938  C 1.73392210144928 12.4646983311938  1.14073822463768 12.3042362002567  0.684442934782609 11.9833119383825  C 0.228147644927536 11.6623876765083  0 11.2751390671801  0 10.8215661103979  L 0 9.17843388960205  C 0 8.72486093281985  0.228147644927536 8.33761232349166  0.684442934782609 8.01668806161746  C 1.14073822463768 7.69576379974326  1.73392210144928 7.53530166880616  2.46399456521739 7.53530166880616  L 17.2900815217391 7.53530166880616  L 11.1195652173913 3.7612323491656  C 10.5860507246377 3.45314505776637  10.3192934782609 3.06803594351733  10.3192934782609 2.60590500641849  C 10.3192934782609 2.14377406931964  10.5860507246377 1.7586649550706  11.1195652173913 1.45057766367137  L 12.6990489130435 0.487804878048781  C 13.2325634057971 0.162601626016259  13.864356884058 0  14.5944293478261 0  C 15.3385416666667 0  15.9773550724638 0.162601626016259  16.5108695652174 0.487804878048781  L 30.2207880434783 8.84467265725289  Z " fill-rule="nonzero" fill="#0066ff" stroke="none" transform="matrix(1 0 0 1 294 185 )" />
  </g>
</svg>