<?xml version="1.0" encoding="utf-8"?>
<svg version="1.1" xmlns:xlink="http://www.w3.org/1999/xlink" width="30px" height="32px" xmlns="http://www.w3.org/2000/svg">
  <g transform="matrix(1 0 0 1 -335 -180 )">
    <path d="M 25.3846153846154 4.57142857142857  L 27.6923076923077 4.57142857142857  C 28.3173076923077 4.57142857142857  28.8581730769231 4.79761904761904  29.3149038461538 5.25  C 29.7716346153846 5.70238095238095  30 6.23809523809524  30 6.85714285714286  L 30 29.7142857142857  C 30 30.3333333333333  29.7716346153846 30.8690476190476  29.3149038461538 31.3214285714286  C 28.8581730769231 31.7738095238095  28.3173076923077 32  27.6923076923077 32  L 2.30769230769231 32  C 1.68269230769231 32  1.14182692307692 31.7738095238095  0.685096153846154 31.3214285714286  C 0.228365384615385 30.8690476190476  0 30.3333333333333  0 29.7142857142857  L 0 6.85714285714286  C 0 6.23809523809524  0.228365384615385 5.70238095238095  0.685096153846154 5.25  C 1.14182692307692 4.79761904761904  1.68269230769231 4.57142857142857  2.30769230769231 4.57142857142857  L 4.61538461538462 4.57142857142857  L 4.61538461538462 2.85714285714286  C 4.61538461538462 2.07142857142857  4.89783653846154 1.39880952380952  5.46274038461538 0.839285714285715  C 6.02764423076923 0.279761904761905  6.70673076923077 0  7.5 0  L 8.65384615384615 0  C 9.44711538461539 0  10.1262019230769 0.279761904761905  10.6911057692308 0.839285714285715  C 11.2560096153846 1.39880952380952  11.5384615384615 2.07142857142857  11.5384615384615 2.85714285714286  L 11.5384615384615 4.57142857142857  L 18.4615384615385 4.57142857142857  L 18.4615384615385 2.85714285714286  C 18.4615384615385 2.07142857142857  18.7439903846154 1.39880952380952  19.3088942307692 0.839285714285715  C 19.8737980769231 0.279761904761905  20.5528846153846 0  21.3461538461538 0  L 22.5 0  C 23.2932692307692 0  23.9723557692308 0.279761904761905  24.5372596153846 0.839285714285715  C 25.1021634615385 1.39880952380952  25.3846153846154 2.07142857142857  25.3846153846154 2.85714285714286  L 25.3846153846154 4.57142857142857  Z M 20.9314903846154 2.44642857142857  C 20.8233173076923 2.55357142857143  20.7692307692308 2.69047619047619  20.7692307692308 2.85714285714286  L 20.7692307692308 8  C 20.7692307692308 8.16666666666666  20.8233173076923 8.30357142857143  20.9314903846154 8.41071428571428  C 21.0396634615385 8.51785714285714  21.1778846153846 8.57142857142857  21.3461538461538 8.57142857142857  L 22.5 8.57142857142857  C 22.6682692307692 8.57142857142857  22.8064903846154 8.51785714285714  22.9146634615385 8.41071428571428  C 23.0228365384615 8.30357142857143  23.0769230769231 8.16666666666666  23.0769230769231 8  L 23.0769230769231 2.85714285714286  C 23.0769230769231 2.69047619047619  23.0228365384615 2.55357142857143  22.9146634615385 2.44642857142857  C 22.8064903846154 2.33928571428572  22.6682692307692 2.28571428571428  22.5 2.28571428571428  L 21.3461538461538 2.28571428571428  C 21.1778846153846 2.28571428571428  21.0396634615385 2.33928571428572  20.9314903846154 2.44642857142857  Z M 7.08533653846154 2.44642857142857  C 6.97716346153846 2.55357142857143  6.92307692307692 2.69047619047619  6.92307692307692 2.85714285714286  L 6.92307692307692 8  C 6.92307692307692 8.16666666666666  6.97716346153846 8.30357142857143  7.08533653846154 8.41071428571428  C 7.19350961538462 8.51785714285714  7.33173076923077 8.57142857142857  7.5 8.57142857142857  L 8.65384615384615 8.57142857142857  C 8.82211538461539 8.57142857142857  8.96033653846154 8.51785714285714  9.06850961538462 8.41071428571428  C 9.17668269230769 8.30357142857143  9.23076923076923 8.16666666666666  9.23076923076923 8  L 9.23076923076923 2.85714285714286  C 9.23076923076923 2.69047619047619  9.17668269230769 2.55357142857143  9.06850961538462 2.44642857142857  C 8.96033653846154 2.33928571428572  8.82211538461539 2.28571428571428  8.65384615384615 2.28571428571428  L 7.5 2.28571428571428  C 7.33173076923077 2.28571428571428  7.19350961538462 2.33928571428572  7.08533653846154 2.44642857142857  Z M 2.30769230769231 29.7142857142857  L 27.6923076923077 29.7142857142857  L 27.6923076923077 12  L 2.30769230769231 12  L 2.30769230769231 29.7142857142857  Z M 16.1538461538462 15.4285714285714  L 16.1538461538462 19.4285714285714  L 20.1923076923077 19.4285714285714  C 20.3605769230769 19.4285714285714  20.4987980769231 19.4821428571429  20.6069711538462 19.5892857142857  C 20.7151442307692 19.6964285714286  20.7692307692308 19.8333333333333  20.7692307692308 20  L 20.7692307692308 21.1428571428571  C 20.7692307692308 21.3095238095238  20.7151442307692 21.4464285714286  20.6069711538462 21.5535714285714  C 20.4987980769231 21.6607142857143  20.3605769230769 21.7142857142857  20.1923076923077 21.7142857142857  L 16.1538461538462 21.7142857142857  L 16.1538461538462 25.7142857142857  C 16.1538461538462 25.8809523809524  16.0997596153846 26.0178571428571  15.9915865384615 26.125  C 15.8834134615385 26.2321428571429  15.7451923076923 26.2857142857143  15.5769230769231 26.2857142857143  L 14.4230769230769 26.2857142857143  C 14.2548076923077 26.2857142857143  14.1165865384615 26.2321428571429  14.0084134615385 26.125  C 13.9002403846154 26.0178571428571  13.8461538461538 25.8809523809524  13.8461538461538 25.7142857142857  L 13.8461538461538 21.7142857142857  L 9.80769230769231 21.7142857142857  C 9.63942307692308 21.7142857142857  9.50120192307692 21.6607142857143  9.39302884615385 21.5535714285714  C 9.28485576923077 21.4464285714286  9.23076923076923 21.3095238095238  9.23076923076923 21.1428571428571  L 9.23076923076923 20  C 9.23076923076923 19.8333333333333  9.28485576923077 19.6964285714286  9.39302884615385 19.5892857142857  C 9.50120192307692 19.4821428571429  9.63942307692308 19.4285714285714  9.80769230769231 19.4285714285714  L 13.8461538461538 19.4285714285714  L 13.8461538461538 15.4285714285714  C 13.8461538461538 15.2619047619048  13.9002403846154 15.125  14.0084134615385 15.0178571428571  C 14.1165865384615 14.9107142857143  14.2548076923077 14.8571428571429  14.4230769230769 14.8571428571429  L 15.5769230769231 14.8571428571429  C 15.7451923076923 14.8571428571429  15.8834134615385 14.9107142857143  15.9915865384615 15.0178571428571  C 16.0997596153846 15.125  16.1538461538462 15.2619047619048  16.1538461538462 15.4285714285714  Z " fill-rule="nonzero" fill="#0066ff" stroke="none" transform="matrix(1 0 0 1 335 180 )" />
  </g>
</svg>