<?xml version="1.0" encoding="utf-8"?>
<svg version="1.1" xmlns:xlink="http://www.w3.org/1999/xlink" width="12px" height="12px" viewBox="203 380  12 12" xmlns="http://www.w3.org/2000/svg">
  <path d="M 209 380  C 212.36 380  215 382.64  215 386  C 215 389.36  212.36 392  209 392  C 205.64 392  203 389.36  203 386  C 203 382.64  205.64 380  209 380  Z " fill-rule="nonzero" fill="#ffffff" stroke="none" />
  <path d="M 209 380.5  C 212.08 380.5  214.5 382.92  214.5 386  C 214.5 389.08  212.08 391.5  209 391.5  C 205.92 391.5  203.5 389.08  203.5 386  C 203.5 382.92  205.92 380.5  209 380.5  Z " stroke-width="1" stroke="#797979" fill="none" />
  <path d="M 209 389  C 207.32 389  206 387.68  206 386  C 206 384.32  207.32 383  209 383  C 210.68 383  212 384.32  212 386  C 212 387.68  210.68 389  209 389  " fill-rule="nonzero" fill="#797979" stroke="none" />
</svg>