<?xml version="1.0" encoding="utf-8"?>
<svg version="1.1" xmlns:xlink="http://www.w3.org/1999/xlink" width="12px" height="12px" viewBox="203 345  12 12" xmlns="http://www.w3.org/2000/svg">
  <path d="M 209 345  C 212.36 345  215 347.64  215 351  C 215 354.36  212.36 357  209 357  C 205.64 357  203 354.36  203 351  C 203 347.64  205.64 345  209 345  Z " fill-rule="nonzero" fill="#ffffff" stroke="none" />
  <path d="M 209 345.5  C 212.08 345.5  214.5 347.92  214.5 351  C 214.5 354.08  212.08 356.5  209 356.5  C 205.92 356.5  203.5 354.08  203.5 351  C 203.5 347.92  205.92 345.5  209 345.5  Z " stroke-width="1" stroke="#797979" fill="none" />
  <path d="M 209 354  C 207.32 354  206 352.68  206 351  C 206 349.32  207.32 348  209 348  C 210.68 348  212 349.32  212 351  C 212 352.68  210.68 354  209 354  " fill-rule="nonzero" fill="#797979" stroke="none" />
</svg>