<?xml version="1.0" encoding="utf-8"?>
<svg version="1.1" xmlns:xlink="http://www.w3.org/1999/xlink" width="12px" height="12px" viewBox="203 608  12 12" xmlns="http://www.w3.org/2000/svg">
  <path d="M 209 608  C 212.36 608  215 610.64  215 614  C 215 617.36  212.36 620  209 620  C 205.64 620  203 617.36  203 614  C 203 610.64  205.64 608  209 608  Z " fill-rule="nonzero" fill="#ffffff" stroke="none" />
  <path d="M 209 608.5  C 212.08 608.5  214.5 610.92  214.5 614  C 214.5 617.08  212.08 619.5  209 619.5  C 205.92 619.5  203.5 617.08  203.5 614  C 203.5 610.92  205.92 608.5  209 608.5  Z " stroke-width="1" stroke="#797979" fill="none" />
  <path d="M 209 617  C 207.32 617  206 615.68  206 614  C 206 612.32  207.32 611  209 611  C 210.68 611  212 612.32  212 614  C 212 615.68  210.68 617  209 617  " fill-rule="nonzero" fill="#797979" stroke="none" />
</svg>