<?xml version="1.0" encoding="utf-8"?>
<svg version="1.1" xmlns:xlink="http://www.w3.org/1999/xlink" width="12px" height="12px" viewBox="203 453  12 12" xmlns="http://www.w3.org/2000/svg">
  <path d="M 209 453  C 212.36 453  215 455.64  215 459  C 215 462.36  212.36 465  209 465  C 205.64 465  203 462.36  203 459  C 203 455.64  205.64 453  209 453  Z " fill-rule="nonzero" fill="#ffffff" stroke="none" />
  <path d="M 209 453.5  C 212.08 453.5  214.5 455.92  214.5 459  C 214.5 462.08  212.08 464.5  209 464.5  C 205.92 464.5  203.5 462.08  203.5 459  C 203.5 455.92  205.92 453.5  209 453.5  Z " stroke-width="1" stroke="#797979" fill="none" />
  <path d="M 209 462  C 207.32 462  206 460.68  206 459  C 206 457.32  207.32 456  209 456  C 210.68 456  212 457.32  212 459  C 212 460.68  210.68 462  209 462  " fill-rule="nonzero" fill="#797979" stroke="none" />
</svg>