<?xml version="1.0" encoding="utf-8"?>
<svg version="1.1" xmlns:xlink="http://www.w3.org/1999/xlink" width="12px" height="12px" viewBox="203 548  12 12" xmlns="http://www.w3.org/2000/svg">
  <path d="M 209 548  C 212.36 548  215 550.64  215 554  C 215 557.36  212.36 560  209 560  C 205.64 560  203 557.36  203 554  C 203 550.64  205.64 548  209 548  Z " fill-rule="nonzero" fill="#ffffff" stroke="none" />
  <path d="M 209 548.5  C 212.08 548.5  214.5 550.92  214.5 554  C 214.5 557.08  212.08 559.5  209 559.5  C 205.92 559.5  203.5 557.08  203.5 554  C 203.5 550.92  205.92 548.5  209 548.5  Z " stroke-width="1" stroke="#797979" fill="none" />
  <path d="M 209 557  C 207.32 557  206 555.68  206 554  C 206 552.32  207.32 551  209 551  C 210.68 551  212 552.32  212 554  C 212 555.68  210.68 557  209 557  " fill-rule="nonzero" fill="#797979" stroke="none" />
</svg>