<?xml version="1.0" encoding="utf-8"?>
<svg version="1.1" xmlns:xlink="http://www.w3.org/1999/xlink" width="12px" height="12px" viewBox="203 488  12 12" xmlns="http://www.w3.org/2000/svg">
  <path d="M 209 488  C 212.36 488  215 490.64  215 494  C 215 497.36  212.36 500  209 500  C 205.64 500  203 497.36  203 494  C 203 490.64  205.64 488  209 488  Z " fill-rule="nonzero" fill="#ffffff" stroke="none" />
  <path d="M 209 488.5  C 212.08 488.5  214.5 490.92  214.5 494  C 214.5 497.08  212.08 499.5  209 499.5  C 205.92 499.5  203.5 497.08  203.5 494  C 203.5 490.92  205.92 488.5  209 488.5  Z " stroke-width="1" stroke="#797979" fill="none" />
  <path d="M 209 497  C 207.32 497  206 495.68  206 494  C 206 492.32  207.32 491  209 491  C 210.68 491  212 492.32  212 494  C 212 495.68  210.68 497  209 497  " fill-rule="nonzero" fill="#797979" stroke="none" />
</svg>