<?xml version="1.0" encoding="utf-8"?>
<svg version="1.1" xmlns:xlink="http://www.w3.org/1999/xlink" width="12px" height="12px" viewBox="203 634  12 12" xmlns="http://www.w3.org/2000/svg">
  <path d="M 209 634  C 212.36 634  215 636.64  215 640  C 215 643.36  212.36 646  209 646  C 205.64 646  203 643.36  203 640  C 203 636.64  205.64 634  209 634  Z " fill-rule="nonzero" fill="#ffffff" stroke="none" />
  <path d="M 209 634.5  C 212.08 634.5  214.5 636.92  214.5 640  C 214.5 643.08  212.08 645.5  209 645.5  C 205.92 645.5  203.5 643.08  203.5 640  C 203.5 636.92  205.92 634.5  209 634.5  Z " stroke-width="1" stroke="#797979" fill="none" />
  <path d="M 209 643  C 207.32 643  206 641.68  206 640  C 206 638.32  207.32 637  209 637  C 210.68 637  212 638.32  212 640  C 212 641.68  210.68 643  209 643  " fill-rule="nonzero" fill="#797979" stroke="none" />
</svg>