<?xml version="1.0" encoding="utf-8"?>
<svg version="1.1" xmlns:xlink="http://www.w3.org/1999/xlink" width="12px" height="12px" viewBox="1843 883  12 12" xmlns="http://www.w3.org/2000/svg">
  <path d="M 1849 883  C 1852.36 883  1855 885.64  1855 889  C 1855 892.36  1852.36 895  1849 895  C 1845.64 895  1843 892.36  1843 889  C 1843 885.64  1845.64 883  1849 883  Z " fill-rule="nonzero" fill="#ffffff" stroke="none" />
  <path d="M 1849 883.5  C 1852.08 883.5  1854.5 885.92  1854.5 889  C 1854.5 892.08  1852.08 894.5  1849 894.5  C 1845.92 894.5  1843.5 892.08  1843.5 889  C 1843.5 885.92  1845.92 883.5  1849 883.5  Z " stroke-width="1" stroke="#797979" fill="none" />
  <path d="M 1849 892  C 1847.32 892  1846 890.68  1846 889  C 1846 887.32  1847.32 886  1849 886  C 1850.68 886  1852 887.32  1852 889  C 1852 890.68  1850.68 892  1849 892  " fill-rule="nonzero" fill="#797979" stroke="none" />
</svg>