<?xml version="1.0" encoding="utf-8"?>
<svg version="1.1" xmlns:xlink="http://www.w3.org/1999/xlink" width="12px" height="12px" viewBox="2053 922  12 12" xmlns="http://www.w3.org/2000/svg">
  <path d="M 2059 922  C 2062.36 922  2065 924.64  2065 928  C 2065 931.36  2062.36 934  2059 934  C 2055.64 934  2053 931.36  2053 928  C 2053 924.64  2055.64 922  2059 922  Z " fill-rule="nonzero" fill="#ffffff" stroke="none" />
  <path d="M 2059 922.5  C 2062.08 922.5  2064.5 924.92  2064.5 928  C 2064.5 931.08  2062.08 933.5  2059 933.5  C 2055.92 933.5  2053.5 931.08  2053.5 928  C 2053.5 924.92  2055.92 922.5  2059 922.5  Z " stroke-width="1" stroke="#797979" fill="none" />
  <path d="M 2059 931  C 2057.32 931  2056 929.68  2056 928  C 2056 926.32  2057.32 925  2059 925  C 2060.68 925  2062 926.32  2062 928  C 2062 929.68  2060.68 931  2059 931  " fill-rule="nonzero" fill="#797979" stroke="none" />
</svg>