<?xml version="1.0" encoding="utf-8"?>
<svg version="1.1" xmlns:xlink="http://www.w3.org/1999/xlink" width="12px" height="12px" viewBox="1923 922  12 12" xmlns="http://www.w3.org/2000/svg">
  <path d="M 1929 922  C 1932.36 922  1935 924.64  1935 928  C 1935 931.36  1932.36 934  1929 934  C 1925.64 934  1923 931.36  1923 928  C 1923 924.64  1925.64 922  1929 922  Z " fill-rule="nonzero" fill="#ffffff" stroke="none" />
  <path d="M 1929 922.5  C 1932.08 922.5  1934.5 924.92  1934.5 928  C 1934.5 931.08  1932.08 933.5  1929 933.5  C 1925.92 933.5  1923.5 931.08  1923.5 928  C 1923.5 924.92  1925.92 922.5  1929 922.5  Z " stroke-width="1" stroke="#797979" fill="none" />
  <path d="M 1929 931  C 1927.32 931  1926 929.68  1926 928  C 1926 926.32  1927.32 925  1929 925  C 1930.68 925  1932 926.32  1932 928  C 1932 929.68  1930.68 931  1929 931  " fill-rule="nonzero" fill="#797979" stroke="none" />
</svg>