<?xml version="1.0" encoding="utf-8"?>
<svg version="1.1" xmlns:xlink="http://www.w3.org/1999/xlink" width="12px" height="12px" viewBox="1843 922  12 12" xmlns="http://www.w3.org/2000/svg">
  <path d="M 1849 922  C 1852.36 922  1855 924.64  1855 928  C 1855 931.36  1852.36 934  1849 934  C 1845.64 934  1843 931.36  1843 928  C 1843 924.64  1845.64 922  1849 922  Z " fill-rule="nonzero" fill="#ffffff" stroke="none" />
  <path d="M 1849 922.5  C 1852.08 922.5  1854.5 924.92  1854.5 928  C 1854.5 931.08  1852.08 933.5  1849 933.5  C 1845.92 933.5  1843.5 931.08  1843.5 928  C 1843.5 924.92  1845.92 922.5  1849 922.5  Z " stroke-width="1" stroke="#797979" fill="none" />
  <path d="M 1849 931  C 1847.32 931  1846 929.68  1846 928  C 1846 926.32  1847.32 925  1849 925  C 1850.68 925  1852 926.32  1852 928  C 1852 929.68  1850.68 931  1849 931  " fill-rule="nonzero" fill="#797979" stroke="none" />
</svg>