<?xml version="1.0" encoding="utf-8"?>
<svg version="1.1" xmlns:xlink="http://www.w3.org/1999/xlink" width="12px" height="12px" viewBox="1923 883  12 12" xmlns="http://www.w3.org/2000/svg">
  <path d="M 1929 883  C 1932.36 883  1935 885.64  1935 889  C 1935 892.36  1932.36 895  1929 895  C 1925.64 895  1923 892.36  1923 889  C 1923 885.64  1925.64 883  1929 883  Z " fill-rule="nonzero" fill="#ffffff" stroke="none" />
  <path d="M 1929 883.5  C 1932.08 883.5  1934.5 885.92  1934.5 889  C 1934.5 892.08  1932.08 894.5  1929 894.5  C 1925.92 894.5  1923.5 892.08  1923.5 889  C 1923.5 885.92  1925.92 883.5  1929 883.5  Z " stroke-width="1" stroke="#797979" fill="none" />
  <path d="M 1929 892  C 1927.32 892  1926 890.68  1926 889  C 1926 887.32  1927.32 886  1929 886  C 1930.68 886  1932 887.32  1932 889  C 1932 890.68  1930.68 892  1929 892  " fill-rule="nonzero" fill="#797979" stroke="none" />
</svg>