<?xml version="1.0" encoding="utf-8"?>
<svg version="1.1" xmlns:xlink="http://www.w3.org/1999/xlink" width="12px" height="12px" viewBox="1980 922  12 12" xmlns="http://www.w3.org/2000/svg">
  <path d="M 1986 922  C 1989.36 922  1992 924.64  1992 928  C 1992 931.36  1989.36 934  1986 934  C 1982.64 934  1980 931.36  1980 928  C 1980 924.64  1982.64 922  1986 922  Z " fill-rule="nonzero" fill="#ffffff" stroke="none" />
  <path d="M 1986 922.5  C 1989.08 922.5  1991.5 924.92  1991.5 928  C 1991.5 931.08  1989.08 933.5  1986 933.5  C 1982.92 933.5  1980.5 931.08  1980.5 928  C 1980.5 924.92  1982.92 922.5  1986 922.5  Z " stroke-width="1" stroke="#797979" fill="none" />
  <path d="M 1986 931  C 1984.32 931  1983 929.68  1983 928  C 1983 926.32  1984.32 925  1986 925  C 1987.68 925  1989 926.32  1989 928  C 1989 929.68  1987.68 931  1986 931  " fill-rule="nonzero" fill="#797979" stroke="none" />
</svg>