<?xml version="1.0" encoding="utf-8"?>
<svg version="1.1" xmlns:xlink="http://www.w3.org/1999/xlink" width="12px" height="12px" viewBox="1923 953  12 12" xmlns="http://www.w3.org/2000/svg">
  <path d="M 1929 953  C 1932.36 953  1935 955.64  1935 959  C 1935 962.36  1932.36 965  1929 965  C 1925.64 965  1923 962.36  1923 959  C 1923 955.64  1925.64 953  1929 953  Z " fill-rule="nonzero" fill="#ffffff" stroke="none" />
  <path d="M 1929 953.5  C 1932.08 953.5  1934.5 955.92  1934.5 959  C 1934.5 962.08  1932.08 964.5  1929 964.5  C 1925.92 964.5  1923.5 962.08  1923.5 959  C 1923.5 955.92  1925.92 953.5  1929 953.5  Z " stroke-width="1" stroke="#797979" fill="none" />
  <path d="M 1929 962  C 1927.32 962  1926 960.68  1926 959  C 1926 957.32  1927.32 956  1929 956  C 1930.68 956  1932 957.32  1932 959  C 1932 960.68  1930.68 962  1929 962  " fill-rule="nonzero" fill="#797979" stroke="none" />
</svg>