<?xml version="1.0" encoding="utf-8"?>
<svg version="1.1" xmlns:xlink="http://www.w3.org/1999/xlink" width="12px" height="12px" viewBox="2147 597  12 12" xmlns="http://www.w3.org/2000/svg">
  <path d="M 2153 597  C 2156.36 597  2159 599.64  2159 603  C 2159 606.36  2156.36 609  2153 609  C 2149.64 609  2147 606.36  2147 603  C 2147 599.64  2149.64 597  2153 597  Z " fill-rule="nonzero" fill="#ffffff" stroke="none" />
  <path d="M 2153 597.5  C 2156.08 597.5  2158.5 599.92  2158.5 603  C 2158.5 606.08  2156.08 608.5  2153 608.5  C 2149.92 608.5  2147.5 606.08  2147.5 603  C 2147.5 599.92  2149.92 597.5  2153 597.5  Z " stroke-width="1" stroke="#797979" fill="none" />
  <path d="M 2153 606  C 2151.32 606  2150 604.68  2150 603  C 2150 601.32  2151.32 600  2153 600  C 2154.68 600  2156 601.32  2156 603  C 2156 604.68  2154.68 606  2153 606  " fill-rule="nonzero" fill="#797979" stroke="none" />
</svg>