<?xml version="1.0" encoding="utf-8"?>
<svg version="1.1" xmlns:xlink="http://www.w3.org/1999/xlink" width="12px" height="12px" viewBox="1847 763  12 12" xmlns="http://www.w3.org/2000/svg">
  <path d="M 1853 763  C 1856.36 763  1859 765.64  1859 769  C 1859 772.36  1856.36 775  1853 775  C 1849.64 775  1847 772.36  1847 769  C 1847 765.64  1849.64 763  1853 763  Z " fill-rule="nonzero" fill="#ffffff" stroke="none" />
  <path d="M 1853 763.5  C 1856.08 763.5  1858.5 765.92  1858.5 769  C 1858.5 772.08  1856.08 774.5  1853 774.5  C 1849.92 774.5  1847.5 772.08  1847.5 769  C 1847.5 765.92  1849.92 763.5  1853 763.5  Z " stroke-width="1" stroke="#797979" fill="none" />
  <path d="M 1853 772  C 1851.32 772  1850 770.68  1850 769  C 1850 767.32  1851.32 766  1853 766  C 1854.68 766  1856 767.32  1856 769  C 1856 770.68  1854.68 772  1853 772  " fill-rule="nonzero" fill="#797979" stroke="none" />
</svg>