<?xml version="1.0" encoding="utf-8"?>
<svg version="1.1" xmlns:xlink="http://www.w3.org/1999/xlink" width="12px" height="12px" viewBox="1795 763  12 12" xmlns="http://www.w3.org/2000/svg">
  <path d="M 1801 763  C 1804.36 763  1807 765.64  1807 769  C 1807 772.36  1804.36 775  1801 775  C 1797.64 775  1795 772.36  1795 769  C 1795 765.64  1797.64 763  1801 763  Z " fill-rule="nonzero" fill="#ffffff" stroke="none" />
  <path d="M 1801 763.5  C 1804.08 763.5  1806.5 765.92  1806.5 769  C 1806.5 772.08  1804.08 774.5  1801 774.5  C 1797.92 774.5  1795.5 772.08  1795.5 769  C 1795.5 765.92  1797.92 763.5  1801 763.5  Z " stroke-width="1" stroke="#797979" fill="none" />
  <path d="M 1801 772  C 1799.32 772  1798 770.68  1798 769  C 1798 767.32  1799.32 766  1801 766  C 1802.68 766  1804 767.32  1804 769  C 1804 770.68  1802.68 772  1801 772  " fill-rule="nonzero" fill="#797979" stroke="none" />
</svg>