<?xml version="1.0" encoding="utf-8"?>
<svg version="1.1" xmlns:xlink="http://www.w3.org/1999/xlink" width="12px" height="12px" viewBox="2328 597  12 12" xmlns="http://www.w3.org/2000/svg">
  <path d="M 2334 597  C 2337.36 597  2340 599.64  2340 603  C 2340 606.36  2337.36 609  2334 609  C 2330.64 609  2328 606.36  2328 603  C 2328 599.64  2330.64 597  2334 597  Z " fill-rule="nonzero" fill="#ffffff" stroke="none" />
  <path d="M 2334 597.5  C 2337.08 597.5  2339.5 599.92  2339.5 603  C 2339.5 606.08  2337.08 608.5  2334 608.5  C 2330.92 608.5  2328.5 606.08  2328.5 603  C 2328.5 599.92  2330.92 597.5  2334 597.5  Z " stroke-width="1" stroke="#797979" fill="none" />
  <path d="M 2334 606  C 2332.32 606  2331 604.68  2331 603  C 2331 601.32  2332.32 600  2334 600  C 2335.68 600  2337 601.32  2337 603  C 2337 604.68  2335.68 606  2334 606  " fill-rule="nonzero" fill="#797979" stroke="none" />
</svg>