<?xml version="1.0" encoding="utf-8"?>
<svg version="1.1" xmlns:xlink="http://www.w3.org/1999/xlink" width="12px" height="12px" viewBox="2051 763  12 12" xmlns="http://www.w3.org/2000/svg">
  <path d="M 2057 763  C 2060.36 763  2063 765.64  2063 769  C 2063 772.36  2060.36 775  2057 775  C 2053.64 775  2051 772.36  2051 769  C 2051 765.64  2053.64 763  2057 763  Z " fill-rule="nonzero" fill="#ffffff" stroke="none" />
  <path d="M 2057 763.5  C 2060.08 763.5  2062.5 765.92  2062.5 769  C 2062.5 772.08  2060.08 774.5  2057 774.5  C 2053.92 774.5  2051.5 772.08  2051.5 769  C 2051.5 765.92  2053.92 763.5  2057 763.5  Z " stroke-width="1" stroke="#797979" fill="none" />
  <path d="M 2057 772  C 2055.32 772  2054 770.68  2054 769  C 2054 767.32  2055.32 766  2057 766  C 2058.68 766  2060 767.32  2060 769  C 2060 770.68  2058.68 772  2057 772  " fill-rule="nonzero" fill="#797979" stroke="none" />
</svg>