<?xml version="1.0" encoding="utf-8"?>
<svg version="1.1" xmlns:xlink="http://www.w3.org/1999/xlink" width="12px" height="12px" viewBox="2103 763  12 12" xmlns="http://www.w3.org/2000/svg">
  <path d="M 2109 763  C 2112.36 763  2115 765.64  2115 769  C 2115 772.36  2112.36 775  2109 775  C 2105.64 775  2103 772.36  2103 769  C 2103 765.64  2105.64 763  2109 763  Z " fill-rule="nonzero" fill="#ffffff" stroke="none" />
  <path d="M 2109 763.5  C 2112.08 763.5  2114.5 765.92  2114.5 769  C 2114.5 772.08  2112.08 774.5  2109 774.5  C 2105.92 774.5  2103.5 772.08  2103.5 769  C 2103.5 765.92  2105.92 763.5  2109 763.5  Z " stroke-width="1" stroke="#797979" fill="none" />
  <path d="M 2109 772  C 2107.32 772  2106 770.68  2106 769  C 2106 767.32  2107.32 766  2109 766  C 2110.68 766  2112 767.32  2112 769  C 2112 770.68  2110.68 772  2109 772  " fill-rule="nonzero" fill="#797979" stroke="none" />
</svg>