<?xml version="1.0" encoding="utf-8"?>
<svg version="1.1" xmlns:xlink="http://www.w3.org/1999/xlink" width="40px" height="40px" xmlns="http://www.w3.org/2000/svg">
  <defs>
    <filter x="183px" y="201px" width="40px" height="40px" filterUnits="userSpaceOnUse" id="filter83">
      <feOffset dx="1" dy="1" in="SourceAlpha" result="shadowOffsetInner" />
      <feGaussianBlur stdDeviation="2.5" in="shadowOffsetInner" result="shadowGaussian" />
      <feComposite in2="shadowGaussian" operator="atop" in="SourceAlpha" result="shadowComposite" />
      <feColorMatrix type="matrix" values="0 0 0 0 0  0 0 0 0 0  0 0 0 0 0  0 0 0 0.698039215686274 0  " in="shadowComposite" />
    </filter>
    <g id="widget84">
      <path d="M 202 205  C 210.4 205  217 211.6  217 220  C 217 228.4  210.4 235  202 235  C 193.6 235  187 228.4  187 220  C 187 211.6  193.6 205  202 205  Z " fill-rule="nonzero" fill="#ff0000" stroke="none" />
      <path d="M 202 205.5  C 210.12 205.5  216.5 211.88  216.5 220  C 216.5 228.12  210.12 234.5  202 234.5  C 193.88 234.5  187.5 228.12  187.5 220  C 187.5 211.88  193.88 205.5  202 205.5  Z " stroke-width="1" stroke="#ffffff" fill="none" />
    </g>
  </defs>
  <g transform="matrix(1 0 0 1 -183 -201 )">
    <use xlink:href="#widget84" filter="url(#filter83)" />
    <use xlink:href="#widget84" />
  </g>
</svg>