<?xml version="1.0" encoding="utf-8"?>
<svg version="1.1" xmlns:xlink="http://www.w3.org/1999/xlink" width="12px" height="12px" viewBox="375 2884  12 12" xmlns="http://www.w3.org/2000/svg">
  <path d="M 381 2884  C 384.36 2884  387 2886.64  387 2890  C 387 2893.36  384.36 2896  381 2896  C 377.64 2896  375 2893.36  375 2890  C 375 2886.64  377.64 2884  381 2884  Z " fill-rule="nonzero" fill="#ffffff" stroke="none" />
  <path d="M 381 2884.5  C 384.08 2884.5  386.5 2886.92  386.5 2890  C 386.5 2893.08  384.08 2895.5  381 2895.5  C 377.92 2895.5  375.5 2893.08  375.5 2890  C 375.5 2886.92  377.92 2884.5  381 2884.5  Z " stroke-width="1" stroke="#797979" fill="none" />
  <path d="M 381 2893  C 379.32 2893  378 2891.68  378 2890  C 378 2888.32  379.32 2887  381 2887  C 382.68 2887  384 2888.32  384 2890  C 384 2891.68  382.68 2893  381 2893  " fill-rule="nonzero" fill="#797979" stroke="none" />
</svg>