<?xml version="1.0" encoding="utf-8"?>
<svg version="1.1" xmlns:xlink="http://www.w3.org/1999/xlink" width="12px" height="12px" viewBox="558 2884  12 12" xmlns="http://www.w3.org/2000/svg">
  <path d="M 564 2884  C 567.36 2884  570 2886.64  570 2890  C 570 2893.36  567.36 2896  564 2896  C 560.64 2896  558 2893.36  558 2890  C 558 2886.64  560.64 2884  564 2884  Z " fill-rule="nonzero" fill="#ffffff" stroke="none" />
  <path d="M 564 2884.5  C 567.08 2884.5  569.5 2886.92  569.5 2890  C 569.5 2893.08  567.08 2895.5  564 2895.5  C 560.92 2895.5  558.5 2893.08  558.5 2890  C 558.5 2886.92  560.92 2884.5  564 2884.5  Z " stroke-width="1" stroke="#797979" fill="none" />
  <path d="M 564 2893  C 562.32 2893  561 2891.68  561 2890  C 561 2888.32  562.32 2887  564 2887  C 565.68 2887  567 2888.32  567 2890  C 567 2891.68  565.68 2893  564 2893  " fill-rule="nonzero" fill="#797979" stroke="none" />
</svg>