<?xml version="1.0" encoding="utf-8"?>
<svg version="1.1" xmlns:xlink="http://www.w3.org/1999/xlink" width="12px" height="12px" viewBox="467 2884  12 12" xmlns="http://www.w3.org/2000/svg">
  <path d="M 473 2884  C 476.36 2884  479 2886.64  479 2890  C 479 2893.36  476.36 2896  473 2896  C 469.64 2896  467 2893.36  467 2890  C 467 2886.64  469.64 2884  473 2884  Z " fill-rule="nonzero" fill="#ffffff" stroke="none" />
  <path d="M 473 2884.5  C 476.08 2884.5  478.5 2886.92  478.5 2890  C 478.5 2893.08  476.08 2895.5  473 2895.5  C 469.92 2895.5  467.5 2893.08  467.5 2890  C 467.5 2886.92  469.92 2884.5  473 2884.5  Z " stroke-width="1" stroke="#797979" fill="none" />
  <path d="M 473 2893  C 471.32 2893  470 2891.68  470 2890  C 470 2888.32  471.32 2887  473 2887  C 474.68 2887  476 2888.32  476 2890  C 476 2891.68  474.68 2893  473 2893  " fill-rule="nonzero" fill="#797979" stroke="none" />
</svg>