<?xml version="1.0" encoding="utf-8"?>
<svg version="1.1" xmlns:xlink="http://www.w3.org/1999/xlink" width="12px" height="12px" viewBox="204 347  12 12" xmlns="http://www.w3.org/2000/svg">
  <path d="M 210 347  C 213.36 347  216 349.64  216 353  C 216 356.36  213.36 359  210 359  C 206.64 359  204 356.36  204 353  C 204 349.64  206.64 347  210 347  Z " fill-rule="nonzero" fill="#ffffff" stroke="none" />
  <path d="M 210 347.5  C 213.08 347.5  215.5 349.92  215.5 353  C 215.5 356.08  213.08 358.5  210 358.5  C 206.92 358.5  204.5 356.08  204.5 353  C 204.5 349.92  206.92 347.5  210 347.5  Z " stroke-width="1" stroke="#797979" fill="none" />
  <path d="M 210 356  C 208.32 356  207 354.68  207 353  C 207 351.32  208.32 350  210 350  C 211.68 350  213 351.32  213 353  C 213 354.68  211.68 356  210 356  " fill-rule="nonzero" fill="#797979" stroke="none" />
</svg>