<?xml version="1.0" encoding="utf-8"?>
<svg version="1.1" xmlns:xlink="http://www.w3.org/1999/xlink" width="12px" height="12px" viewBox="204 576  12 12" xmlns="http://www.w3.org/2000/svg">
  <path d="M 210 576  C 213.36 576  216 578.64  216 582  C 216 585.36  213.36 588  210 588  C 206.64 588  204 585.36  204 582  C 204 578.64  206.64 576  210 576  Z " fill-rule="nonzero" fill="#ffffff" stroke="none" />
  <path d="M 210 576.5  C 213.08 576.5  215.5 578.92  215.5 582  C 215.5 585.08  213.08 587.5  210 587.5  C 206.92 587.5  204.5 585.08  204.5 582  C 204.5 578.92  206.92 576.5  210 576.5  Z " stroke-width="1" stroke="#797979" fill="none" />
  <path d="M 210 585  C 208.32 585  207 583.68  207 582  C 207 580.32  208.32 579  210 579  C 211.68 579  213 580.32  213 582  C 213 583.68  211.68 585  210 585  " fill-rule="nonzero" fill="#797979" stroke="none" />
</svg>