<?xml version="1.0" encoding="utf-8"?>
<svg version="1.1" xmlns:xlink="http://www.w3.org/1999/xlink" width="12px" height="12px" viewBox="204 550  12 12" xmlns="http://www.w3.org/2000/svg">
  <path d="M 210 550  C 213.36 550  216 552.64  216 556  C 216 559.36  213.36 562  210 562  C 206.64 562  204 559.36  204 556  C 204 552.64  206.64 550  210 550  Z " fill-rule="nonzero" fill="#ffffff" stroke="none" />
  <path d="M 210 550.5  C 213.08 550.5  215.5 552.92  215.5 556  C 215.5 559.08  213.08 561.5  210 561.5  C 206.92 561.5  204.5 559.08  204.5 556  C 204.5 552.92  206.92 550.5  210 550.5  Z " stroke-width="1" stroke="#797979" fill="none" />
  <path d="M 210 559  C 208.32 559  207 557.68  207 556  C 207 554.32  208.32 553  210 553  C 211.68 553  213 554.32  213 556  C 213 557.68  211.68 559  210 559  " fill-rule="nonzero" fill="#797979" stroke="none" />
</svg>