<?xml version="1.0" encoding="utf-8"?>
<svg version="1.1" xmlns:xlink="http://www.w3.org/1999/xlink" width="12px" height="12px" viewBox="204 490  12 12" xmlns="http://www.w3.org/2000/svg">
  <path d="M 210 490  C 213.36 490  216 492.64  216 496  C 216 499.36  213.36 502  210 502  C 206.64 502  204 499.36  204 496  C 204 492.64  206.64 490  210 490  Z " fill-rule="nonzero" fill="#ffffff" stroke="none" />
  <path d="M 210 490.5  C 213.08 490.5  215.5 492.92  215.5 496  C 215.5 499.08  213.08 501.5  210 501.5  C 206.92 501.5  204.5 499.08  204.5 496  C 204.5 492.92  206.92 490.5  210 490.5  Z " stroke-width="1" stroke="#797979" fill="none" />
  <path d="M 210 499  C 208.32 499  207 497.68  207 496  C 207 494.32  208.32 493  210 493  C 211.68 493  213 494.32  213 496  C 213 497.68  211.68 499  210 499  " fill-rule="nonzero" fill="#797979" stroke="none" />
</svg>