<?xml version="1.0" encoding="utf-8"?>
<svg version="1.1" xmlns:xlink="http://www.w3.org/1999/xlink" width="12px" height="12px" viewBox="204 516  12 12" xmlns="http://www.w3.org/2000/svg">
  <path d="M 210 516  C 213.36 516  216 518.64  216 522  C 216 525.36  213.36 528  210 528  C 206.64 528  204 525.36  204 522  C 204 518.64  206.64 516  210 516  Z " fill-rule="nonzero" fill="#ffffff" stroke="none" />
  <path d="M 210 516.5  C 213.08 516.5  215.5 518.92  215.5 522  C 215.5 525.08  213.08 527.5  210 527.5  C 206.92 527.5  204.5 525.08  204.5 522  C 204.5 518.92  206.92 516.5  210 516.5  Z " stroke-width="1" stroke="#797979" fill="none" />
  <path d="M 210 525  C 208.32 525  207 523.68  207 522  C 207 520.32  208.32 519  210 519  C 211.68 519  213 520.32  213 522  C 213 523.68  211.68 525  210 525  " fill-rule="nonzero" fill="#797979" stroke="none" />
</svg>