<?xml version="1.0" encoding="utf-8"?>
<svg version="1.1" xmlns:xlink="http://www.w3.org/1999/xlink" width="12px" height="12px" viewBox="204 455  12 12" xmlns="http://www.w3.org/2000/svg">
  <path d="M 210 455  C 213.36 455  216 457.64  216 461  C 216 464.36  213.36 467  210 467  C 206.64 467  204 464.36  204 461  C 204 457.64  206.64 455  210 455  Z " fill-rule="nonzero" fill="#ffffff" stroke="none" />
  <path d="M 210 455.5  C 213.08 455.5  215.5 457.92  215.5 461  C 215.5 464.08  213.08 466.5  210 466.5  C 206.92 466.5  204.5 464.08  204.5 461  C 204.5 457.92  206.92 455.5  210 455.5  Z " stroke-width="1" stroke="#797979" fill="none" />
  <path d="M 210 464  C 208.32 464  207 462.68  207 461  C 207 459.32  208.32 458  210 458  C 211.68 458  213 459.32  213 461  C 213 462.68  211.68 464  210 464  " fill-rule="nonzero" fill="#797979" stroke="none" />
</svg>