<?xml version="1.0" encoding="utf-8"?>
<svg version="1.1" xmlns:xlink="http://www.w3.org/1999/xlink" width="50px" height="32px" xmlns="http://www.w3.org/2000/svg">
  <g transform="matrix(1 0 0 1 -897 -394 )">
    <path d="M 37.1233258928571 25.0694444444444  C 40.8528645833333 22.8194444444444  43.9546130952381 19.7962962962963  46.4285714285714 16  C 43.6011904761905 11.6296296296296  40.0576636904762 8.36111111111111  35.7979910714286 6.19444444444444  C 36.9326636904762 8.12037037037037  37.5 10.2037037037037  37.5 12.4444444444444  C 37.5 15.8703703703704  36.2769717261905 18.8009259259259  33.8309151785714 21.2361111111111  C 31.3848586309524 23.6712962962963  28.4412202380952 24.8888888888889  25 24.8888888888889  C 21.5587797619048 24.8888888888889  18.6151413690476 23.6712962962963  16.1690848214286 21.2361111111111  C 13.7230282738095 18.8009259259259  12.5 15.8703703703704  12.5 12.4444444444444  C 12.5 10.2037037037037  13.0673363095238 8.12037037037037  14.2020089285714 6.19444444444444  C 9.94233630952381 8.36111111111111  6.39880952380952 11.6296296296296  3.57142857142857 16  C 6.04538690476191 19.7962962962963  9.14713541666667 22.8194444444444  12.8766741071429 25.0694444444444  C 16.6062127976191 27.3194444444444  20.6473214285714 28.4444444444444  25 28.4444444444444  C 29.3526785714286 28.4444444444444  33.393787202381 27.3194444444444  37.1233258928571 25.0694444444444  Z M 25.9486607142857 6.27777777777778  C 26.2090773809524 6.01851851851852  26.3392857142857 5.7037037037037  26.3392857142857 5.33333333333333  C 26.3392857142857 4.96296296296296  26.2090773809524 4.64814814814815  25.9486607142857 4.38888888888889  C 25.6882440476191 4.12962962962963  25.3720238095238 4  25 4  C 22.6748511904762 4  20.6798735119048 4.8287037037037  19.0150669642857 6.48611111111111  C 17.3502604166667 8.14351851851852  16.5178571428571 10.1296296296296  16.5178571428571 12.4444444444444  C 16.5178571428571 12.8148148148148  16.6480654761905 13.1296296296296  16.9084821428571 13.3888888888889  C 17.1688988095238 13.6481481481481  17.4851190476191 13.7777777777778  17.8571428571429 13.7777777777778  C 18.2291666666667 13.7777777777778  18.5453869047619 13.6481481481481  18.8058035714286 13.3888888888889  C 19.0662202380952 13.1296296296296  19.1964285714286 12.8148148148148  19.1964285714286 12.4444444444444  C 19.1964285714286 10.8518518518519  19.7637648809524 9.49074074074074  20.8984375 8.36111111111111  C 22.0331101190476 7.23148148148148  23.4002976190476 6.66666666666666  25 6.66666666666667  C 25.3720238095238 6.66666666666666  25.6882440476191 6.53703703703703  25.9486607142857 6.27777777777778  Z M 49.4419642857143 14.0833333333333  C 49.8139880952381 14.7314814814815  50 15.3703703703704  50 16  C 50 16.6296296296296  49.8139880952381 17.2685185185185  49.4419642857143 17.9166666666667  C 46.8377976190476 22.1759259259259  43.3361235119048 25.587962962963  38.9369419642857 28.1527777777778  C 34.5377604166667 30.7175925925926  29.8921130952381 32  25 32  C 20.1078869047619 32  15.4622395833333 30.712962962963  11.0630580357143 28.1388888888889  C 6.66387648809524 25.5648148148148  3.16220238095238 22.1574074074074  0.558035714285714 17.9166666666667  C 0.186011904761905 17.2685185185185  0 16.6296296296296  0 16  C 0 15.3703703703704  0.186011904761905 14.7314814814815  0.558035714285714 14.0833333333333  C 3.16220238095238 9.84259259259259  6.66387648809524 6.43518518518518  11.0630580357143 3.86111111111111  C 15.4622395833333 1.28703703703703  20.1078869047619 0  25 0  C 29.8921130952381 0  34.5377604166667 1.28703703703703  38.9369419642857 3.86111111111111  C 43.3361235119048 6.43518518518518  46.8377976190476 9.84259259259259  49.4419642857143 14.0833333333333  Z " fill-rule="nonzero" fill="#999999" stroke="none" transform="matrix(1 0 0 1 897 394 )" />
  </g>
</svg>