<?xml version="1.0" encoding="utf-8"?>
<svg version="1.1" xmlns:xlink="http://www.w3.org/1999/xlink" width="40px" height="50px" xmlns="http://www.w3.org/2000/svg">
  <defs>
    <filter x="23px" y="188px" width="40px" height="50px" filterUnits="userSpaceOnUse" id="filter110">
      <feOffset dx="1" dy="1" in="SourceAlpha" result="shadowOffsetInner" />
      <feGaussianBlur stdDeviation="2.5" in="shadowOffsetInner" result="shadowGaussian" />
      <feComposite in2="shadowGaussian" operator="atop" in="SourceAlpha" result="shadowComposite" />
      <feColorMatrix type="matrix" values="0 0 0 0 0  0 0 0 0 0  0 0 0 0 0  0 0 0 0.698039215686274 0  " in="shadowComposite" />
    </filter>
    <g id="widget111">
      <path d="M 42 231.036928468354  C 36.2 221.40734059591  27.5 215.629587872444  27.5 206  C 27.5 200.985714285714  30.4 192.5  42 192.5  C 53.6 192.5  56.5 200.985714285714  56.5 206  C 56.5 215.629587872444  47.8 221.40734059591  42 231.036928468354  Z " fill-rule="nonzero" fill="#009dd9" stroke="none" />
      <path d="M 42 232  C 36 222  27 216  27 206  C 27 200.8  30 192  42 192  C 54 192  57 200.8  57 206  C 57 216  48 222  42 232  Z M 42 230.073856936707  C 47.6 220.81468119182  56 215.259175744887  56 206  C 56 201.171428571429  53.2 193  42 193  C 30.8 193  28 201.171428571429  28 206  C 28 215.259175744887  36.4 220.81468119182  42 230.073856936707  Z " fill-rule="nonzero" fill="#ffffff" stroke="none" />
    </g>
  </defs>
  <g transform="matrix(1 0 0 1 -23 -188 )">
    <use xlink:href="#widget111" filter="url(#filter110)" />
    <use xlink:href="#widget111" />
  </g>
</svg>