<?xml version="1.0" encoding="utf-8"?>
<svg version="1.1" xmlns:xlink="http://www.w3.org/1999/xlink" width="53px" height="21px" xmlns="http://www.w3.org/2000/svg">
  <g transform="matrix(1 0 0 1 -1070 -131 )">
    <path d="M 0.5 0  L 52 0  L 43.101681001129 17.8295956031587  C 42.2118491012419 19.6125551634746  41.3028501772473 20  38.6285627215591 20  L 1.49103942652323 20  C 0.834982078853045 20  0 18.8658227848101  0.5 17.9746835443038  L 0.5 0  Z " fill-rule="nonzero" fill="#ffffff" stroke="none" transform="matrix(1 0 0 1 1070 131 )" />
    <path d="M 52 0  L 43.101681001129 17.8295956031587  C 42.2118491012419 19.6125551634746  41.3028501772473 20  38.6285627215591 20  L 1.49103942652323 20  C 0.834982078853045 20  0 18.8658227848101  0.5 17.9746835443038  L 0.5 0  " stroke-width="1" stroke="#0000ff" fill="none" transform="matrix(1 0 0 1 1070 131 )" />
  </g>
</svg>