<?xml version="1.0" encoding="utf-8"?>
<svg version="1.1" xmlns:xlink="http://www.w3.org/1999/xlink" width="15px" height="15px" xmlns="http://www.w3.org/2000/svg">
  <defs>
    <mask fill="white" id="clip114">
      <path d="M 14.9627130681818 11.4599609375  C 14.9875710227273 11.7887369791667  15 12.1256510416667  15 12.470703125  C 15 13.251953125  14.7407670454545 13.8688151041667  14.2223011363636 14.3212890625  C 13.7038352272727 14.7737630208333  13.0149147727273 15  12.1555397727273 15  L 2.84446022727269 15  C 1.98508522727269 15  1.29616477272731 14.7737630208333  0.777698863636374 14.3212890625  C 0.259232954545496 13.8688151041667  0 13.251953125  0 12.470703125  C 0 12.1256510416667  0.0124289772726911 11.7887369791667  0.037286931818187 11.4599609375  C 0.062144886363626 11.1311848958333  0.111860795454504 10.7763671875  0.186434659090878 10.3955078125  C 0.261008522727309 10.0146484375  0.355113636363626 9.66145833333331  0.46875 9.3359375  C 0.582386363636374 9.01041666666669  0.735085227272691 8.69303385416669  0.926846590909122 8.3837890625  C 1.1186079545455 8.07454427083331  1.33877840909088 7.81087239583331  1.5873579545455 7.5927734375  C 1.8359375 7.37467447916669  2.13955965909088 7.20052083333331  2.49822443181819 7.0703125  C 2.8568892045455 6.94010416666669  3.25284090909088 6.875  3.6860795454545 6.875  C 3.75 6.875  3.89914772727269 6.94498697916669  4.13352272727269 7.0849609375  C 4.36789772727269 7.22493489583331  4.63245738636363 7.38118489583331  4.9272017045455 7.5537109375  C 5.22194602272731 7.72623697916669  5.60546875 7.88248697916669  6.07776988636363 8.0224609375  C 6.55007102272731 8.16243489583331  7.02414772727269 8.232421875  7.5 8.232421875  C 7.97585227272731 8.232421875  8.44992897727269 8.16243489583331  8.92223011363637 8.0224609375  C 9.39453125 7.88248697916669  9.77805397727269 7.72623697916669  10.0727982954545 7.5537109375  C 10.3675426136364 7.38118489583331  10.6321022727273 7.22493489583331  10.8664772727273 7.0849609375  C 11.1008522727273 6.94498697916669  11.25 6.875  11.3139204545455 6.875  C 11.7471590909091 6.875  12.1431107954545 6.94010416666669  12.5017755681818 7.0703125  C 12.8604403409091 7.20052083333331  13.1640625 7.37467447916669  13.4126420454545 7.5927734375  C 13.6612215909091 7.81087239583331  13.8813920454545 8.07454427083331  14.0731534090909 8.3837890625  C 14.2649147727273 8.69303385416669  14.4176136363636 9.01041666666669  14.53125 9.3359375  C 14.6448863636364 9.66145833333331  14.7389914772727 10.0146484375  14.8135653409091 10.3955078125  C 14.8881392045455 10.7763671875  14.9378551136364 11.1311848958333  14.9627130681818 11.4599609375  Z M 10.3924005681818 1.0986328125  C 11.19140625 1.8310546875  11.5909090909091 2.71484375  11.5909090909091 3.75  C 11.5909090909091 4.78515625  11.19140625 5.6689453125  10.3924005681818 6.4013671875  C 9.59339488636363 7.1337890625  8.62926136363637 7.5  7.5 7.5  C 6.37073863636363 7.5  5.40660511363637 7.1337890625  4.60759943181819 6.4013671875  C 3.80859375 5.6689453125  3.40909090909088 4.78515625  3.40909090909088 3.75  C 3.40909090909088 2.71484375  3.80859375 1.8310546875  4.60759943181819 1.0986328125  C 5.40660511363637 0.3662109375  6.37073863636363 0  7.5 0  C 8.62926136363637 0  9.59339488636363 0.3662109375  10.3924005681818 1.0986328125  Z " fill-rule="evenodd" />
    </mask>
  </defs>
  <g transform="matrix(1 0 0 1 -412 -306 )">
    <path d="M 14.9627130681818 11.4599609375  C 14.9875710227273 11.7887369791667  15 12.1256510416667  15 12.470703125  C 15 13.251953125  14.7407670454545 13.8688151041667  14.2223011363636 14.3212890625  C 13.7038352272727 14.7737630208333  13.0149147727273 15  12.1555397727273 15  L 2.84446022727269 15  C 1.98508522727269 15  1.29616477272731 14.7737630208333  0.777698863636374 14.3212890625  C 0.259232954545496 13.8688151041667  0 13.251953125  0 12.470703125  C 0 12.1256510416667  0.0124289772726911 11.7887369791667  0.037286931818187 11.4599609375  C 0.062144886363626 11.1311848958333  0.111860795454504 10.7763671875  0.186434659090878 10.3955078125  C 0.261008522727309 10.0146484375  0.355113636363626 9.66145833333331  0.46875 9.3359375  C 0.582386363636374 9.01041666666669  0.735085227272691 8.69303385416669  0.926846590909122 8.3837890625  C 1.1186079545455 8.07454427083331  1.33877840909088 7.81087239583331  1.5873579545455 7.5927734375  C 1.8359375 7.37467447916669  2.13955965909088 7.20052083333331  2.49822443181819 7.0703125  C 2.8568892045455 6.94010416666669  3.25284090909088 6.875  3.6860795454545 6.875  C 3.75 6.875  3.89914772727269 6.94498697916669  4.13352272727269 7.0849609375  C 4.36789772727269 7.22493489583331  4.63245738636363 7.38118489583331  4.9272017045455 7.5537109375  C 5.22194602272731 7.72623697916669  5.60546875 7.88248697916669  6.07776988636363 8.0224609375  C 6.55007102272731 8.16243489583331  7.02414772727269 8.232421875  7.5 8.232421875  C 7.97585227272731 8.232421875  8.44992897727269 8.16243489583331  8.92223011363637 8.0224609375  C 9.39453125 7.88248697916669  9.77805397727269 7.72623697916669  10.0727982954545 7.5537109375  C 10.3675426136364 7.38118489583331  10.6321022727273 7.22493489583331  10.8664772727273 7.0849609375  C 11.1008522727273 6.94498697916669  11.25 6.875  11.3139204545455 6.875  C 11.7471590909091 6.875  12.1431107954545 6.94010416666669  12.5017755681818 7.0703125  C 12.8604403409091 7.20052083333331  13.1640625 7.37467447916669  13.4126420454545 7.5927734375  C 13.6612215909091 7.81087239583331  13.8813920454545 8.07454427083331  14.0731534090909 8.3837890625  C 14.2649147727273 8.69303385416669  14.4176136363636 9.01041666666669  14.53125 9.3359375  C 14.6448863636364 9.66145833333331  14.7389914772727 10.0146484375  14.8135653409091 10.3955078125  C 14.8881392045455 10.7763671875  14.9378551136364 11.1311848958333  14.9627130681818 11.4599609375  Z M 10.3924005681818 1.0986328125  C 11.19140625 1.8310546875  11.5909090909091 2.71484375  11.5909090909091 3.75  C 11.5909090909091 4.78515625  11.19140625 5.6689453125  10.3924005681818 6.4013671875  C 9.59339488636363 7.1337890625  8.62926136363637 7.5  7.5 7.5  C 6.37073863636363 7.5  5.40660511363637 7.1337890625  4.60759943181819 6.4013671875  C 3.80859375 5.6689453125  3.40909090909088 4.78515625  3.40909090909088 3.75  C 3.40909090909088 2.71484375  3.80859375 1.8310546875  4.60759943181819 1.0986328125  C 5.40660511363637 0.3662109375  6.37073863636363 0  7.5 0  C 8.62926136363637 0  9.59339488636363 0.3662109375  10.3924005681818 1.0986328125  Z " fill-rule="nonzero" fill="#cccccc" stroke="none" transform="matrix(1 0 0 1 412 306 )" />
    <path d="M 14.9627130681818 11.4599609375  C 14.9875710227273 11.7887369791667  15 12.1256510416667  15 12.470703125  C 15 13.251953125  14.7407670454545 13.8688151041667  14.2223011363636 14.3212890625  C 13.7038352272727 14.7737630208333  13.0149147727273 15  12.1555397727273 15  L 2.84446022727269 15  C 1.98508522727269 15  1.29616477272731 14.7737630208333  0.777698863636374 14.3212890625  C 0.259232954545496 13.8688151041667  0 13.251953125  0 12.470703125  C 0 12.1256510416667  0.0124289772726911 11.7887369791667  0.037286931818187 11.4599609375  C 0.062144886363626 11.1311848958333  0.111860795454504 10.7763671875  0.186434659090878 10.3955078125  C 0.261008522727309 10.0146484375  0.355113636363626 9.66145833333331  0.46875 9.3359375  C 0.582386363636374 9.01041666666669  0.735085227272691 8.69303385416669  0.926846590909122 8.3837890625  C 1.1186079545455 8.07454427083331  1.33877840909088 7.81087239583331  1.5873579545455 7.5927734375  C 1.8359375 7.37467447916669  2.13955965909088 7.20052083333331  2.49822443181819 7.0703125  C 2.8568892045455 6.94010416666669  3.25284090909088 6.875  3.6860795454545 6.875  C 3.75 6.875  3.89914772727269 6.94498697916669  4.13352272727269 7.0849609375  C 4.36789772727269 7.22493489583331  4.63245738636363 7.38118489583331  4.9272017045455 7.5537109375  C 5.22194602272731 7.72623697916669  5.60546875 7.88248697916669  6.07776988636363 8.0224609375  C 6.55007102272731 8.16243489583331  7.02414772727269 8.232421875  7.5 8.232421875  C 7.97585227272731 8.232421875  8.44992897727269 8.16243489583331  8.92223011363637 8.0224609375  C 9.39453125 7.88248697916669  9.77805397727269 7.72623697916669  10.0727982954545 7.5537109375  C 10.3675426136364 7.38118489583331  10.6321022727273 7.22493489583331  10.8664772727273 7.0849609375  C 11.1008522727273 6.94498697916669  11.25 6.875  11.3139204545455 6.875  C 11.7471590909091 6.875  12.1431107954545 6.94010416666669  12.5017755681818 7.0703125  C 12.8604403409091 7.20052083333331  13.1640625 7.37467447916669  13.4126420454545 7.5927734375  C 13.6612215909091 7.81087239583331  13.8813920454545 8.07454427083331  14.0731534090909 8.3837890625  C 14.2649147727273 8.69303385416669  14.4176136363636 9.01041666666669  14.53125 9.3359375  C 14.6448863636364 9.66145833333331  14.7389914772727 10.0146484375  14.8135653409091 10.3955078125  C 14.8881392045455 10.7763671875  14.9378551136364 11.1311848958333  14.9627130681818 11.4599609375  Z " stroke-width="2" stroke="#797979" fill="none" transform="matrix(1 0 0 1 412 306 )" mask="url(#clip114)" />
    <path d="M 10.3924005681818 1.0986328125  C 11.19140625 1.8310546875  11.5909090909091 2.71484375  11.5909090909091 3.75  C 11.5909090909091 4.78515625  11.19140625 5.6689453125  10.3924005681818 6.4013671875  C 9.59339488636363 7.1337890625  8.62926136363637 7.5  7.5 7.5  C 6.37073863636363 7.5  5.40660511363637 7.1337890625  4.60759943181819 6.4013671875  C 3.80859375 5.6689453125  3.40909090909088 4.78515625  3.40909090909088 3.75  C 3.40909090909088 2.71484375  3.80859375 1.8310546875  4.60759943181819 1.0986328125  C 5.40660511363637 0.3662109375  6.37073863636363 0  7.5 0  C 8.62926136363637 0  9.59339488636363 0.3662109375  10.3924005681818 1.0986328125  Z " stroke-width="2" stroke="#797979" fill="none" transform="matrix(1 0 0 1 412 306 )" mask="url(#clip114)" />
  </g>
</svg>