<?xml version="1.0" encoding="utf-8"?>
<svg version="1.1" xmlns:xlink="http://www.w3.org/1999/xlink" width="12px" height="12px" viewBox="357 2847  12 12" xmlns="http://www.w3.org/2000/svg">
  <path d="M 363 2847  C 366.36 2847  369 2849.64  369 2853  C 369 2856.36  366.36 2859  363 2859  C 359.64 2859  357 2856.36  357 2853  C 357 2849.64  359.64 2847  363 2847  Z " fill-rule="nonzero" fill="#ffffff" stroke="none" />
  <path d="M 363 2847.5  C 366.08 2847.5  368.5 2849.92  368.5 2853  C 368.5 2856.08  366.08 2858.5  363 2858.5  C 359.92 2858.5  357.5 2856.08  357.5 2853  C 357.5 2849.92  359.92 2847.5  363 2847.5  Z " stroke-width="1" stroke="#797979" fill="none" />
  <path d="M 363 2856  C 361.32 2856  360 2854.68  360 2853  C 360 2851.32  361.32 2850  363 2850  C 364.68 2850  366 2851.32  366 2853  C 366 2854.68  364.68 2856  363 2856  " fill-rule="nonzero" fill="#797979" stroke="none" />
</svg>