<?xml version="1.0" encoding="utf-8"?>
<svg version="1.1" xmlns:xlink="http://www.w3.org/1999/xlink" width="367px" height="147px" xmlns="http://www.w3.org/2000/svg">
  <g transform="matrix(1 0 0 1 -1465 0 )">
    <path d="M 1466 4  A 3 3 0 0 1 1469 1 L 1828 1  A 3 3 0 0 1 1831 4 L 1831 143  A 3 3 0 0 1 1828 146 L 1469 146  A 3 3 0 0 1 1466 143 L 1466 4  Z " fill-rule="nonzero" fill="#ff3399" stroke="none" fill-opacity="0.0980392156862745" />
    <path d="M 1465.5 4  A 3.5 3.5 0 0 1 1469 0.5 L 1828 0.5  A 3.5 3.5 0 0 1 1831.5 4 L 1831.5 143  A 3.5 3.5 0 0 1 1828 146.5 L 1469 146.5  A 3.5 3.5 0 0 1 1465.5 143 L 1465.5 4  Z " stroke-width="1" stroke-dasharray="9,4" stroke="#ff3399" fill="none" stroke-dashoffset="0.5" />
  </g>
</svg>