<?xml version="1.0" encoding="utf-8"?>
<svg version="1.1" xmlns:xlink="http://www.w3.org/1999/xlink" width="12px" height="12px" viewBox="1454 888  12 12" xmlns="http://www.w3.org/2000/svg">
  <path d="M 1460 888  C 1463.36 888  1466 890.64  1466 894  C 1466 897.36  1463.36 900  1460 900  C 1456.64 900  1454 897.36  1454 894  C 1454 890.64  1456.64 888  1460 888  Z " fill-rule="nonzero" fill="#ffffff" stroke="none" />
  <path d="M 1460 888.5  C 1463.08 888.5  1465.5 890.92  1465.5 894  C 1465.5 897.08  1463.08 899.5  1460 899.5  C 1456.92 899.5  1454.5 897.08  1454.5 894  C 1454.5 890.92  1456.92 888.5  1460 888.5  Z " stroke-width="1" stroke="#797979" fill="none" />
  <path d="M 1460 897  C 1458.32 897  1457 895.68  1457 894  C 1457 892.32  1458.32 891  1460 891  C 1461.68 891  1463 892.32  1463 894  C 1463 895.68  1461.68 897  1460 897  " fill-rule="nonzero" fill="#797979" stroke="none" />
</svg>