<?xml version="1.0" encoding="utf-8"?>
<svg version="1.1" xmlns:xlink="http://www.w3.org/1999/xlink" width="12px" height="12px" viewBox="1534 958  12 12" xmlns="http://www.w3.org/2000/svg">
  <path d="M 1540 958  C 1543.36 958  1546 960.64  1546 964  C 1546 967.36  1543.36 970  1540 970  C 1536.64 970  1534 967.36  1534 964  C 1534 960.64  1536.64 958  1540 958  Z " fill-rule="nonzero" fill="#ffffff" stroke="none" />
  <path d="M 1540 958.5  C 1543.08 958.5  1545.5 960.92  1545.5 964  C 1545.5 967.08  1543.08 969.5  1540 969.5  C 1536.92 969.5  1534.5 967.08  1534.5 964  C 1534.5 960.92  1536.92 958.5  1540 958.5  Z " stroke-width="1" stroke="#797979" fill="none" />
  <path d="M 1540 967  C 1538.32 967  1537 965.68  1537 964  C 1537 962.32  1538.32 961  1540 961  C 1541.68 961  1543 962.32  1543 964  C 1543 965.68  1541.68 967  1540 967  " fill-rule="nonzero" fill="#797979" stroke="none" />
</svg>