<?xml version="1.0" encoding="utf-8"?>
<svg version="1.1" xmlns:xlink="http://www.w3.org/1999/xlink" width="12px" height="12px" viewBox="1454 927  12 12" xmlns="http://www.w3.org/2000/svg">
  <path d="M 1460 927  C 1463.36 927  1466 929.64  1466 933  C 1466 936.36  1463.36 939  1460 939  C 1456.64 939  1454 936.36  1454 933  C 1454 929.64  1456.64 927  1460 927  Z " fill-rule="nonzero" fill="#ffffff" stroke="none" />
  <path d="M 1460 927.5  C 1463.08 927.5  1465.5 929.92  1465.5 933  C 1465.5 936.08  1463.08 938.5  1460 938.5  C 1456.92 938.5  1454.5 936.08  1454.5 933  C 1454.5 929.92  1456.92 927.5  1460 927.5  Z " stroke-width="1" stroke="#797979" fill="none" />
  <path d="M 1460 936  C 1458.32 936  1457 934.68  1457 933  C 1457 931.32  1458.32 930  1460 930  C 1461.68 930  1463 931.32  1463 933  C 1463 934.68  1461.68 936  1460 936  " fill-rule="nonzero" fill="#797979" stroke="none" />
</svg>