<?xml version="1.0" encoding="utf-8"?>
<svg version="1.1" xmlns:xlink="http://www.w3.org/1999/xlink" width="12px" height="12px" viewBox="1454 958  12 12" xmlns="http://www.w3.org/2000/svg">
  <path d="M 1460 958  C 1463.36 958  1466 960.64  1466 964  C 1466 967.36  1463.36 970  1460 970  C 1456.64 970  1454 967.36  1454 964  C 1454 960.64  1456.64 958  1460 958  Z " fill-rule="nonzero" fill="#ffffff" stroke="none" />
  <path d="M 1460 958.5  C 1463.08 958.5  1465.5 960.92  1465.5 964  C 1465.5 967.08  1463.08 969.5  1460 969.5  C 1456.92 969.5  1454.5 967.08  1454.5 964  C 1454.5 960.92  1456.92 958.5  1460 958.5  Z " stroke-width="1" stroke="#797979" fill="none" />
  <path d="M 1460 967  C 1458.32 967  1457 965.68  1457 964  C 1457 962.32  1458.32 961  1460 961  C 1461.68 961  1463 962.32  1463 964  C 1463 965.68  1461.68 967  1460 967  " fill-rule="nonzero" fill="#797979" stroke="none" />
</svg>