<?xml version="1.0" encoding="utf-8"?>
<svg version="1.1" xmlns:xlink="http://www.w3.org/1999/xlink" width="12px" height="12px" viewBox="1664 927  12 12" xmlns="http://www.w3.org/2000/svg">
  <path d="M 1670 927  C 1673.36 927  1676 929.64  1676 933  C 1676 936.36  1673.36 939  1670 939  C 1666.64 939  1664 936.36  1664 933  C 1664 929.64  1666.64 927  1670 927  Z " fill-rule="nonzero" fill="#ffffff" stroke="none" />
  <path d="M 1670 927.5  C 1673.08 927.5  1675.5 929.92  1675.5 933  C 1675.5 936.08  1673.08 938.5  1670 938.5  C 1666.92 938.5  1664.5 936.08  1664.5 933  C 1664.5 929.92  1666.92 927.5  1670 927.5  Z " stroke-width="1" stroke="#797979" fill="none" />
  <path d="M 1670 936  C 1668.32 936  1667 934.68  1667 933  C 1667 931.32  1668.32 930  1670 930  C 1671.68 930  1673 931.32  1673 933  C 1673 934.68  1671.68 936  1670 936  " fill-rule="nonzero" fill="#797979" stroke="none" />
</svg>