<?xml version="1.0" encoding="utf-8"?>
<svg version="1.1" xmlns:xlink="http://www.w3.org/1999/xlink" width="12px" height="12px" viewBox="1591 927  12 12" xmlns="http://www.w3.org/2000/svg">
  <path d="M 1597 927  C 1600.36 927  1603 929.64  1603 933  C 1603 936.36  1600.36 939  1597 939  C 1593.64 939  1591 936.36  1591 933  C 1591 929.64  1593.64 927  1597 927  Z " fill-rule="nonzero" fill="#ffffff" stroke="none" />
  <path d="M 1597 927.5  C 1600.08 927.5  1602.5 929.92  1602.5 933  C 1602.5 936.08  1600.08 938.5  1597 938.5  C 1593.92 938.5  1591.5 936.08  1591.5 933  C 1591.5 929.92  1593.92 927.5  1597 927.5  Z " stroke-width="1" stroke="#797979" fill="none" />
  <path d="M 1597 936  C 1595.32 936  1594 934.68  1594 933  C 1594 931.32  1595.32 930  1597 930  C 1598.68 930  1600 931.32  1600 933  C 1600 934.68  1598.68 936  1597 936  " fill-rule="nonzero" fill="#797979" stroke="none" />
</svg>