<?xml version="1.0" encoding="utf-8"?>
<svg version="1.1" xmlns:xlink="http://www.w3.org/1999/xlink" width="12px" height="12px" viewBox="1591 888  12 12" xmlns="http://www.w3.org/2000/svg">
  <path d="M 1597 888  C 1600.36 888  1603 890.64  1603 894  C 1603 897.36  1600.36 900  1597 900  C 1593.64 900  1591 897.36  1591 894  C 1591 890.64  1593.64 888  1597 888  Z " fill-rule="nonzero" fill="#ffffff" stroke="none" />
  <path d="M 1597 888.5  C 1600.08 888.5  1602.5 890.92  1602.5 894  C 1602.5 897.08  1600.08 899.5  1597 899.5  C 1593.92 899.5  1591.5 897.08  1591.5 894  C 1591.5 890.92  1593.92 888.5  1597 888.5  Z " stroke-width="1" stroke="#797979" fill="none" />
  <path d="M 1597 897  C 1595.32 897  1594 895.68  1594 894  C 1594 892.32  1595.32 891  1597 891  C 1598.68 891  1600 892.32  1600 894  C 1600 895.68  1598.68 897  1597 897  " fill-rule="nonzero" fill="#797979" stroke="none" />
</svg>