<?xml version="1.0" encoding="utf-8"?>
<svg version="1.1" xmlns:xlink="http://www.w3.org/1999/xlink" width="12px" height="12px" viewBox="1534 927  12 12" xmlns="http://www.w3.org/2000/svg">
  <path d="M 1540 927  C 1543.36 927  1546 929.64  1546 933  C 1546 936.36  1543.36 939  1540 939  C 1536.64 939  1534 936.36  1534 933  C 1534 929.64  1536.64 927  1540 927  Z " fill-rule="nonzero" fill="#ffffff" stroke="none" />
  <path d="M 1540 927.5  C 1543.08 927.5  1545.5 929.92  1545.5 933  C 1545.5 936.08  1543.08 938.5  1540 938.5  C 1536.92 938.5  1534.5 936.08  1534.5 933  C 1534.5 929.92  1536.92 927.5  1540 927.5  Z " stroke-width="1" stroke="#797979" fill="none" />
  <path d="M 1540 936  C 1538.32 936  1537 934.68  1537 933  C 1537 931.32  1538.32 930  1540 930  C 1541.68 930  1543 931.32  1543 933  C 1543 934.68  1541.68 936  1540 936  " fill-rule="nonzero" fill="#797979" stroke="none" />
</svg>