<?xml version="1.0" encoding="utf-8"?>
<svg version="1.1" xmlns:xlink="http://www.w3.org/1999/xlink" width="12px" height="12px" viewBox="1469 779  12 12" xmlns="http://www.w3.org/2000/svg">
  <path d="M 1475 779  C 1478.36 779  1481 781.64  1481 785  C 1481 788.36  1478.36 791  1475 791  C 1471.64 791  1469 788.36  1469 785  C 1469 781.64  1471.64 779  1475 779  Z " fill-rule="nonzero" fill="#ffffff" stroke="none" />
  <path d="M 1475 779.5  C 1478.08 779.5  1480.5 781.92  1480.5 785  C 1480.5 788.08  1478.08 790.5  1475 790.5  C 1471.92 790.5  1469.5 788.08  1469.5 785  C 1469.5 781.92  1471.92 779.5  1475 779.5  Z " stroke-width="1" stroke="#797979" fill="none" />
  <path d="M 1475 788  C 1473.32 788  1472 786.68  1472 785  C 1472 783.32  1473.32 782  1475 782  C 1476.68 782  1478 783.32  1478 785  C 1478 786.68  1476.68 788  1475 788  " fill-rule="nonzero" fill="#797979" stroke="none" />
</svg>