<?xml version="1.0" encoding="utf-8"?>
<svg version="1.1" xmlns:xlink="http://www.w3.org/1999/xlink" width="12px" height="12px" viewBox="1417 779  12 12" xmlns="http://www.w3.org/2000/svg">
  <path d="M 1423 779  C 1426.36 779  1429 781.64  1429 785  C 1429 788.36  1426.36 791  1423 791  C 1419.64 791  1417 788.36  1417 785  C 1417 781.64  1419.64 779  1423 779  Z " fill-rule="nonzero" fill="#ffffff" stroke="none" />
  <path d="M 1423 779.5  C 1426.08 779.5  1428.5 781.92  1428.5 785  C 1428.5 788.08  1426.08 790.5  1423 790.5  C 1419.92 790.5  1417.5 788.08  1417.5 785  C 1417.5 781.92  1419.92 779.5  1423 779.5  Z " stroke-width="1" stroke="#797979" fill="none" />
  <path d="M 1423 788  C 1421.32 788  1420 786.68  1420 785  C 1420 783.32  1421.32 782  1423 782  C 1424.68 782  1426 783.32  1426 785  C 1426 786.68  1424.68 788  1423 788  " fill-rule="nonzero" fill="#797979" stroke="none" />
</svg>