<?xml version="1.0" encoding="utf-8"?>
<svg version="1.1" xmlns:xlink="http://www.w3.org/1999/xlink" width="12px" height="12px" viewBox="1885 613  12 12" xmlns="http://www.w3.org/2000/svg">
  <path d="M 1891 613  C 1894.36 613  1897 615.64  1897 619  C 1897 622.36  1894.36 625  1891 625  C 1887.64 625  1885 622.36  1885 619  C 1885 615.64  1887.64 613  1891 613  Z " fill-rule="nonzero" fill="#ffffff" stroke="none" />
  <path d="M 1891 613.5  C 1894.08 613.5  1896.5 615.92  1896.5 619  C 1896.5 622.08  1894.08 624.5  1891 624.5  C 1887.92 624.5  1885.5 622.08  1885.5 619  C 1885.5 615.92  1887.92 613.5  1891 613.5  Z " stroke-width="1" stroke="#797979" fill="none" />
  <path d="M 1891 622  C 1889.32 622  1888 620.68  1888 619  C 1888 617.32  1889.32 616  1891 616  C 1892.68 616  1894 617.32  1894 619  C 1894 620.68  1892.68 622  1891 622  " fill-rule="nonzero" fill="#797979" stroke="none" />
</svg>