<?xml version="1.0" encoding="utf-8"?>
<svg version="1.1" xmlns:xlink="http://www.w3.org/1999/xlink" width="12px" height="12px" viewBox="1769 613  12 12" xmlns="http://www.w3.org/2000/svg">
  <path d="M 1775 613  C 1778.36 613  1781 615.64  1781 619  C 1781 622.36  1778.36 625  1775 625  C 1771.64 625  1769 622.36  1769 619  C 1769 615.64  1771.64 613  1775 613  Z " fill-rule="nonzero" fill="#ffffff" stroke="none" />
  <path d="M 1775 613.5  C 1778.08 613.5  1780.5 615.92  1780.5 619  C 1780.5 622.08  1778.08 624.5  1775 624.5  C 1771.92 624.5  1769.5 622.08  1769.5 619  C 1769.5 615.92  1771.92 613.5  1775 613.5  Z " stroke-width="1" stroke="#797979" fill="none" />
  <path d="M 1775 622  C 1773.32 622  1772 620.68  1772 619  C 1772 617.32  1773.32 616  1775 616  C 1776.68 616  1778 617.32  1778 619  C 1778 620.68  1776.68 622  1775 622  " fill-rule="nonzero" fill="#797979" stroke="none" />
</svg>