<?xml version="1.0" encoding="utf-8"?>
<svg version="1.1" xmlns:xlink="http://www.w3.org/1999/xlink" width="12px" height="12px" viewBox="1950 613  12 12" xmlns="http://www.w3.org/2000/svg">
  <path d="M 1956 613  C 1959.36 613  1962 615.64  1962 619  C 1962 622.36  1959.36 625  1956 625  C 1952.64 625  1950 622.36  1950 619  C 1950 615.64  1952.64 613  1956 613  Z " fill-rule="nonzero" fill="#ffffff" stroke="none" />
  <path d="M 1956 613.5  C 1959.08 613.5  1961.5 615.92  1961.5 619  C 1961.5 622.08  1959.08 624.5  1956 624.5  C 1952.92 624.5  1950.5 622.08  1950.5 619  C 1950.5 615.92  1952.92 613.5  1956 613.5  Z " stroke-width="1" stroke="#797979" fill="none" />
  <path d="M 1956 622  C 1954.32 622  1953 620.68  1953 619  C 1953 617.32  1954.32 616  1956 616  C 1957.68 616  1959 617.32  1959 619  C 1959 620.68  1957.68 622  1956 622  " fill-rule="nonzero" fill="#797979" stroke="none" />
</svg>