<?xml version="1.0" encoding="utf-8"?>
<svg version="1.1" xmlns:xlink="http://www.w3.org/1999/xlink" width="12px" height="12px" viewBox="1673 779  12 12" xmlns="http://www.w3.org/2000/svg">
  <path d="M 1679 779  C 1682.36 779  1685 781.64  1685 785  C 1685 788.36  1682.36 791  1679 791  C 1675.64 791  1673 788.36  1673 785  C 1673 781.64  1675.64 779  1679 779  Z " fill-rule="nonzero" fill="#ffffff" stroke="none" />
  <path d="M 1679 779.5  C 1682.08 779.5  1684.5 781.92  1684.5 785  C 1684.5 788.08  1682.08 790.5  1679 790.5  C 1675.92 790.5  1673.5 788.08  1673.5 785  C 1673.5 781.92  1675.92 779.5  1679 779.5  Z " stroke-width="1" stroke="#797979" fill="none" />
  <path d="M 1679 788  C 1677.32 788  1676 786.68  1676 785  C 1676 783.32  1677.32 782  1679 782  C 1680.68 782  1682 783.32  1682 785  C 1682 786.68  1680.68 788  1679 788  " fill-rule="nonzero" fill="#797979" stroke="none" />
</svg>