<?xml version="1.0" encoding="utf-8"?>
<svg version="1.1" xmlns:xlink="http://www.w3.org/1999/xlink" width="12px" height="12px" viewBox="199 519  12 12" xmlns="http://www.w3.org/2000/svg">
  <path d="M 205 519  C 208.36 519  211 521.64  211 525  C 211 528.36  208.36 531  205 531  C 201.64 531  199 528.36  199 525  C 199 521.64  201.64 519  205 519  Z " fill-rule="nonzero" fill="#ffffff" stroke="none" />
  <path d="M 205 519.5  C 208.08 519.5  210.5 521.92  210.5 525  C 210.5 528.08  208.08 530.5  205 530.5  C 201.92 530.5  199.5 528.08  199.5 525  C 199.5 521.92  201.92 519.5  205 519.5  Z " stroke-width="1" stroke="#797979" fill="none" />
  <path d="M 205 528  C 203.32 528  202 526.68  202 525  C 202 523.32  203.32 522  205 522  C 206.68 522  208 523.32  208 525  C 208 526.68  206.68 528  205 528  " fill-rule="nonzero" fill="#797979" stroke="none" />
</svg>