<?xml version="1.0" encoding="utf-8"?>
<svg version="1.1" xmlns:xlink="http://www.w3.org/1999/xlink" width="12px" height="12px" viewBox="199 423  12 12" xmlns="http://www.w3.org/2000/svg">
  <path d="M 205 423  C 208.36 423  211 425.64  211 429  C 211 432.36  208.36 435  205 435  C 201.64 435  199 432.36  199 429  C 199 425.64  201.64 423  205 423  Z " fill-rule="nonzero" fill="#ffffff" stroke="none" />
  <path d="M 205 423.5  C 208.08 423.5  210.5 425.92  210.5 429  C 210.5 432.08  208.08 434.5  205 434.5  C 201.92 434.5  199.5 432.08  199.5 429  C 199.5 425.92  201.92 423.5  205 423.5  Z " stroke-width="1" stroke="#797979" fill="none" />
  <path d="M 205 432  C 203.32 432  202 430.68  202 429  C 202 427.32  203.32 426  205 426  C 206.68 426  208 427.32  208 429  C 208 430.68  206.68 432  205 432  " fill-rule="nonzero" fill="#797979" stroke="none" />
</svg>