<?xml version="1.0" encoding="utf-8"?>
<svg version="1.1" xmlns:xlink="http://www.w3.org/1999/xlink" width="12px" height="12px" viewBox="199 484  12 12" xmlns="http://www.w3.org/2000/svg">
  <path d="M 205 484  C 208.36 484  211 486.64  211 490  C 211 493.36  208.36 496  205 496  C 201.64 496  199 493.36  199 490  C 199 486.64  201.64 484  205 484  Z " fill-rule="nonzero" fill="#ffffff" stroke="none" />
  <path d="M 205 484.5  C 208.08 484.5  210.5 486.92  210.5 490  C 210.5 493.08  208.08 495.5  205 495.5  C 201.92 495.5  199.5 493.08  199.5 490  C 199.5 486.92  201.92 484.5  205 484.5  Z " stroke-width="1" stroke="#797979" fill="none" />
  <path d="M 205 493  C 203.32 493  202 491.68  202 490  C 202 488.32  203.32 487  205 487  C 206.68 487  208 488.32  208 490  C 208 491.68  206.68 493  205 493  " fill-rule="nonzero" fill="#797979" stroke="none" />
</svg>