<?xml version="1.0" encoding="utf-8"?>
<svg version="1.1" xmlns:xlink="http://www.w3.org/1999/xlink" width="12px" height="12px" viewBox="199 545  12 12" xmlns="http://www.w3.org/2000/svg">
  <path d="M 205 545  C 208.36 545  211 547.64  211 551  C 211 554.36  208.36 557  205 557  C 201.64 557  199 554.36  199 551  C 199 547.64  201.64 545  205 545  Z " fill-rule="nonzero" fill="#ffffff" stroke="none" />
  <path d="M 205 545.5  C 208.08 545.5  210.5 547.92  210.5 551  C 210.5 554.08  208.08 556.5  205 556.5  C 201.92 556.5  199.5 554.08  199.5 551  C 199.5 547.92  201.92 545.5  205 545.5  Z " stroke-width="1" stroke="#797979" fill="none" />
  <path d="M 205 554  C 203.32 554  202 552.68  202 551  C 202 549.32  203.32 548  205 548  C 206.68 548  208 549.32  208 551  C 208 552.68  206.68 554  205 554  " fill-rule="nonzero" fill="#797979" stroke="none" />
</svg>