<?xml version="1.0" encoding="utf-8"?>
<svg version="1.1" xmlns:xlink="http://www.w3.org/1999/xlink" width="12px" height="12px" viewBox="199 458  12 12" xmlns="http://www.w3.org/2000/svg">
  <path d="M 205 458  C 208.36 458  211 460.64  211 464  C 211 467.36  208.36 470  205 470  C 201.64 470  199 467.36  199 464  C 199 460.64  201.64 458  205 458  Z " fill-rule="nonzero" fill="#ffffff" stroke="none" />
  <path d="M 205 458.5  C 208.08 458.5  210.5 460.92  210.5 464  C 210.5 467.08  208.08 469.5  205 469.5  C 201.92 469.5  199.5 467.08  199.5 464  C 199.5 460.92  201.92 458.5  205 458.5  Z " stroke-width="1" stroke="#797979" fill="none" />
  <path d="M 205 467  C 203.32 467  202 465.68  202 464  C 202 462.32  203.32 461  205 461  C 206.68 461  208 462.32  208 464  C 208 465.68  206.68 467  205 467  " fill-rule="nonzero" fill="#797979" stroke="none" />
</svg>