<?xml version="1.0" encoding="utf-8"?>
<svg version="1.1" xmlns:xlink="http://www.w3.org/1999/xlink" width="12px" height="12px" viewBox="622 303  12 12" xmlns="http://www.w3.org/2000/svg">
  <path d="M 628 303  C 631.36 303  634 305.64  634 309  C 634 312.36  631.36 315  628 315  C 624.64 315  622 312.36  622 309  C 622 305.64  624.64 303  628 303  Z " fill-rule="nonzero" fill="#ffffff" stroke="none" />
  <path d="M 628 303.5  C 631.08 303.5  633.5 305.92  633.5 309  C 633.5 312.08  631.08 314.5  628 314.5  C 624.92 314.5  622.5 312.08  622.5 309  C 622.5 305.92  624.92 303.5  628 303.5  Z " stroke-width="1" stroke="#797979" fill="none" />
  <path d="M 628 312  C 626.32 312  625 310.68  625 309  C 625 307.32  626.32 306  628 306  C 629.68 306  631 307.32  631 309  C 631 310.68  629.68 312  628 312  " fill-rule="nonzero" fill="#797979" stroke="none" />
</svg>