<?xml version="1.0" encoding="utf-8"?>
<svg version="1.1" xmlns:xlink="http://www.w3.org/1999/xlink" width="12px" height="12px" viewBox="621 273  12 12" xmlns="http://www.w3.org/2000/svg">
  <path d="M 627 273  C 630.36 273  633 275.64  633 279  C 633 282.36  630.36 285  627 285  C 623.64 285  621 282.36  621 279  C 621 275.64  623.64 273  627 273  Z " fill-rule="nonzero" fill="#ffffff" stroke="none" />
  <path d="M 627 273.5  C 630.08 273.5  632.5 275.92  632.5 279  C 632.5 282.08  630.08 284.5  627 284.5  C 623.92 284.5  621.5 282.08  621.5 279  C 621.5 275.92  623.92 273.5  627 273.5  Z " stroke-width="1" stroke="#797979" fill="none" />
  <path d="M 627 282  C 625.32 282  624 280.68  624 279  C 624 277.32  625.32 276  627 276  C 628.68 276  630 277.32  630 279  C 630 280.68  628.68 282  627 282  " fill-rule="nonzero" fill="#797979" stroke="none" />
</svg>