<?xml version="1.0" encoding="utf-8"?>
<svg version="1.1" xmlns:xlink="http://www.w3.org/1999/xlink" width="12px" height="12px" viewBox="622 334  12 12" xmlns="http://www.w3.org/2000/svg">
  <path d="M 628 334  C 631.36 334  634 336.64  634 340  C 634 343.36  631.36 346  628 346  C 624.64 346  622 343.36  622 340  C 622 336.64  624.64 334  628 334  Z " fill-rule="nonzero" fill="#ffffff" stroke="none" />
  <path d="M 628 334.5  C 631.08 334.5  633.5 336.92  633.5 340  C 633.5 343.08  631.08 345.5  628 345.5  C 624.92 345.5  622.5 343.08  622.5 340  C 622.5 336.92  624.92 334.5  628 334.5  Z " stroke-width="1" stroke="#797979" fill="none" />
  <path d="M 628 343  C 626.32 343  625 341.68  625 340  C 625 338.32  626.32 337  628 337  C 629.68 337  631 338.32  631 340  C 631 341.68  629.68 343  628 343  " fill-rule="nonzero" fill="#797979" stroke="none" />
</svg>