<?xml version="1.0" encoding="utf-8"?>
<svg version="1.1" xmlns:xlink="http://www.w3.org/1999/xlink" width="12px" height="12px" viewBox="621 362  12 12" xmlns="http://www.w3.org/2000/svg">
  <path d="M 627 362  C 630.36 362  633 364.64  633 368  C 633 371.36  630.36 374  627 374  C 623.64 374  621 371.36  621 368  C 621 364.64  623.64 362  627 362  Z " fill-rule="nonzero" fill="#ffffff" stroke="none" />
  <path d="M 627 362.5  C 630.08 362.5  632.5 364.92  632.5 368  C 632.5 371.08  630.08 373.5  627 373.5  C 623.92 373.5  621.5 371.08  621.5 368  C 621.5 364.92  623.92 362.5  627 362.5  Z " stroke-width="1" stroke="#797979" fill="none" />
  <path d="M 627 371  C 625.32 371  624 369.68  624 368  C 624 366.32  625.32 365  627 365  C 628.68 365  630 366.32  630 368  C 630 369.68  628.68 371  627 371  " fill-rule="nonzero" fill="#797979" stroke="none" />
</svg>