<?xml version="1.0" encoding="utf-8"?>
<svg version="1.1" xmlns:xlink="http://www.w3.org/1999/xlink" width="54px" height="27px" xmlns="http://www.w3.org/2000/svg">
  <defs>
    <mask fill="white" id="clip161">
      <path d="M 16.2 27  L 0 13.5  L 16.2 0  L 16.2 7.29  L 54 7.29  L 54 19.71  L 16.2 19.71  L 16.2 27  Z " fill-rule="evenodd" />
    </mask>
  </defs>
  <g transform="matrix(1 0 0 1 -35 -84 )">
    <path d="M 16.2 27  L 0 13.5  L 16.2 0  L 16.2 7.29  L 54 7.29  L 54 19.71  L 16.2 19.71  L 16.2 27  Z " fill-rule="nonzero" fill="#ffffff" stroke="none" transform="matrix(1 0 0 1 35 84 )" />
    <path d="M 16.2 27  L 0 13.5  L 16.2 0  L 16.2 7.29  L 54 7.29  L 54 19.71  L 16.2 19.71  L 16.2 27  Z " stroke-width="2" stroke="#797979" fill="none" transform="matrix(1 0 0 1 35 84 )" mask="url(#clip161)" />
  </g>
</svg>