<?xml version="1.0" encoding="utf-8"?>
<svg version="1.1" xmlns:xlink="http://www.w3.org/1999/xlink" width="25px" height="25px" xmlns="http://www.w3.org/2000/svg">
  <defs>
    <mask fill="white" id="clip83">
      <path d="M 24.9378551136364 19.0999348958333  C 24.9792850378788 19.6478949652778  25 20.2094184027778  25 20.7845052083333  C 25 22.0865885416667  24.5679450757576 23.1146918402778  23.7038352272727 23.8688151041667  C 22.8397253787879 24.6229383680555  21.6915246212121 25  20.2592329545454 25  L 4.74076704545456 25  C 3.30847537878788 25  2.16027462121212 24.6229383680555  1.29616477272725 23.8688151041667  C 0.432054924242436 23.1146918402778  0 22.0865885416667  0 20.7845052083333  C 0 20.2094184027778  0.0207149621211897 19.6478949652778  0.062144886363626 19.0999348958333  C 0.103574810606062 18.5519748263889  0.186434659090935 17.9606119791667  0.310724431818187 17.3258463541667  C 0.435014204545439 16.6910807291667  0.591856060606062 16.1024305555555  0.78125 15.5598958333333  C 0.970643939393938 15.0173611111111  1.22514204545456 14.4883897569445  1.54474431818181 13.9729817708333  C 1.86434659090907 13.4575737847222  2.23129734848487 13.0181206597222  2.64559659090907 12.6546223958333  C 3.05989583333331 12.2911241319445  3.5659327651515 12.0008680555555  4.16370738636363 11.7838541666667  C 4.76148200757575 11.5668402777778  5.4214015151515 11.4583333333333  6.14346590909093 11.4583333333333  C 6.25 11.4583333333333  6.49857954545456 11.5749782986111  6.88920454545456 11.8082682291667  C 7.27982954545456 12.0415581597222  7.72076231060606 12.3019748263889  8.21200284090907 12.5895182291667  C 8.70324337121212 12.8770616319445  9.34244791666669 13.1374782986111  10.1296164772727 13.3707682291667  C 10.9167850378788 13.6040581597222  11.7069128787879 13.720703125  12.5 13.720703125  C 13.2930871212121 13.720703125  14.0832149621212 13.6040581597222  14.8703835227273 13.3707682291667  C 15.6575520833333 13.1374782986111  16.2967566287879 12.8770616319445  16.7879971590909 12.5895182291667  C 17.2792376893939 12.3019748263889  17.7201704545454 12.0415581597222  18.1107954545454 11.8082682291667  C 18.5014204545454 11.5749782986111  18.75 11.4583333333333  18.8565340909091 11.4583333333333  C 19.5785984848485 11.4583333333333  20.2385179924242 11.5668402777778  20.8362926136364 11.7838541666667  C 21.4340672348485 12.0008680555555  21.9401041666667 12.2911241319445  22.3544034090909 12.6546223958333  C 22.7687026515151 13.0181206597222  23.1356534090909 13.4575737847222  23.4552556818182 13.9729817708333  C 23.7748579545454 14.4883897569445  24.0293560606061 15.0173611111111  24.21875 15.5598958333333  C 24.4081439393939 16.1024305555555  24.5649857954546 16.6910807291667  24.6892755681818 17.3258463541667  C 24.8135653409091 17.9606119791667  24.8964251893939 18.5519748263889  24.9378551136364 19.0999348958333  Z M 17.3206676136364 1.8310546875  C 18.65234375 3.0517578125  19.3181818181818 4.52473958333331  19.3181818181818 6.25  C 19.3181818181818 7.97526041666669  18.65234375 9.4482421875  17.3206676136364 10.6689453125  C 15.9889914772727 11.8896484375  18.3821022727273 12.5  16.5 12.5  C 14.6178977272727 12.5  9.01100852272725 11.8896484375  7.67933238636363 10.6689453125  C 6.34765625 9.4482421875  5.68181818181819 7.97526041666669  5.68181818181819 6.25  C 5.68181818181819 4.52473958333331  6.34765625 3.0517578125  7.67933238636363 1.8310546875  C 9.01100852272725 0.6103515625  10.6178977272727 0  12.5 0  C 14.3821022727273 0  15.9889914772727 0.6103515625  17.3206676136364 1.8310546875  Z " fill-rule="evenodd" />
    </mask>
  </defs>
  <g transform="matrix(1 0 0 1 -541 -303 )">
    <path d="M 24.9378551136364 19.0999348958333  C 24.9792850378788 19.6478949652778  25 20.2094184027778  25 20.7845052083333  C 25 22.0865885416667  24.5679450757576 23.1146918402778  23.7038352272727 23.8688151041667  C 22.8397253787879 24.6229383680555  21.6915246212121 25  20.2592329545454 25  L 4.74076704545456 25  C 3.30847537878788 25  2.16027462121212 24.6229383680555  1.29616477272725 23.8688151041667  C 0.432054924242436 23.1146918402778  0 22.0865885416667  0 20.7845052083333  C 0 20.2094184027778  0.0207149621211897 19.6478949652778  0.062144886363626 19.0999348958333  C 0.103574810606062 18.5519748263889  0.186434659090935 17.9606119791667  0.310724431818187 17.3258463541667  C 0.435014204545439 16.6910807291667  0.591856060606062 16.1024305555555  0.78125 15.5598958333333  C 0.970643939393938 15.0173611111111  1.22514204545456 14.4883897569445  1.54474431818181 13.9729817708333  C 1.86434659090907 13.4575737847222  2.23129734848487 13.0181206597222  2.64559659090907 12.6546223958333  C 3.05989583333331 12.2911241319445  3.5659327651515 12.0008680555555  4.16370738636363 11.7838541666667  C 4.76148200757575 11.5668402777778  5.4214015151515 11.4583333333333  6.14346590909093 11.4583333333333  C 6.25 11.4583333333333  6.49857954545456 11.5749782986111  6.88920454545456 11.8082682291667  C 7.27982954545456 12.0415581597222  7.72076231060606 12.3019748263889  8.21200284090907 12.5895182291667  C 8.70324337121212 12.8770616319445  9.34244791666669 13.1374782986111  10.1296164772727 13.3707682291667  C 10.9167850378788 13.6040581597222  11.7069128787879 13.720703125  12.5 13.720703125  C 13.2930871212121 13.720703125  14.0832149621212 13.6040581597222  14.8703835227273 13.3707682291667  C 15.6575520833333 13.1374782986111  16.2967566287879 12.8770616319445  16.7879971590909 12.5895182291667  C 17.2792376893939 12.3019748263889  17.7201704545454 12.0415581597222  18.1107954545454 11.8082682291667  C 18.5014204545454 11.5749782986111  18.75 11.4583333333333  18.8565340909091 11.4583333333333  C 19.5785984848485 11.4583333333333  20.2385179924242 11.5668402777778  20.8362926136364 11.7838541666667  C 21.4340672348485 12.0008680555555  21.9401041666667 12.2911241319445  22.3544034090909 12.6546223958333  C 22.7687026515151 13.0181206597222  23.1356534090909 13.4575737847222  23.4552556818182 13.9729817708333  C 23.7748579545454 14.4883897569445  24.0293560606061 15.0173611111111  24.21875 15.5598958333333  C 24.4081439393939 16.1024305555555  24.5649857954546 16.6910807291667  24.6892755681818 17.3258463541667  C 24.8135653409091 17.9606119791667  24.8964251893939 18.5519748263889  24.9378551136364 19.0999348958333  Z M 17.3206676136364 1.8310546875  C 18.65234375 3.0517578125  19.3181818181818 4.52473958333331  19.3181818181818 6.25  C 19.3181818181818 7.97526041666669  18.65234375 9.4482421875  17.3206676136364 10.6689453125  C 15.9889914772727 11.8896484375  18.3821022727273 12.5  16.5 12.5  C 14.6178977272727 12.5  9.01100852272725 11.8896484375  7.67933238636363 10.6689453125  C 6.34765625 9.4482421875  5.68181818181819 7.97526041666669  5.68181818181819 6.25  C 5.68181818181819 4.52473958333331  6.34765625 3.0517578125  7.67933238636363 1.8310546875  C 9.01100852272725 0.6103515625  10.6178977272727 0  12.5 0  C 14.3821022727273 0  15.9889914772727 0.6103515625  17.3206676136364 1.8310546875  Z " fill-rule="nonzero" fill="#99ffff" stroke="none" transform="matrix(1 0 0 1 541 303 )" />
    <path d="M 24.9378551136364 19.0999348958333  C 24.9792850378788 19.6478949652778  25 20.2094184027778  25 20.7845052083333  C 25 22.0865885416667  24.5679450757576 23.1146918402778  23.7038352272727 23.8688151041667  C 22.8397253787879 24.6229383680555  21.6915246212121 25  20.2592329545454 25  L 4.74076704545456 25  C 3.30847537878788 25  2.16027462121212 24.6229383680555  1.29616477272725 23.8688151041667  C 0.432054924242436 23.1146918402778  0 22.0865885416667  0 20.7845052083333  C 0 20.2094184027778  0.0207149621211897 19.6478949652778  0.062144886363626 19.0999348958333  C 0.103574810606062 18.5519748263889  0.186434659090935 17.9606119791667  0.310724431818187 17.3258463541667  C 0.435014204545439 16.6910807291667  0.591856060606062 16.1024305555555  0.78125 15.5598958333333  C 0.970643939393938 15.0173611111111  1.22514204545456 14.4883897569445  1.54474431818181 13.9729817708333  C 1.86434659090907 13.4575737847222  2.23129734848487 13.0181206597222  2.64559659090907 12.6546223958333  C 3.05989583333331 12.2911241319445  3.5659327651515 12.0008680555555  4.16370738636363 11.7838541666667  C 4.76148200757575 11.5668402777778  5.4214015151515 11.4583333333333  6.14346590909093 11.4583333333333  C 6.25 11.4583333333333  6.49857954545456 11.5749782986111  6.88920454545456 11.8082682291667  C 7.27982954545456 12.0415581597222  7.72076231060606 12.3019748263889  8.21200284090907 12.5895182291667  C 8.70324337121212 12.8770616319445  9.34244791666669 13.1374782986111  10.1296164772727 13.3707682291667  C 10.9167850378788 13.6040581597222  11.7069128787879 13.720703125  12.5 13.720703125  C 13.2930871212121 13.720703125  14.0832149621212 13.6040581597222  14.8703835227273 13.3707682291667  C 15.6575520833333 13.1374782986111  16.2967566287879 12.8770616319445  16.7879971590909 12.5895182291667  C 17.2792376893939 12.3019748263889  17.7201704545454 12.0415581597222  18.1107954545454 11.8082682291667  C 18.5014204545454 11.5749782986111  18.75 11.4583333333333  18.8565340909091 11.4583333333333  C 19.5785984848485 11.4583333333333  20.2385179924242 11.5668402777778  20.8362926136364 11.7838541666667  C 21.4340672348485 12.0008680555555  21.9401041666667 12.2911241319445  22.3544034090909 12.6546223958333  C 22.7687026515151 13.0181206597222  23.1356534090909 13.4575737847222  23.4552556818182 13.9729817708333  C 23.7748579545454 14.4883897569445  24.0293560606061 15.0173611111111  24.21875 15.5598958333333  C 24.4081439393939 16.1024305555555  24.5649857954546 16.6910807291667  24.6892755681818 17.3258463541667  C 24.8135653409091 17.9606119791667  24.8964251893939 18.5519748263889  24.9378551136364 19.0999348958333  Z " stroke-width="2" stroke="#797979" fill="none" transform="matrix(1 0 0 1 541 303 )" mask="url(#clip83)" />
    <path d="M 17.3206676136364 1.8310546875  C 18.65234375 3.0517578125  19.3181818181818 4.52473958333331  19.3181818181818 6.25  C 19.3181818181818 7.97526041666669  18.65234375 9.4482421875  17.3206676136364 10.6689453125  C 15.9889914772727 11.8896484375  18.3821022727273 12.5  16.5 12.5  C 14.6178977272727 12.5  9.01100852272725 11.8896484375  7.67933238636363 10.6689453125  C 6.34765625 9.4482421875  5.68181818181819 7.97526041666669  5.68181818181819 6.25  C 5.68181818181819 4.52473958333331  6.34765625 3.0517578125  7.67933238636363 1.8310546875  C 9.01100852272725 0.6103515625  10.6178977272727 0  12.5 0  C 14.3821022727273 0  15.9889914772727 0.6103515625  17.3206676136364 1.8310546875  Z " stroke-width="2" stroke="#797979" fill="none" transform="matrix(1 0 0 1 541 303 )" mask="url(#clip83)" />
  </g>
</svg>