<?xml version="1.0" encoding="utf-8"?>
<svg version="1.1" xmlns:xlink="http://www.w3.org/1999/xlink" width="25px" height="25px" xmlns="http://www.w3.org/2000/svg">
  <defs>
    <mask fill="white" id="clip84">
      <path d="M 6.94444444444446 7.95454545454544  L 6.94444444444446 11.3636363636364  L 18.0555555555555 11.3636363636364  L 18.0555555555555 7.95454545454544  C 18.0555555555555 6.69981060606062  17.5130208333333 5.62855113636363  16.4279513888889 4.7407670454545  C 15.3428819444445 3.85298295454544  14.0335648148148 3.40909090909094  12.5 3.40909090909094  C 10.9664351851852 3.40909090909094  9.65711805555554 3.85298295454544  8.57204861111109 4.7407670454545  C 7.48697916666669 5.62855113636363  6.94444444444446 6.69981060606062  6.94444444444446 7.95454545454544  Z M 24.3923611111111 11.8607954545455  C 24.7974537037037 12.1922348484849  25 12.594696969697  25 13.0681818181818  L 25 23.2954545454546  C 25 23.7689393939394  24.7974537037037 24.1714015151515  24.3923611111111 24.5028409090909  C 23.9872685185185 24.8342803030303  23.4953703703704 25  22.9166666666667 25  L 2.08333333333331 25  C 1.50462962962962 25  1.01273148148147 24.8342803030303  0.607638888888914 24.5028409090909  C 0.202546296296305 24.1714015151515  0 23.7689393939394  0 23.2954545454546  L 0 13.0681818181818  C 0 12.594696969697  0.202546296296305 12.1922348484849  0.607638888888914 11.8607954545455  C 1.01273148148147 11.5293560606061  1.50462962962962 11.3636363636364  2.08333333333331 11.3636363636364  L 2.77777777777777 11.3636363636364  L 2.77777777777777 7.95454545454544  C 2.77777777777777 5.77651515151518  3.73263888888891 3.90625  5.64236111111109 2.34375  C 7.55208333333331 0.78125  9.83796296296299 0  12.5 0  C 15.1620370370371 0  17.4479166666667 0.78125  19.3576388888889 2.34375  C 21.2673611111111 3.90625  22.2222222222222 5.77651515151518  22.2222222222222 7.95454545454544  L 22.2222222222222 11.3636363636364  L 22.9166666666667 11.3636363636364  C 23.4953703703704 11.3636363636364  23.9872685185185 11.5293560606061  24.3923611111111 11.8607954545455  Z " fill-rule="evenodd" />
    </mask>
  </defs>
  <g transform="matrix(1 0 0 1 -541 -354 )">
    <path d="M 6.94444444444446 7.95454545454544  L 6.94444444444446 11.3636363636364  L 18.0555555555555 11.3636363636364  L 18.0555555555555 7.95454545454544  C 18.0555555555555 6.69981060606062  17.5130208333333 5.62855113636363  16.4279513888889 4.7407670454545  C 15.3428819444445 3.85298295454544  14.0335648148148 3.40909090909094  12.5 3.40909090909094  C 10.9664351851852 3.40909090909094  9.65711805555554 3.85298295454544  8.57204861111109 4.7407670454545  C 7.48697916666669 5.62855113636363  6.94444444444446 6.69981060606062  6.94444444444446 7.95454545454544  Z M 24.3923611111111 11.8607954545455  C 24.7974537037037 12.1922348484849  25 12.594696969697  25 13.0681818181818  L 25 23.2954545454546  C 25 23.7689393939394  24.7974537037037 24.1714015151515  24.3923611111111 24.5028409090909  C 23.9872685185185 24.8342803030303  23.4953703703704 25  22.9166666666667 25  L 2.08333333333331 25  C 1.50462962962962 25  1.01273148148147 24.8342803030303  0.607638888888914 24.5028409090909  C 0.202546296296305 24.1714015151515  0 23.7689393939394  0 23.2954545454546  L 0 13.0681818181818  C 0 12.594696969697  0.202546296296305 12.1922348484849  0.607638888888914 11.8607954545455  C 1.01273148148147 11.5293560606061  1.50462962962962 11.3636363636364  2.08333333333331 11.3636363636364  L 2.77777777777777 11.3636363636364  L 2.77777777777777 7.95454545454544  C 2.77777777777777 5.77651515151518  3.73263888888891 3.90625  5.64236111111109 2.34375  C 7.55208333333331 0.78125  9.83796296296299 0  12.5 0  C 15.1620370370371 0  17.4479166666667 0.78125  19.3576388888889 2.34375  C 21.2673611111111 3.90625  22.2222222222222 5.77651515151518  22.2222222222222 7.95454545454544  L 22.2222222222222 11.3636363636364  L 22.9166666666667 11.3636363636364  C 23.4953703703704 11.3636363636364  23.9872685185185 11.5293560606061  24.3923611111111 11.8607954545455  Z " fill-rule="nonzero" fill="#99ffff" stroke="none" transform="matrix(1 0 0 1 541 354 )" />
    <path d="M 6.94444444444446 7.95454545454544  L 6.94444444444446 11.3636363636364  L 18.0555555555555 11.3636363636364  L 18.0555555555555 7.95454545454544  C 18.0555555555555 6.69981060606062  17.5130208333333 5.62855113636363  16.4279513888889 4.7407670454545  C 15.3428819444445 3.85298295454544  14.0335648148148 3.40909090909094  12.5 3.40909090909094  C 10.9664351851852 3.40909090909094  9.65711805555554 3.85298295454544  8.57204861111109 4.7407670454545  C 7.48697916666669 5.62855113636363  6.94444444444446 6.69981060606062  6.94444444444446 7.95454545454544  Z " stroke-width="2" stroke="#797979" fill="none" transform="matrix(1 0 0 1 541 354 )" mask="url(#clip84)" />
    <path d="M 24.3923611111111 11.8607954545455  C 24.7974537037037 12.1922348484849  25 12.594696969697  25 13.0681818181818  L 25 23.2954545454546  C 25 23.7689393939394  24.7974537037037 24.1714015151515  24.3923611111111 24.5028409090909  C 23.9872685185185 24.8342803030303  23.4953703703704 25  22.9166666666667 25  L 2.08333333333331 25  C 1.50462962962962 25  1.01273148148147 24.8342803030303  0.607638888888914 24.5028409090909  C 0.202546296296305 24.1714015151515  0 23.7689393939394  0 23.2954545454546  L 0 13.0681818181818  C 0 12.594696969697  0.202546296296305 12.1922348484849  0.607638888888914 11.8607954545455  C 1.01273148148147 11.5293560606061  1.50462962962962 11.3636363636364  2.08333333333331 11.3636363636364  L 2.77777777777777 11.3636363636364  L 2.77777777777777 7.95454545454544  C 2.77777777777777 5.77651515151518  3.73263888888891 3.90625  5.64236111111109 2.34375  C 7.55208333333331 0.78125  9.83796296296299 0  12.5 0  C 15.1620370370371 0  17.4479166666667 0.78125  19.3576388888889 2.34375  C 21.2673611111111 3.90625  22.2222222222222 5.77651515151518  22.2222222222222 7.95454545454544  L 22.2222222222222 11.3636363636364  L 22.9166666666667 11.3636363636364  C 23.4953703703704 11.3636363636364  23.9872685185185 11.5293560606061  24.3923611111111 11.8607954545455  Z " stroke-width="2" stroke="#797979" fill="none" transform="matrix(1 0 0 1 541 354 )" mask="url(#clip84)" />
  </g>
</svg>