<?xml version="1.0" encoding="utf-8"?>
<svg version="1.1" xmlns:xlink="http://www.w3.org/1999/xlink" width="12px" height="12px" viewBox="201 435  12 12" xmlns="http://www.w3.org/2000/svg">
  <path d="M 207 435  C 210.36 435  213 437.64  213 441  C 213 444.36  210.36 447  207 447  C 203.64 447  201 444.36  201 441  C 201 437.64  203.64 435  207 435  Z " fill-rule="nonzero" fill="#ffffff" stroke="none" />
  <path d="M 207 435.5  C 210.08 435.5  212.5 437.92  212.5 441  C 212.5 444.08  210.08 446.5  207 446.5  C 203.92 446.5  201.5 444.08  201.5 441  C 201.5 437.92  203.92 435.5  207 435.5  Z " stroke-width="1" stroke="#797979" fill="none" />
  <path d="M 207 444  C 205.32 444  204 442.68  204 441  C 204 439.32  205.32 438  207 438  C 208.68 438  210 439.32  210 441  C 210 442.68  208.68 444  207 444  " fill-rule="nonzero" fill="#797979" stroke="none" />
</svg>