<?xml version="1.0" encoding="utf-8"?>
<svg version="1.1" xmlns:xlink="http://www.w3.org/1999/xlink" width="12px" height="12px" viewBox="201 490  12 12" xmlns="http://www.w3.org/2000/svg">
  <path d="M 207 490  C 210.36 490  213 492.64  213 496  C 213 499.36  210.36 502  207 502  C 203.64 502  201 499.36  201 496  C 201 492.64  203.64 490  207 490  Z " fill-rule="nonzero" fill="#ffffff" stroke="none" />
  <path d="M 207 490.5  C 210.08 490.5  212.5 492.92  212.5 496  C 212.5 499.08  210.08 501.5  207 501.5  C 203.92 501.5  201.5 499.08  201.5 496  C 201.5 492.92  203.92 490.5  207 490.5  Z " stroke-width="1" stroke="#797979" fill="none" />
  <path d="M 207 499  C 205.32 499  204 497.68  204 496  C 204 494.32  205.32 493  207 493  C 208.68 493  210 494.32  210 496  C 210 497.68  208.68 499  207 499  " fill-rule="nonzero" fill="#797979" stroke="none" />
</svg>