<?xml version="1.0" encoding="utf-8"?>
<svg version="1.1" xmlns:xlink="http://www.w3.org/1999/xlink" width="26px" height="22px" xmlns="http://www.w3.org/2000/svg">
  <g transform="matrix(1 0 0 1 -496 -426 )">
    <path d="M 509 426  C 516.28 426  522 430.84  522 437  C 522 443.16  516.28 448  509 448  C 501.72 448  496 443.16  496 437  C 496 430.84  501.72 426  509 426  Z " fill-rule="nonzero" fill="#ffffff" stroke="none" />
    <path d="M 509 426.5  C 516 426.5  521.5 431.12  521.5 437  C 521.5 442.88  516 447.5  509 447.5  C 502 447.5  496.5 442.88  496.5 437  C 496.5 431.12  502 426.5  509 426.5  Z " stroke-width="1" stroke="#797979" fill="none" />
  </g>
</svg>