<?xml version="1.0" encoding="utf-8"?>
<svg version="1.1" xmlns:xlink="http://www.w3.org/1999/xlink" width="39px" height="31px" xmlns="http://www.w3.org/2000/svg">
  <g transform="matrix(1 0 0 1 -32 -473 )">
    <path d="M 17.5546875 2.65963431786217  C 17.8515625 2.93577121425223  18 3.26277543366151  18 3.64064697609001  L 18 27.35935302391  C 18 27.7372245663385  17.8515625 28.0642287857478  17.5546875 28.3403656821378  C 17.2578125 28.6165025785279  16.90625 28.7545710267229  16.5 28.7545710267229  C 16.09375 28.7545710267229  15.7421875 28.6165025785279  15.4453125 28.3403656821378  L 7.640625 21.0808720112518  L 1.5 21.0808720112518  C 1.09375 21.0808720112518  0.7421875 20.9428035630567  0.4453125 20.6666666666667  C 0.1484375 20.3905297702766  0 20.0635255508673  0 19.6856540084388  L 0 11.3143459915612  C 0 10.9364744491327  0.1484375 10.6094702297234  0.4453125 10.3333333333333  C 0.7421875 10.0571964369433  1.09375 9.91912798874824  1.5 9.91912798874824  L 7.640625 9.91912798874824  L 15.4453125 2.65963431786217  C 15.7421875 2.38349742147211  16.09375 2.24542897327708  16.5 2.24542897327708  C 16.90625 2.24542897327708  17.2578125 2.38349742147211  17.5546875 2.65963431786217  Z M 26.00390625 12.4043600562588  C 26.66796875 13.3635724331927  27 14.3954524144398  27 15.5  C 27 16.6045475855602  26.66796875 17.6327941865917  26.00390625 18.5847398030942  C 25.33984375 19.5366854195968  24.4609375 20.216127519925  23.3671875 20.6230661040788  C 23.2109375 20.6957337083919  23.015625 20.7320675105485  22.78125 20.7320675105485  C 22.375 20.7320675105485  22.0234375 20.5976324425692  21.7265625 20.3287623066104  C 21.4296875 20.0598921706517  21.28125 19.7292545710267  21.28125 19.3368495077356  C 21.28125 19.0316455696203  21.375 18.7736755743085  21.5625 18.5629395218003  C 21.75 18.3522034692921  21.9765625 18.1705344585091  22.2421875 18.0179324894515  C 22.5078125 17.8653305203938  22.7734375 17.6981950304735  23.0390625 17.5165260196906  C 23.3046875 17.3348570089076  23.53125 17.0768870135959  23.71875 16.7426160337553  C 23.90625 16.4083450539147  24 15.9941397093296  24 15.5  C 24 15.0058602906704  23.90625 14.5916549460853  23.71875 14.2573839662447  C 23.53125 13.9231129864041  23.3046875 13.6651429910924  23.0390625 13.4834739803094  C 22.7734375 13.3018049695265  22.5078125 13.1346694796062  22.2421875 12.9820675105485  C 21.9765625 12.8294655414909  21.75 12.6477965307079  21.5625 12.4370604781997  C 21.375 12.2263244256915  21.28125 11.9683544303797  21.28125 11.6631504922644  C 21.28125 11.2707454289733  21.4296875 10.9401078293483  21.7265625 10.6712376933896  C 22.0234375 10.4023675574308  22.375 10.2679324894515  22.78125 10.2679324894515  C 23.015625 10.2679324894515  23.2109375 10.3042662916081  23.3671875 10.3769338959212  C 24.4609375 10.7693389592124  25.33984375 11.4451476793249  26.00390625 12.4043600562588  Z M 31.0078125 9.34142053445851  C 32.3359375 11.2235114861697  33 13.2763713080169  33 15.5  C 33 17.7236286919831  32.3359375 19.7764885138303  31.0078125 21.6585794655415  C 29.6796875 23.5406704172527  27.921875 24.910454758556  25.734375 25.7679324894515  C 25.53125 25.8406000937647  25.3359375 25.8769338959212  25.1484375 25.8769338959212  C 24.7265625 25.8769338959212  24.3671875 25.7388654477262  24.0703125 25.4627285513361  C 23.7734375 25.1865916549461  23.625 24.8595874355368  23.625 24.4817158931083  C 23.625 23.9149085794655  23.9296875 23.4861697140178  24.5390625 23.1954992967651  C 25.4140625 22.7740271917487  26.0078125 22.4542897327707  26.3203125 22.2362869198312  C 27.4765625 21.4514767932489  28.37890625 20.4668307548054  29.02734375 19.2823488045007  C 29.67578125 18.097866854196  30 16.8370839193624  30 15.5  C 30 14.1629160806376  29.67578125 12.902133145804  29.02734375 11.7176511954993  C 28.37890625 10.5331692451946  27.4765625 9.54852320675105  26.3203125 8.76371308016878  C 26.0078125 8.54571026722926  25.4140625 8.22597280825129  24.5390625 7.80450070323488  C 23.9296875 7.51383028598218  23.625 7.08509142053446  23.625 6.5182841068917  C 23.625 6.14041256446319  23.7734375 5.81340834505391  24.0703125 5.53727144866385  C 24.3671875 5.26113455227379  24.71875 5.12306610407876  25.125 5.12306610407876  C 25.328125 5.12306610407876  25.53125 5.15939990623534  25.734375 5.23206751054853  C 27.921875 6.08954524144397  29.6796875 7.4593295827473  31.0078125 9.34142053445851  Z M 36.0234375 6.2893811533052  C 38.0078125 9.0870839193624  39 12.157290201594  39 15.5  C 39 18.842709798406  38.0078125 21.9129160806376  36.0234375 24.7106188466948  C 34.0390625 27.508321612752  31.3984375 29.5684481950305  28.1015625 30.8909985935302  C 27.8984375 30.9636661978434  27.6953125 31  27.4921875 31  C 27.0859375 31  26.734375 30.861931551805  26.4375 30.5857946554149  C 26.140625 30.3096577590248  25.9921875 29.9826535396156  25.9921875 29.6047819971871  C 25.9921875 29.0815752461322  26.296875 28.6528363806845  26.90625 28.3185654008439  C 27.015625 28.2604313173933  27.19140625 28.1841303328645  27.43359375 28.0896624472574  C 27.67578125 27.9951945616503  27.8515625 27.9188935771214  27.9609375 27.8607594936709  C 28.6796875 27.497421472105  29.3203125 27.1268166901078  29.8828125 26.7489451476793  C 31.8046875 25.4263947491796  33.3046875 23.7768401312705  34.3828125 21.8002812939522  C 35.4609375 19.8237224566338  36 17.7236286919831  36 15.5  C 36 13.2763713080169  35.4609375 11.1762775433662  34.3828125 9.19971870604782  C 33.3046875 7.22315986872949  31.8046875 5.57360525082044  29.8828125 4.25105485232067  C 29.3203125 3.87318330989217  28.6796875 3.50257852789498  27.9609375 3.13924050632911  C 27.8515625 3.08110642287857  27.67578125 3.00480543834974  27.43359375 2.91033755274262  C 27.19140625 2.81586966713549  27.015625 2.73956868260665  26.90625 2.68143459915612  C 26.296875 2.34716361931551  25.9921875 1.91842475386779  25.9921875 1.39521800281294  C 25.9921875 1.01734646038443  26.140625 0.690342240975149  26.4375 0.414205344585091  C 26.734375 0.138068448195029  27.0859375 0  27.4921875 0  C 27.6953125 0  27.8984375 0.036333802156585  28.1015625 0.109001406469762  C 31.3984375 1.43155180496952  34.0390625 3.491678387248  36.0234375 6.2893811533052  Z " fill-rule="nonzero" fill="#666666" stroke="none" transform="matrix(1 0 0 1 32 473 )" />
  </g>
</svg>