<?xml version="1.0" encoding="utf-8"?>
<svg version="1.1" xmlns:xlink="http://www.w3.org/1999/xlink" width="20px" height="20px" xmlns="http://www.w3.org/2000/svg">
  <defs>
    <mask fill="white" id="clip90">
      <path d="M 19.950284090909 15.2799479166667  C 19.983428030303 15.7183159722222  20 16.1675347222222  20 16.6276041666667  C 20 17.6692708333333  19.654356060606 18.4917534722222  18.963068181818 19.0950520833333  C 18.2717803030303 19.6983506944444  17.3532196969697 20  16.2073863636365 20  L 3.79261363636351 20  C 2.64678030303025 20  1.72821969696975 19.6983506944444  1.03693181818198 19.0950520833333  C 0.345643939393995 18.4917534722222  0 17.6692708333333  0 16.6276041666667  C 0 16.1675347222222  0.0165719696969973 15.7183159722222  0.0497159090909918 15.2799479166667  C 0.0828598484849863 14.8415798611111  0.149147727272748 14.3684895833333  0.248579545454504 13.8606770833333  C 0.348011363636488 13.3528645833333  0.473484848484986 12.8819444444444  0.625 12.4479166666667  C 0.776515151515014 12.0138888888889  0.980113636363512 11.5907118055556  1.2357954545455 11.1783854166667  C 1.49147727272725 10.7660590277778  1.78503787878799 10.4144965277778  2.11647727272725 10.1236979166667  C 2.44791666666652 9.83289930555556  2.85274621212125 9.60069444444444  3.33096590909099 9.42708333333333  C 3.80918560606051 9.25347222222222  4.33712121212125 9.16666666666667  4.91477272727275 9.16666666666667  C 5 9.16666666666667  5.19886363636351 9.25998263888889  5.51136363636351 9.44661458333333  C 5.82386363636351 9.63324652777778  6.17660984848499 9.84157986111111  6.56960227272725 10.0716145833333  C 6.96259469696975 10.3016493055556  7.47395833333348 10.5099826388889  8.10369318181802 10.6966145833333  C 8.733428030303 10.8832465277778  9.36553030303025 10.9765625  10 10.9765625  C 10.6344696969697 10.9765625  11.266571969697 10.8832465277778  11.896306818182 10.6966145833333  C 12.5260416666665 10.5099826388889  13.0374053030303 10.3016493055556  13.4303977272727 10.0716145833333  C 13.823390151515 9.84157986111111  14.1761363636365 9.63324652777778  14.4886363636365 9.44661458333333  C 14.8011363636365 9.25998263888889  15 9.16666666666667  15.0852272727273 9.16666666666667  C 15.6628787878788 9.16666666666667  16.1908143939395 9.25347222222222  16.669034090909 9.42708333333333  C 17.1472537878788 9.60069444444444  17.5520833333335 9.83289930555556  17.8835227272727 10.1236979166667  C 18.214962121212 10.4144965277778  18.5085227272727 10.7660590277778  18.7642045454545 11.1783854166667  C 19.0198863636365 11.5907118055556  19.223484848485 12.0138888888889  19.375 12.4479166666667  C 19.526515151515 12.8819444444444  19.6519886363635 13.3528645833333  19.7514204545455 13.8606770833333  C 19.8508522727273 14.3684895833333  19.917140151515 14.8415798611111  19.950284090909 15.2799479166667  Z M 13.856534090909 1.46484375  C 14.921875 2.44140625  15.4545454545455 3.61979166666667  15.4545454545455 5  C 15.4545454545455 6.38020833333333  14.921875 7.55859375  13.856534090909 8.53515625  C 12.791193181818 9.51171875  11.505681818182 10  10 10  C 8.49431818181802 10  7.20880681818198 9.51171875  6.14346590909099 8.53515625  C 5.078125 7.55859375  4.5454545454545 6.38020833333333  4.5454545454545 5  C 4.5454545454545 3.61979166666667  5.078125 2.44140625  6.14346590909099 1.46484375  C 7.20880681818198 0.48828125  8.49431818181802 0  10 0  C 11.505681818182 0  12.791193181818 0.48828125  13.856534090909 1.46484375  Z " fill-rule="evenodd" />
    </mask>
  </defs>
  <g transform="matrix(1 0 0 1 -1061 -13 )">
    <path d="M 19.950284090909 15.2799479166667  C 19.983428030303 15.7183159722222  20 16.1675347222222  20 16.6276041666667  C 20 17.6692708333333  19.654356060606 18.4917534722222  18.963068181818 19.0950520833333  C 18.2717803030303 19.6983506944444  17.3532196969697 20  16.2073863636365 20  L 3.79261363636351 20  C 2.64678030303025 20  1.72821969696975 19.6983506944444  1.03693181818198 19.0950520833333  C 0.345643939393995 18.4917534722222  0 17.6692708333333  0 16.6276041666667  C 0 16.1675347222222  0.0165719696969973 15.7183159722222  0.0497159090909918 15.2799479166667  C 0.0828598484849863 14.8415798611111  0.149147727272748 14.3684895833333  0.248579545454504 13.8606770833333  C 0.348011363636488 13.3528645833333  0.473484848484986 12.8819444444444  0.625 12.4479166666667  C 0.776515151515014 12.0138888888889  0.980113636363512 11.5907118055556  1.2357954545455 11.1783854166667  C 1.49147727272725 10.7660590277778  1.78503787878799 10.4144965277778  2.11647727272725 10.1236979166667  C 2.44791666666652 9.83289930555556  2.85274621212125 9.60069444444444  3.33096590909099 9.42708333333333  C 3.80918560606051 9.25347222222222  4.33712121212125 9.16666666666667  4.91477272727275 9.16666666666667  C 5 9.16666666666667  5.19886363636351 9.25998263888889  5.51136363636351 9.44661458333333  C 5.82386363636351 9.63324652777778  6.17660984848499 9.84157986111111  6.56960227272725 10.0716145833333  C 6.96259469696975 10.3016493055556  7.47395833333348 10.5099826388889  8.10369318181802 10.6966145833333  C 8.733428030303 10.8832465277778  9.36553030303025 10.9765625  10 10.9765625  C 10.6344696969697 10.9765625  11.266571969697 10.8832465277778  11.896306818182 10.6966145833333  C 12.5260416666665 10.5099826388889  13.0374053030303 10.3016493055556  13.4303977272727 10.0716145833333  C 13.823390151515 9.84157986111111  14.1761363636365 9.63324652777778  14.4886363636365 9.44661458333333  C 14.8011363636365 9.25998263888889  15 9.16666666666667  15.0852272727273 9.16666666666667  C 15.6628787878788 9.16666666666667  16.1908143939395 9.25347222222222  16.669034090909 9.42708333333333  C 17.1472537878788 9.60069444444444  17.5520833333335 9.83289930555556  17.8835227272727 10.1236979166667  C 18.214962121212 10.4144965277778  18.5085227272727 10.7660590277778  18.7642045454545 11.1783854166667  C 19.0198863636365 11.5907118055556  19.223484848485 12.0138888888889  19.375 12.4479166666667  C 19.526515151515 12.8819444444444  19.6519886363635 13.3528645833333  19.7514204545455 13.8606770833333  C 19.8508522727273 14.3684895833333  19.917140151515 14.8415798611111  19.950284090909 15.2799479166667  Z M 13.856534090909 1.46484375  C 14.921875 2.44140625  15.4545454545455 3.61979166666667  15.4545454545455 5  C 15.4545454545455 6.38020833333333  14.921875 7.55859375  13.856534090909 8.53515625  C 12.791193181818 9.51171875  11.505681818182 10  10 10  C 8.49431818181802 10  7.20880681818198 9.51171875  6.14346590909099 8.53515625  C 5.078125 7.55859375  4.5454545454545 6.38020833333333  4.5454545454545 5  C 4.5454545454545 3.61979166666667  5.078125 2.44140625  6.14346590909099 1.46484375  C 7.20880681818198 0.48828125  8.49431818181802 0  10 0  C 11.505681818182 0  12.791193181818 0.48828125  13.856534090909 1.46484375  Z " fill-rule="nonzero" fill="#cccccc" stroke="none" transform="matrix(1 0 0 1 1061 13 )" />
    <path d="M 19.950284090909 15.2799479166667  C 19.983428030303 15.7183159722222  20 16.1675347222222  20 16.6276041666667  C 20 17.6692708333333  19.654356060606 18.4917534722222  18.963068181818 19.0950520833333  C 18.2717803030303 19.6983506944444  17.3532196969697 20  16.2073863636365 20  L 3.79261363636351 20  C 2.64678030303025 20  1.72821969696975 19.6983506944444  1.03693181818198 19.0950520833333  C 0.345643939393995 18.4917534722222  0 17.6692708333333  0 16.6276041666667  C 0 16.1675347222222  0.0165719696969973 15.7183159722222  0.0497159090909918 15.2799479166667  C 0.0828598484849863 14.8415798611111  0.149147727272748 14.3684895833333  0.248579545454504 13.8606770833333  C 0.348011363636488 13.3528645833333  0.473484848484986 12.8819444444444  0.625 12.4479166666667  C 0.776515151515014 12.0138888888889  0.980113636363512 11.5907118055556  1.2357954545455 11.1783854166667  C 1.49147727272725 10.7660590277778  1.78503787878799 10.4144965277778  2.11647727272725 10.1236979166667  C 2.44791666666652 9.83289930555556  2.85274621212125 9.60069444444444  3.33096590909099 9.42708333333333  C 3.80918560606051 9.25347222222222  4.33712121212125 9.16666666666667  4.91477272727275 9.16666666666667  C 5 9.16666666666667  5.19886363636351 9.25998263888889  5.51136363636351 9.44661458333333  C 5.82386363636351 9.63324652777778  6.17660984848499 9.84157986111111  6.56960227272725 10.0716145833333  C 6.96259469696975 10.3016493055556  7.47395833333348 10.5099826388889  8.10369318181802 10.6966145833333  C 8.733428030303 10.8832465277778  9.36553030303025 10.9765625  10 10.9765625  C 10.6344696969697 10.9765625  11.266571969697 10.8832465277778  11.896306818182 10.6966145833333  C 12.5260416666665 10.5099826388889  13.0374053030303 10.3016493055556  13.4303977272727 10.0716145833333  C 13.823390151515 9.84157986111111  14.1761363636365 9.63324652777778  14.4886363636365 9.44661458333333  C 14.8011363636365 9.25998263888889  15 9.16666666666667  15.0852272727273 9.16666666666667  C 15.6628787878788 9.16666666666667  16.1908143939395 9.25347222222222  16.669034090909 9.42708333333333  C 17.1472537878788 9.60069444444444  17.5520833333335 9.83289930555556  17.8835227272727 10.1236979166667  C 18.214962121212 10.4144965277778  18.5085227272727 10.7660590277778  18.7642045454545 11.1783854166667  C 19.0198863636365 11.5907118055556  19.223484848485 12.0138888888889  19.375 12.4479166666667  C 19.526515151515 12.8819444444444  19.6519886363635 13.3528645833333  19.7514204545455 13.8606770833333  C 19.8508522727273 14.3684895833333  19.917140151515 14.8415798611111  19.950284090909 15.2799479166667  Z " stroke-width="2" stroke="#797979" fill="none" transform="matrix(1 0 0 1 1061 13 )" mask="url(#clip90)" />
    <path d="M 13.856534090909 1.46484375  C 14.921875 2.44140625  15.4545454545455 3.61979166666667  15.4545454545455 5  C 15.4545454545455 6.38020833333333  14.921875 7.55859375  13.856534090909 8.53515625  C 12.791193181818 9.51171875  11.505681818182 10  10 10  C 8.49431818181802 10  7.20880681818198 9.51171875  6.14346590909099 8.53515625  C 5.078125 7.55859375  4.5454545454545 6.38020833333333  4.5454545454545 5  C 4.5454545454545 3.61979166666667  5.078125 2.44140625  6.14346590909099 1.46484375  C 7.20880681818198 0.48828125  8.49431818181802 0  10 0  C 11.505681818182 0  12.791193181818 0.48828125  13.856534090909 1.46484375  Z " stroke-width="2" stroke="#797979" fill="none" transform="matrix(1 0 0 1 1061 13 )" mask="url(#clip90)" />
  </g>
</svg>