<?xml version="1.0" encoding="utf-8"?>
<svg version="1.1" xmlns:xlink="http://www.w3.org/1999/xlink" width="40px" height="40px" xmlns="http://www.w3.org/2000/svg">
  <defs>
    <mask fill="white" id="clip93">
      <path d="M 39.9005681818182 30.5598958333334  C 39.966856060606 31.4366319444445  40 32.3350694444445  40 33.2552083333334  C 40 35.3385416666666  39.308712121212 36.9835069444445  37.9261363636363 38.1901041666666  C 36.5435606060605 39.3967013888889  34.7064393939395 40  32.4147727272727 40  L 7.58522727272725 40  C 5.29356060606062 40  3.45643939393938 39.3967013888889  2.07386363636363 38.1901041666666  C 0.691287878787875 36.9835069444445  0 35.3385416666666  0 33.2552083333334  C 0 32.3350694444445  0.0331439393939945 31.4366319444445  0.0994318181818699 30.5598958333334  C 0.165719696969745 29.6831597222222  0.298295454545496 28.7369791666666  0.497159090909122 27.7213541666666  C 0.696022727272748 26.7057291666666  0.946969696969745 25.7638888888889  1.25 24.8958333333334  C 1.55303030303025 24.0277777777778  1.96022727272725 23.1814236111111  2.47159090909088 22.3567708333334  C 2.9829545454545 21.5321180555555  3.57007575757575 20.8289930555555  4.2329545454545 20.2473958333334  C 4.89583333333337 19.6657986111111  5.70549242424238 19.2013888888889  6.66193181818187 18.8541666666666  C 7.61837121212125 18.5069444444445  8.67424242424238 18.3333333333334  9.8295454545455 18.3333333333334  C 10 18.3333333333334  10.3977272727273 18.5199652777778  11.0227272727273 18.8932291666666  C 11.6477272727273 19.2664930555555  12.3532196969697 19.6831597222222  13.1392045454545 20.1432291666666  C 13.9251893939394 20.6032986111111  14.9479166666666 21.0199652777778  16.2073863636364 21.3932291666666  C 17.466856060606 21.7664930555555  18.7310606060605 21.953125  20 21.953125  C 21.2689393939395 21.953125  22.533143939394 21.7664930555555  23.7926136363637 21.3932291666666  C 25.0520833333333 21.0199652777778  26.0748106060605 20.6032986111111  26.8607954545455 20.1432291666666  C 27.6467803030303 19.6831597222222  28.3522727272727 19.2664930555555  28.9772727272727 18.8932291666666  C 29.6022727272727 18.5199652777778  30 18.3333333333334  30.1704545454545 18.3333333333334  C 31.3257575757575 18.3333333333334  32.3816287878788 18.5069444444445  33.3380681818182 18.8541666666666  C 34.2945075757575 19.2013888888889  35.1041666666667 19.6657986111111  35.7670454545455 20.2473958333334  C 36.4299242424242 20.8289930555555  37.0170454545455 21.5321180555555  37.528409090909 22.3567708333334  C 38.0397727272727 23.1814236111111  38.4469696969697 24.0277777777778  38.75 24.8958333333334  C 39.0530303030303 25.7638888888889  39.3039772727273 26.7057291666666  39.502840909091 27.7213541666666  C 39.7017045454545 28.7369791666666  39.8342803030303 29.6831597222222  39.9005681818182 30.5598958333334  Z M 27.7130681818182 2.9296875  C 29.84375 4.8828125  30.909090909091 7.23958333333337  30.909090909091 10  C 30.909090909091 12.7604166666666  29.84375 15.1171875  27.7130681818182 17.0703125  C 25.5823863636363 19.0234375  23.0113636363637 20  20 20  C 16.9886363636364 20  14.4176136363636 19.0234375  12.2869318181819 17.0703125  C 10.15625 15.1171875  9.09090909090912 12.7604166666666  9.09090909090912 10  C 9.09090909090912 7.23958333333337  10.15625 4.8828125  12.2869318181819 2.9296875  C 14.4176136363636 0.9765625  16.9886363636364 0  20 0  C 23.0113636363637 0  25.5823863636363 0.9765625  27.7130681818182 2.9296875  Z " fill-rule="evenodd" />
    </mask>
  </defs>
  <g transform="matrix(1 0 0 1 -1007 -255 )">
    <path d="M 39.9005681818182 30.5598958333334  C 39.966856060606 31.4366319444445  40 32.3350694444445  40 33.2552083333334  C 40 35.3385416666666  39.308712121212 36.9835069444445  37.9261363636363 38.1901041666666  C 36.5435606060605 39.3967013888889  34.7064393939395 40  32.4147727272727 40  L 7.58522727272725 40  C 5.29356060606062 40  3.45643939393938 39.3967013888889  2.07386363636363 38.1901041666666  C 0.691287878787875 36.9835069444445  0 35.3385416666666  0 33.2552083333334  C 0 32.3350694444445  0.0331439393939945 31.4366319444445  0.0994318181818699 30.5598958333334  C 0.165719696969745 29.6831597222222  0.298295454545496 28.7369791666666  0.497159090909122 27.7213541666666  C 0.696022727272748 26.7057291666666  0.946969696969745 25.7638888888889  1.25 24.8958333333334  C 1.55303030303025 24.0277777777778  1.96022727272725 23.1814236111111  2.47159090909088 22.3567708333334  C 2.9829545454545 21.5321180555555  3.57007575757575 20.8289930555555  4.2329545454545 20.2473958333334  C 4.89583333333337 19.6657986111111  5.70549242424238 19.2013888888889  6.66193181818187 18.8541666666666  C 7.61837121212125 18.5069444444445  8.67424242424238 18.3333333333334  9.8295454545455 18.3333333333334  C 10 18.3333333333334  10.3977272727273 18.5199652777778  11.0227272727273 18.8932291666666  C 11.6477272727273 19.2664930555555  12.3532196969697 19.6831597222222  13.1392045454545 20.1432291666666  C 13.9251893939394 20.6032986111111  14.9479166666666 21.0199652777778  16.2073863636364 21.3932291666666  C 17.466856060606 21.7664930555555  18.7310606060605 21.953125  20 21.953125  C 21.2689393939395 21.953125  22.533143939394 21.7664930555555  23.7926136363637 21.3932291666666  C 25.0520833333333 21.0199652777778  26.0748106060605 20.6032986111111  26.8607954545455 20.1432291666666  C 27.6467803030303 19.6831597222222  28.3522727272727 19.2664930555555  28.9772727272727 18.8932291666666  C 29.6022727272727 18.5199652777778  30 18.3333333333334  30.1704545454545 18.3333333333334  C 31.3257575757575 18.3333333333334  32.3816287878788 18.5069444444445  33.3380681818182 18.8541666666666  C 34.2945075757575 19.2013888888889  35.1041666666667 19.6657986111111  35.7670454545455 20.2473958333334  C 36.4299242424242 20.8289930555555  37.0170454545455 21.5321180555555  37.528409090909 22.3567708333334  C 38.0397727272727 23.1814236111111  38.4469696969697 24.0277777777778  38.75 24.8958333333334  C 39.0530303030303 25.7638888888889  39.3039772727273 26.7057291666666  39.502840909091 27.7213541666666  C 39.7017045454545 28.7369791666666  39.8342803030303 29.6831597222222  39.9005681818182 30.5598958333334  Z M 27.7130681818182 2.9296875  C 29.84375 4.8828125  30.909090909091 7.23958333333337  30.909090909091 10  C 30.909090909091 12.7604166666666  29.84375 15.1171875  27.7130681818182 17.0703125  C 25.5823863636363 19.0234375  23.0113636363637 20  20 20  C 16.9886363636364 20  14.4176136363636 19.0234375  12.2869318181819 17.0703125  C 10.15625 15.1171875  9.09090909090912 12.7604166666666  9.09090909090912 10  C 9.09090909090912 7.23958333333337  10.15625 4.8828125  12.2869318181819 2.9296875  C 14.4176136363636 0.9765625  16.9886363636364 0  20 0  C 23.0113636363637 0  25.5823863636363 0.9765625  27.7130681818182 2.9296875  Z " fill-rule="nonzero" fill="#ffffff" stroke="none" transform="matrix(1 0 0 1 1007 255 )" />
    <path d="M 39.9005681818182 30.5598958333334  C 39.966856060606 31.4366319444445  40 32.3350694444445  40 33.2552083333334  C 40 35.3385416666666  39.308712121212 36.9835069444445  37.9261363636363 38.1901041666666  C 36.5435606060605 39.3967013888889  34.7064393939395 40  32.4147727272727 40  L 7.58522727272725 40  C 5.29356060606062 40  3.45643939393938 39.3967013888889  2.07386363636363 38.1901041666666  C 0.691287878787875 36.9835069444445  0 35.3385416666666  0 33.2552083333334  C 0 32.3350694444445  0.0331439393939945 31.4366319444445  0.0994318181818699 30.5598958333334  C 0.165719696969745 29.6831597222222  0.298295454545496 28.7369791666666  0.497159090909122 27.7213541666666  C 0.696022727272748 26.7057291666666  0.946969696969745 25.7638888888889  1.25 24.8958333333334  C 1.55303030303025 24.0277777777778  1.96022727272725 23.1814236111111  2.47159090909088 22.3567708333334  C 2.9829545454545 21.5321180555555  3.57007575757575 20.8289930555555  4.2329545454545 20.2473958333334  C 4.89583333333337 19.6657986111111  5.70549242424238 19.2013888888889  6.66193181818187 18.8541666666666  C 7.61837121212125 18.5069444444445  8.67424242424238 18.3333333333334  9.8295454545455 18.3333333333334  C 10 18.3333333333334  10.3977272727273 18.5199652777778  11.0227272727273 18.8932291666666  C 11.6477272727273 19.2664930555555  12.3532196969697 19.6831597222222  13.1392045454545 20.1432291666666  C 13.9251893939394 20.6032986111111  14.9479166666666 21.0199652777778  16.2073863636364 21.3932291666666  C 17.466856060606 21.7664930555555  18.7310606060605 21.953125  20 21.953125  C 21.2689393939395 21.953125  22.533143939394 21.7664930555555  23.7926136363637 21.3932291666666  C 25.0520833333333 21.0199652777778  26.0748106060605 20.6032986111111  26.8607954545455 20.1432291666666  C 27.6467803030303 19.6831597222222  28.3522727272727 19.2664930555555  28.9772727272727 18.8932291666666  C 29.6022727272727 18.5199652777778  30 18.3333333333334  30.1704545454545 18.3333333333334  C 31.3257575757575 18.3333333333334  32.3816287878788 18.5069444444445  33.3380681818182 18.8541666666666  C 34.2945075757575 19.2013888888889  35.1041666666667 19.6657986111111  35.7670454545455 20.2473958333334  C 36.4299242424242 20.8289930555555  37.0170454545455 21.5321180555555  37.528409090909 22.3567708333334  C 38.0397727272727 23.1814236111111  38.4469696969697 24.0277777777778  38.75 24.8958333333334  C 39.0530303030303 25.7638888888889  39.3039772727273 26.7057291666666  39.502840909091 27.7213541666666  C 39.7017045454545 28.7369791666666  39.8342803030303 29.6831597222222  39.9005681818182 30.5598958333334  Z " stroke-width="6" stroke="#9900cc" fill="none" transform="matrix(1 0 0 1 1007 255 )" mask="url(#clip93)" />
    <path d="M 27.7130681818182 2.9296875  C 29.84375 4.8828125  30.909090909091 7.23958333333337  30.909090909091 10  C 30.909090909091 12.7604166666666  29.84375 15.1171875  27.7130681818182 17.0703125  C 25.5823863636363 19.0234375  23.0113636363637 20  20 20  C 16.9886363636364 20  14.4176136363636 19.0234375  12.2869318181819 17.0703125  C 10.15625 15.1171875  9.09090909090912 12.7604166666666  9.09090909090912 10  C 9.09090909090912 7.23958333333337  10.15625 4.8828125  12.2869318181819 2.9296875  C 14.4176136363636 0.9765625  16.9886363636364 0  20 0  C 23.0113636363637 0  25.5823863636363 0.9765625  27.7130681818182 2.9296875  Z " stroke-width="6" stroke="#9900cc" fill="none" transform="matrix(1 0 0 1 1007 255 )" mask="url(#clip93)" />
  </g>
</svg>