<?xml version="1.0" encoding="utf-8"?>
<svg version="1.1" xmlns:xlink="http://www.w3.org/1999/xlink" width="20px" height="20px" xmlns="http://www.w3.org/2000/svg">
  <defs>
    <mask fill="white" id="clip95">
      <path d="M 9.5263671875 8.53515625  C 8.7939453125 9.51171875  7.91015625 10  6.875 10  C 5.83984375 10  4.9560546875 9.51171875  4.2236328125 8.53515625  C 3.4912109375 7.55859375  3.125 6.38020833333331  3.125 5  C 3.125 3.61979166666669  3.4912109375 2.44140625  4.2236328125 1.46484375  C 4.9560546875 0.48828125  5.83984375 0  6.875 0  C 7.91015625 0  8.7939453125 0.48828125  9.5263671875 1.46484375  C 10.2587890625 2.44140625  10.625 3.61979166666669  10.625 5  C 10.625 6.38020833333331  10.2587890625 7.55859375  9.5263671875 8.53515625  Z M 16.25 7.08333333333331  L 16.25 11.6666666666667  L 19.6875 11.6666666666667  C 19.7721354166667 11.6666666666667  19.8453776041667 11.7078993055555  19.9072265625 11.7903645833333  C 19.9690755208333 11.8728298611111  20 11.9704861111111  20 12.0833333333333  L 20 14.5833333333333  C 20 14.6961805555555  19.9690755208333 14.7938368055555  19.9072265625 14.8763020833333  C 19.8453776041667 14.9587673611111  19.7721354166667 15  19.6875 15  L 16.25 15  L 16.25 19.5833333333333  C 16.25 19.6961805555555  16.2190755208333 19.7938368055555  16.1572265625 19.8763020833333  C 16.0953776041667 19.9587673611111  16.0221354166667 20  15.9375 20  L 14.0625 20  C 13.9778645833333 20  13.9046223958333 19.9587673611111  13.8427734375 19.8763020833333  C 13.7809244791667 19.7938368055555  13.75 19.6961805555555  13.75 19.5833333333333  L 13.75 15  L 10.3125 15  C 10.2278645833333 15  10.1546223958333 14.9587673611111  10.0927734375 14.8763020833333  C 10.0309244791667 14.7938368055555  10 14.6961805555555  10 14.5833333333333  L 10 12.0833333333333  C 10 11.9704861111111  10.0309244791667 11.8728298611111  10.0927734375 11.7903645833333  C 10.1546223958333 11.7078993055555  10.2278645833333 11.6666666666667  10.3125 11.6666666666667  L 13.75 11.6666666666667  L 13.75 7.08333333333331  C 13.75 6.97048611111109  13.7809244791667 6.87282986111109  13.8427734375 6.79036458333331  C 13.9046223958333 6.70789930555554  13.9778645833333 6.66666666666669  14.0625 6.66666666666669  L 15.9375 6.66666666666669  C 16.0221354166667 6.66666666666669  16.0953776041667 6.70789930555554  16.1572265625 6.79036458333331  C 16.2190755208333 6.87282986111109  16.25 6.97048611111109  16.25 7.08333333333331  Z M 9.0625 12.0833333333333  L 9.0625 14.5833333333333  C 9.0625 15.0347222222222  9.18619791666674 15.4253472222222  9.43359375 15.7552083333333  C 9.68098958333326 16.0850694444445  9.97395833333326 16.25  10.3125 16.25  L 12.8125 16.25  L 12.8125 19.3489583333333  C 12.3697916666667 19.7829861111111  11.8131510416667 20  11.142578125 20  L 2.607421875 20  C 1.81966145833326 20  1.18815104166674 19.7005208333333  0.712890625 19.1015625  C 0.237630208333258 18.5026041666667  0 17.6779513888889  0 16.6276041666667  C 0 16.1675347222222  0.0113932291667425 15.7183159722222  0.0341796875 15.2799479166667  C 0.0569661458332575 14.8415798611111  0.1025390625 14.3684895833333  0.1708984375 13.8606770833333  C 0.2392578125 13.3528645833333  0.325520833333258 12.8819444444445  0.4296875 12.4479166666667  C 0.533854166666742 12.0138888888889  0.673828125 11.5907118055555  0.849609375 11.1783854166667  C 1.025390625 10.7660590277778  1.22721354166674 10.4144965277778  1.455078125 10.1236979166667  C 1.68294270833326 9.83289930555554  1.96126302083326 9.60069444444446  2.2900390625 9.42708333333331  C 2.61881510416674 9.25347222222223  2.98177083333326 9.16666666666669  3.37890625 9.16666666666669  C 3.50260416666674 9.16666666666669  3.62955729166674 9.24045138888891  3.759765625 9.38802083333331  C 4.27408854166674 9.91753472222223  4.77701822916674 10.3146701388889  5.2685546875 10.5794270833333  C 5.76009114583326 10.8441840277778  6.29557291666674 10.9765625  6.875 10.9765625  C 7.45442708333326 10.9765625  7.98990885416674 10.8441840277778  8.4814453125 10.5794270833333  C 8.97298177083326 10.3146701388889  9.47591145833326 9.91753472222223  9.990234375 9.38802083333331  C 10.1204427083333 9.24045138888891  10.2473958333333 9.16666666666669  10.37109375 9.16666666666669  C 11.23046875 9.16666666666669  11.9368489583333 9.58333333333331  12.490234375 10.4166666666667  L 10.3125 10.4166666666667  C 9.97395833333326 10.4166666666667  9.68098958333326 10.5815972222222  9.43359375 10.9114583333333  C 9.18619791666674 11.2413194444445  9.0625 11.6319444444445  9.0625 12.0833333333333  Z " fill-rule="evenodd" />
    </mask>
  </defs>
  <g transform="matrix(1 0 0 1 -1176 -269 )">
    <path d="M 9.5263671875 8.53515625  C 8.7939453125 9.51171875  7.91015625 10  6.875 10  C 5.83984375 10  4.9560546875 9.51171875  4.2236328125 8.53515625  C 3.4912109375 7.55859375  3.125 6.38020833333331  3.125 5  C 3.125 3.61979166666669  3.4912109375 2.44140625  4.2236328125 1.46484375  C 4.9560546875 0.48828125  5.83984375 0  6.875 0  C 7.91015625 0  8.7939453125 0.48828125  9.5263671875 1.46484375  C 10.2587890625 2.44140625  10.625 3.61979166666669  10.625 5  C 10.625 6.38020833333331  10.2587890625 7.55859375  9.5263671875 8.53515625  Z M 16.25 7.08333333333331  L 16.25 11.6666666666667  L 19.6875 11.6666666666667  C 19.7721354166667 11.6666666666667  19.8453776041667 11.7078993055555  19.9072265625 11.7903645833333  C 19.9690755208333 11.8728298611111  20 11.9704861111111  20 12.0833333333333  L 20 14.5833333333333  C 20 14.6961805555555  19.9690755208333 14.7938368055555  19.9072265625 14.8763020833333  C 19.8453776041667 14.9587673611111  19.7721354166667 15  19.6875 15  L 16.25 15  L 16.25 19.5833333333333  C 16.25 19.6961805555555  16.2190755208333 19.7938368055555  16.1572265625 19.8763020833333  C 16.0953776041667 19.9587673611111  16.0221354166667 20  15.9375 20  L 14.0625 20  C 13.9778645833333 20  13.9046223958333 19.9587673611111  13.8427734375 19.8763020833333  C 13.7809244791667 19.7938368055555  13.75 19.6961805555555  13.75 19.5833333333333  L 13.75 15  L 10.3125 15  C 10.2278645833333 15  10.1546223958333 14.9587673611111  10.0927734375 14.8763020833333  C 10.0309244791667 14.7938368055555  10 14.6961805555555  10 14.5833333333333  L 10 12.0833333333333  C 10 11.9704861111111  10.0309244791667 11.8728298611111  10.0927734375 11.7903645833333  C 10.1546223958333 11.7078993055555  10.2278645833333 11.6666666666667  10.3125 11.6666666666667  L 13.75 11.6666666666667  L 13.75 7.08333333333331  C 13.75 6.97048611111109  13.7809244791667 6.87282986111109  13.8427734375 6.79036458333331  C 13.9046223958333 6.70789930555554  13.9778645833333 6.66666666666669  14.0625 6.66666666666669  L 15.9375 6.66666666666669  C 16.0221354166667 6.66666666666669  16.0953776041667 6.70789930555554  16.1572265625 6.79036458333331  C 16.2190755208333 6.87282986111109  16.25 6.97048611111109  16.25 7.08333333333331  Z M 9.0625 12.0833333333333  L 9.0625 14.5833333333333  C 9.0625 15.0347222222222  9.18619791666674 15.4253472222222  9.43359375 15.7552083333333  C 9.68098958333326 16.0850694444445  9.97395833333326 16.25  10.3125 16.25  L 12.8125 16.25  L 12.8125 19.3489583333333  C 12.3697916666667 19.7829861111111  11.8131510416667 20  11.142578125 20  L 2.607421875 20  C 1.81966145833326 20  1.18815104166674 19.7005208333333  0.712890625 19.1015625  C 0.237630208333258 18.5026041666667  0 17.6779513888889  0 16.6276041666667  C 0 16.1675347222222  0.0113932291667425 15.7183159722222  0.0341796875 15.2799479166667  C 0.0569661458332575 14.8415798611111  0.1025390625 14.3684895833333  0.1708984375 13.8606770833333  C 0.2392578125 13.3528645833333  0.325520833333258 12.8819444444445  0.4296875 12.4479166666667  C 0.533854166666742 12.0138888888889  0.673828125 11.5907118055555  0.849609375 11.1783854166667  C 1.025390625 10.7660590277778  1.22721354166674 10.4144965277778  1.455078125 10.1236979166667  C 1.68294270833326 9.83289930555554  1.96126302083326 9.60069444444446  2.2900390625 9.42708333333331  C 2.61881510416674 9.25347222222223  2.98177083333326 9.16666666666669  3.37890625 9.16666666666669  C 3.50260416666674 9.16666666666669  3.62955729166674 9.24045138888891  3.759765625 9.38802083333331  C 4.27408854166674 9.91753472222223  4.77701822916674 10.3146701388889  5.2685546875 10.5794270833333  C 5.76009114583326 10.8441840277778  6.29557291666674 10.9765625  6.875 10.9765625  C 7.45442708333326 10.9765625  7.98990885416674 10.8441840277778  8.4814453125 10.5794270833333  C 8.97298177083326 10.3146701388889  9.47591145833326 9.91753472222223  9.990234375 9.38802083333331  C 10.1204427083333 9.24045138888891  10.2473958333333 9.16666666666669  10.37109375 9.16666666666669  C 11.23046875 9.16666666666669  11.9368489583333 9.58333333333331  12.490234375 10.4166666666667  L 10.3125 10.4166666666667  C 9.97395833333326 10.4166666666667  9.68098958333326 10.5815972222222  9.43359375 10.9114583333333  C 9.18619791666674 11.2413194444445  9.0625 11.6319444444445  9.0625 12.0833333333333  Z " fill-rule="nonzero" fill="#00cc00" stroke="none" transform="matrix(1 0 0 1 1176 269 )" />
    <path d="M 9.5263671875 8.53515625  C 8.7939453125 9.51171875  7.91015625 10  6.875 10  C 5.83984375 10  4.9560546875 9.51171875  4.2236328125 8.53515625  C 3.4912109375 7.55859375  3.125 6.38020833333331  3.125 5  C 3.125 3.61979166666669  3.4912109375 2.44140625  4.2236328125 1.46484375  C 4.9560546875 0.48828125  5.83984375 0  6.875 0  C 7.91015625 0  8.7939453125 0.48828125  9.5263671875 1.46484375  C 10.2587890625 2.44140625  10.625 3.61979166666669  10.625 5  C 10.625 6.38020833333331  10.2587890625 7.55859375  9.5263671875 8.53515625  Z " stroke-width="2" stroke="#009900" fill="none" transform="matrix(1 0 0 1 1176 269 )" mask="url(#clip95)" />
    <path d="M 16.25 7.08333333333331  L 16.25 11.6666666666667  L 19.6875 11.6666666666667  C 19.7721354166667 11.6666666666667  19.8453776041667 11.7078993055555  19.9072265625 11.7903645833333  C 19.9690755208333 11.8728298611111  20 11.9704861111111  20 12.0833333333333  L 20 14.5833333333333  C 20 14.6961805555555  19.9690755208333 14.7938368055555  19.9072265625 14.8763020833333  C 19.8453776041667 14.9587673611111  19.7721354166667 15  19.6875 15  L 16.25 15  L 16.25 19.5833333333333  C 16.25 19.6961805555555  16.2190755208333 19.7938368055555  16.1572265625 19.8763020833333  C 16.0953776041667 19.9587673611111  16.0221354166667 20  15.9375 20  L 14.0625 20  C 13.9778645833333 20  13.9046223958333 19.9587673611111  13.8427734375 19.8763020833333  C 13.7809244791667 19.7938368055555  13.75 19.6961805555555  13.75 19.5833333333333  L 13.75 15  L 10.3125 15  C 10.2278645833333 15  10.1546223958333 14.9587673611111  10.0927734375 14.8763020833333  C 10.0309244791667 14.7938368055555  10 14.6961805555555  10 14.5833333333333  L 10 12.0833333333333  C 10 11.9704861111111  10.0309244791667 11.8728298611111  10.0927734375 11.7903645833333  C 10.1546223958333 11.7078993055555  10.2278645833333 11.6666666666667  10.3125 11.6666666666667  L 13.75 11.6666666666667  L 13.75 7.08333333333331  C 13.75 6.97048611111109  13.7809244791667 6.87282986111109  13.8427734375 6.79036458333331  C 13.9046223958333 6.70789930555554  13.9778645833333 6.66666666666669  14.0625 6.66666666666669  L 15.9375 6.66666666666669  C 16.0221354166667 6.66666666666669  16.0953776041667 6.70789930555554  16.1572265625 6.79036458333331  C 16.2190755208333 6.87282986111109  16.25 6.97048611111109  16.25 7.08333333333331  Z " stroke-width="2" stroke="#009900" fill="none" transform="matrix(1 0 0 1 1176 269 )" mask="url(#clip95)" />
    <path d="M 9.0625 12.0833333333333  L 9.0625 14.5833333333333  C 9.0625 15.0347222222222  9.18619791666674 15.4253472222222  9.43359375 15.7552083333333  C 9.68098958333326 16.0850694444445  9.97395833333326 16.25  10.3125 16.25  L 12.8125 16.25  L 12.8125 19.3489583333333  C 12.3697916666667 19.7829861111111  11.8131510416667 20  11.142578125 20  L 2.607421875 20  C 1.81966145833326 20  1.18815104166674 19.7005208333333  0.712890625 19.1015625  C 0.237630208333258 18.5026041666667  0 17.6779513888889  0 16.6276041666667  C 0 16.1675347222222  0.0113932291667425 15.7183159722222  0.0341796875 15.2799479166667  C 0.0569661458332575 14.8415798611111  0.1025390625 14.3684895833333  0.1708984375 13.8606770833333  C 0.2392578125 13.3528645833333  0.325520833333258 12.8819444444445  0.4296875 12.4479166666667  C 0.533854166666742 12.0138888888889  0.673828125 11.5907118055555  0.849609375 11.1783854166667  C 1.025390625 10.7660590277778  1.22721354166674 10.4144965277778  1.455078125 10.1236979166667  C 1.68294270833326 9.83289930555554  1.96126302083326 9.60069444444446  2.2900390625 9.42708333333331  C 2.61881510416674 9.25347222222223  2.98177083333326 9.16666666666669  3.37890625 9.16666666666669  C 3.50260416666674 9.16666666666669  3.62955729166674 9.24045138888891  3.759765625 9.38802083333331  C 4.27408854166674 9.91753472222223  4.77701822916674 10.3146701388889  5.2685546875 10.5794270833333  C 5.76009114583326 10.8441840277778  6.29557291666674 10.9765625  6.875 10.9765625  C 7.45442708333326 10.9765625  7.98990885416674 10.8441840277778  8.4814453125 10.5794270833333  C 8.97298177083326 10.3146701388889  9.47591145833326 9.91753472222223  9.990234375 9.38802083333331  C 10.1204427083333 9.24045138888891  10.2473958333333 9.16666666666669  10.37109375 9.16666666666669  C 11.23046875 9.16666666666669  11.9368489583333 9.58333333333331  12.490234375 10.4166666666667  L 10.3125 10.4166666666667  C 9.97395833333326 10.4166666666667  9.68098958333326 10.5815972222222  9.43359375 10.9114583333333  C 9.18619791666674 11.2413194444445  9.0625 11.6319444444445  9.0625 12.0833333333333  Z " stroke-width="2" stroke="#009900" fill="none" transform="matrix(1 0 0 1 1176 269 )" mask="url(#clip95)" />
  </g>
</svg>