<?xml version="1.0" encoding="utf-8"?>
<svg version="1.1" xmlns:xlink="http://www.w3.org/1999/xlink" width="29px" height="20px" xmlns="http://www.w3.org/2000/svg">
  <defs>
    <mask fill="white" id="clip96">
      <path d="M 18.7083333333335 5.71428571428575  C 19.0098578376353 5.71428571428575  19.2585918103082 5.87530291761291  19.4545454545455 6.19733732430026  L 19.4545454545455 5.02272727272728  C 19.4545454545455 4.73863636363637  19.5539772727273 4.49715909090912  19.752840909091 4.29829545454544  C 19.9517045454545 4.09943181818181  20.193181818182 4  20.4772727272725 4  L 22.5227272727275 4  C 22.806818181818 4  23.0482954545455 4.09943181818181  23.247159090909 4.29829545454544  C 23.4460227272727 4.49715909090912  23.5454545454545 4.73863636363637  23.5454545454545 5.02272727272728  L 23.5454545454545 9.45454545454544  L 27.9772727272725 9.45454545454544  C 28.2613636363635 9.45454545454544  28.5028409090908 9.55397727272725  28.7017045454545 9.75284090909093  C 28.900568181818 9.95170454545456  29 10.1931818181818  29 10.4772727272727  L 29 12.5227272727273  C 29 12.8068181818182  28.900568181818 13.0482954545454  28.7017045454545 13.2471590909091  C 28.5028409090908 13.4460227272727  28.2613636363635 13.5454545454546  27.9772727272725 13.5454545454546  L 23.5454545454545 13.5454545454546  L 23.5454545454545 17.9772727272727  C 23.5454545454545 18.2613636363636  23.4460227272727 18.5028409090909  23.247159090909 18.7017045454546  C 23.0482954545455 18.9005681818182  22.806818181818 19  22.5227272727275 19  L 20.4772727272725 19  C 20.193181818182 19  19.9517045454545 18.9005681818182  19.752840909091 18.7017045454546  C 19.5539772727273 18.5028409090909  19.4545454545455 18.2613636363636  19.4545454545455 17.9772727272727  L 19.4545454545455 13.5454545454546  L 16.875 13.5267857142858  C 16.9861111111111 13.8988095238095  17.078125 14.3024553571429  17.1510416666665 14.7377232142858  C 17.2239583333335 15.1729910714286  17.2725694444443 15.5784970238095  17.296875 15.9542410714286  C 17.3211805555557 16.3299851190476  17.3333333333335 16.7150297619048  17.3333333333335 17.109375  C 17.3333333333335 18.0022321428571  17.0798611111111 18.7072172619048  16.5729166666665 19.2243303571429  C 16.0659722222222 19.741443452381  15.3923611111111 20  14.5520833333335 20  L 5.44791666666674 20  C 4.60763888888891 20  3.93402777777783 19.741443452381  3.42708333333326 19.2243303571429  C 2.92013888888891 18.7072172619048  2.66666666666674 18.0022321428571  2.66666666666674 17.109375  C 2.66666666666674 16.7150297619048  2.67881944444434 16.3299851190476  2.703125 15.9542410714286  C 2.72743055555566 15.5784970238095  2.77604166666674 15.1729910714286  2.84895833333326 14.7377232142858  C 2.921875 14.3024553571429  3.01388888888891 13.8988095238095  3.125 13.5267857142858  C 3.23611111111109 13.1547619047619  3.38541666666674 12.7920386904763  3.57291666666674 12.4386160714286  C 3.76041666666674 12.085193452381  3.97569444444434 11.7838541666666  4.21875 11.5345982142858  C 4.46180555555566 11.2853422619048  4.75868055555566 11.0863095238095  5.109375 10.9375  C 5.46006944444434 10.7886904761905  5.84722222222217 10.7142857142858  6.27083333333326 10.7142857142858  C 6.34027777777783 10.7142857142858  6.48958333333326 10.7942708333334  6.71875 10.9542410714286  C 6.94791666666674 11.1142113095237  7.20138888888891 11.2927827380952  7.47916666666674 11.4899553571429  C 7.75694444444434 11.6871279761905  8.12847222222217 11.8656994047619  8.59375 12.0256696428571  C 9.05902777777783 12.1856398809524  9.52777777777783 12.265625  10 12.265625  C 10.4722222222222 12.265625  10.9409722222222 12.1856398809524  11.40625 12.0256696428571  C 11.8715277777778 11.8656994047619  12.2430555555557 11.6871279761905  12.5208333333335 11.4899553571429  C 12.7986111111111 11.2927827380952  13.0520833333335 11.1142113095237  13.28125 10.9542410714286  C 13.5104166666665 10.7942708333334  13.6597222222222 10.7142857142858  13.7291666666665 10.7142857142858  C 13.8211639943574 10.7142857142858  13.9114417809906 10.7177949817509  14 10.7248135168454  L 14 10.4772727272727  C 14 10.3096257171692  14.0346260006359 10.156818421624  14.103877956361 10.0188508178491  C 14.0116886685198 10.0094290503486  13.9180349052883 10.0031454443989  13.8229166666665 10  C 14.3854166666665 9.12946428571425  14.6666666666665 8.17708333333337  14.6666666666665 7.14285714285714  C 14.6666666666665 6.92708333333337  14.6493055555557 6.68154761904762  14.6145833333335 6.40625  C 15.0729166666665 6.57738095238102  15.5347222222222 6.66294642857139  16 6.66294642857139  C 16.4097222222222 6.66294642857139  16.8229166666665 6.5829613095238  17.2395833333335 6.42299107142861  C 17.65625 6.26302083333337  17.9947916666665 6.10491071428575  18.2552083333335 5.94866071428575  C 18.515625 5.79241071428575  18.6666666666665 5.71428571428575  18.7083333333335 5.71428571428575  Z M 14.1145833333335 0.837053571428584  C 14.6354166666665 0.279017857142861  15.2638888888889 0  16 0  C 16.7361111111111 0  17.3645833333335 0.279017857142861  17.8854166666665 0.837053571428584  C 18.40625 1.39508928571425  18.6666666666665 2.06845238095238  18.6666666666665 2.85714285714286  C 18.6666666666665 3.64583333333337  18.40625 4.31919642857142  17.8854166666665 4.87723214285714  C 17.3645833333335 5.43526785714286  16.7361111111111 5.71428571428575  16 5.71428571428575  C 15.2638888888889 5.71428571428575  14.6354166666665 5.43526785714286  14.1145833333335 4.87723214285714  C 13.59375 4.31919642857142  13.3333333333335 3.64583333333337  13.3333333333335 2.85714285714286  C 13.3333333333335 2.06845238095238  13.59375 1.39508928571425  14.1145833333335 0.837053571428584  Z M 7.171875 4.11272321428575  C 7.953125 3.27566964285714  8.89583333333348 2.85714285714286  10 2.85714285714286  C 11.1041666666665 2.85714285714286  12.046875 3.27566964285714  12.828125 4.11272321428575  C 13.609375 4.94977678571425  14 5.95982142857139  14 7.14285714285714  C 14 8.32589285714286  13.609375 9.3359375  12.828125 10.1729910714286  C 12.046875 11.0100446428571  11.1041666666665 11.4285714285714  10 11.4285714285714  C 8.89583333333348 11.4285714285714  7.953125 11.0100446428571  7.171875 10.1729910714286  C 6.390625 9.3359375  6 8.32589285714286  6 7.14285714285714  C 6 5.95982142857139  6.390625 4.94977678571425  7.171875 4.11272321428575  Z M 4 6.66294642857139  C 4.46527777777783 6.66294642857139  4.92708333333326 6.57738095238102  5.38541666666674 6.40625  C 5.35069444444434 6.68154761904762  5.33333333333326 6.92708333333337  5.33333333333326 7.14285714285714  C 5.33333333333326 8.17708333333337  5.61458333333326 9.12946428571425  6.17708333333326 10  C 5.05208333333326 10.0372023809524  4.13194444444434 10.5133928571429  3.41666666666674 11.4285714285714  L 2.02083333333326 11.4285714285714  C 1.45138888888891 11.4285714285714  0.972222222222172 11.2779017857142  0.583333333333258 10.9765625  C 0.194444444444343 10.6752232142858  0 10.234375  0 9.65401785714286  C 0 7.02752976190476  0.430555555555657 5.71428571428575  1.29166666666674 5.71428571428575  C 1.33333333333326 5.71428571428575  1.484375 5.79241071428575  1.74479166666674 5.94866071428575  C 2.00520833333326 6.10491071428575  2.34375 6.26302083333337  2.76041666666674 6.42299107142861  C 3.17708333333326 6.5829613095238  3.59027777777783 6.66294642857139  4 6.66294642857139  Z M 2.11458333333326 0.837053571428584  C 2.63541666666674 0.279017857142861  3.26388888888891 0  4 0  C 4.73611111111109 0  5.36458333333326 0.279017857142861  5.88541666666674 0.837053571428584  C 6.40625 1.39508928571425  6.66666666666674 2.06845238095238  6.66666666666674 2.85714285714286  C 6.66666666666674 3.64583333333337  6.40625 4.31919642857142  5.88541666666674 4.87723214285714  C 5.36458333333326 5.43526785714286  4.73611111111109 5.71428571428575  4 5.71428571428575  C 3.26388888888891 5.71428571428575  2.63541666666674 5.43526785714286  2.11458333333326 4.87723214285714  C 1.59375 4.31919642857142  1.33333333333326 3.64583333333337  1.33333333333326 2.85714285714286  C 1.33333333333326 2.06845238095238  1.59375 1.39508928571425  2.11458333333326 0.837053571428584  Z " fill-rule="evenodd" />
    </mask>
  </defs>
  <g transform="matrix(1 0 0 1 -1175 -209 )">
    <path d="M 18.7083333333335 5.71428571428575  C 19.0098578376353 5.71428571428575  19.2585918103082 5.87530291761291  19.4545454545455 6.19733732430026  L 19.4545454545455 5.02272727272728  C 19.4545454545455 4.73863636363637  19.5539772727273 4.49715909090912  19.752840909091 4.29829545454544  C 19.9517045454545 4.09943181818181  20.193181818182 4  20.4772727272725 4  L 22.5227272727275 4  C 22.806818181818 4  23.0482954545455 4.09943181818181  23.247159090909 4.29829545454544  C 23.4460227272727 4.49715909090912  23.5454545454545 4.73863636363637  23.5454545454545 5.02272727272728  L 23.5454545454545 9.45454545454544  L 27.9772727272725 9.45454545454544  C 28.2613636363635 9.45454545454544  28.5028409090908 9.55397727272725  28.7017045454545 9.75284090909093  C 28.900568181818 9.95170454545456  29 10.1931818181818  29 10.4772727272727  L 29 12.5227272727273  C 29 12.8068181818182  28.900568181818 13.0482954545454  28.7017045454545 13.2471590909091  C 28.5028409090908 13.4460227272727  28.2613636363635 13.5454545454546  27.9772727272725 13.5454545454546  L 23.5454545454545 13.5454545454546  L 23.5454545454545 17.9772727272727  C 23.5454545454545 18.2613636363636  23.4460227272727 18.5028409090909  23.247159090909 18.7017045454546  C 23.0482954545455 18.9005681818182  22.806818181818 19  22.5227272727275 19  L 20.4772727272725 19  C 20.193181818182 19  19.9517045454545 18.9005681818182  19.752840909091 18.7017045454546  C 19.5539772727273 18.5028409090909  19.4545454545455 18.2613636363636  19.4545454545455 17.9772727272727  L 19.4545454545455 13.5454545454546  L 16.875 13.5267857142858  C 16.9861111111111 13.8988095238095  17.078125 14.3024553571429  17.1510416666665 14.7377232142858  C 17.2239583333335 15.1729910714286  17.2725694444443 15.5784970238095  17.296875 15.9542410714286  C 17.3211805555557 16.3299851190476  17.3333333333335 16.7150297619048  17.3333333333335 17.109375  C 17.3333333333335 18.0022321428571  17.0798611111111 18.7072172619048  16.5729166666665 19.2243303571429  C 16.0659722222222 19.741443452381  15.3923611111111 20  14.5520833333335 20  L 5.44791666666674 20  C 4.60763888888891 20  3.93402777777783 19.741443452381  3.42708333333326 19.2243303571429  C 2.92013888888891 18.7072172619048  2.66666666666674 18.0022321428571  2.66666666666674 17.109375  C 2.66666666666674 16.7150297619048  2.67881944444434 16.3299851190476  2.703125 15.9542410714286  C 2.72743055555566 15.5784970238095  2.77604166666674 15.1729910714286  2.84895833333326 14.7377232142858  C 2.921875 14.3024553571429  3.01388888888891 13.8988095238095  3.125 13.5267857142858  C 3.23611111111109 13.1547619047619  3.38541666666674 12.7920386904763  3.57291666666674 12.4386160714286  C 3.76041666666674 12.085193452381  3.97569444444434 11.7838541666666  4.21875 11.5345982142858  C 4.46180555555566 11.2853422619048  4.75868055555566 11.0863095238095  5.109375 10.9375  C 5.46006944444434 10.7886904761905  5.84722222222217 10.7142857142858  6.27083333333326 10.7142857142858  C 6.34027777777783 10.7142857142858  6.48958333333326 10.7942708333334  6.71875 10.9542410714286  C 6.94791666666674 11.1142113095237  7.20138888888891 11.2927827380952  7.47916666666674 11.4899553571429  C 7.75694444444434 11.6871279761905  8.12847222222217 11.8656994047619  8.59375 12.0256696428571  C 9.05902777777783 12.1856398809524  9.52777777777783 12.265625  10 12.265625  C 10.4722222222222 12.265625  10.9409722222222 12.1856398809524  11.40625 12.0256696428571  C 11.8715277777778 11.8656994047619  12.2430555555557 11.6871279761905  12.5208333333335 11.4899553571429  C 12.7986111111111 11.2927827380952  13.0520833333335 11.1142113095237  13.28125 10.9542410714286  C 13.5104166666665 10.7942708333334  13.6597222222222 10.7142857142858  13.7291666666665 10.7142857142858  C 13.8211639943574 10.7142857142858  13.9114417809906 10.7177949817509  14 10.7248135168454  L 14 10.4772727272727  C 14 10.3096257171692  14.0346260006359 10.156818421624  14.103877956361 10.0188508178491  C 14.0116886685198 10.0094290503486  13.9180349052883 10.0031454443989  13.8229166666665 10  C 14.3854166666665 9.12946428571425  14.6666666666665 8.17708333333337  14.6666666666665 7.14285714285714  C 14.6666666666665 6.92708333333337  14.6493055555557 6.68154761904762  14.6145833333335 6.40625  C 15.0729166666665 6.57738095238102  15.5347222222222 6.66294642857139  16 6.66294642857139  C 16.4097222222222 6.66294642857139  16.8229166666665 6.5829613095238  17.2395833333335 6.42299107142861  C 17.65625 6.26302083333337  17.9947916666665 6.10491071428575  18.2552083333335 5.94866071428575  C 18.515625 5.79241071428575  18.6666666666665 5.71428571428575  18.7083333333335 5.71428571428575  Z M 14.1145833333335 0.837053571428584  C 14.6354166666665 0.279017857142861  15.2638888888889 0  16 0  C 16.7361111111111 0  17.3645833333335 0.279017857142861  17.8854166666665 0.837053571428584  C 18.40625 1.39508928571425  18.6666666666665 2.06845238095238  18.6666666666665 2.85714285714286  C 18.6666666666665 3.64583333333337  18.40625 4.31919642857142  17.8854166666665 4.87723214285714  C 17.3645833333335 5.43526785714286  16.7361111111111 5.71428571428575  16 5.71428571428575  C 15.2638888888889 5.71428571428575  14.6354166666665 5.43526785714286  14.1145833333335 4.87723214285714  C 13.59375 4.31919642857142  13.3333333333335 3.64583333333337  13.3333333333335 2.85714285714286  C 13.3333333333335 2.06845238095238  13.59375 1.39508928571425  14.1145833333335 0.837053571428584  Z M 7.171875 4.11272321428575  C 7.953125 3.27566964285714  8.89583333333348 2.85714285714286  10 2.85714285714286  C 11.1041666666665 2.85714285714286  12.046875 3.27566964285714  12.828125 4.11272321428575  C 13.609375 4.94977678571425  14 5.95982142857139  14 7.14285714285714  C 14 8.32589285714286  13.609375 9.3359375  12.828125 10.1729910714286  C 12.046875 11.0100446428571  11.1041666666665 11.4285714285714  10 11.4285714285714  C 8.89583333333348 11.4285714285714  7.953125 11.0100446428571  7.171875 10.1729910714286  C 6.390625 9.3359375  6 8.32589285714286  6 7.14285714285714  C 6 5.95982142857139  6.390625 4.94977678571425  7.171875 4.11272321428575  Z M 4 6.66294642857139  C 4.46527777777783 6.66294642857139  4.92708333333326 6.57738095238102  5.38541666666674 6.40625  C 5.35069444444434 6.68154761904762  5.33333333333326 6.92708333333337  5.33333333333326 7.14285714285714  C 5.33333333333326 8.17708333333337  5.61458333333326 9.12946428571425  6.17708333333326 10  C 5.05208333333326 10.0372023809524  4.13194444444434 10.5133928571429  3.41666666666674 11.4285714285714  L 2.02083333333326 11.4285714285714  C 1.45138888888891 11.4285714285714  0.972222222222172 11.2779017857142  0.583333333333258 10.9765625  C 0.194444444444343 10.6752232142858  0 10.234375  0 9.65401785714286  C 0 7.02752976190476  0.430555555555657 5.71428571428575  1.29166666666674 5.71428571428575  C 1.33333333333326 5.71428571428575  1.484375 5.79241071428575  1.74479166666674 5.94866071428575  C 2.00520833333326 6.10491071428575  2.34375 6.26302083333337  2.76041666666674 6.42299107142861  C 3.17708333333326 6.5829613095238  3.59027777777783 6.66294642857139  4 6.66294642857139  Z M 2.11458333333326 0.837053571428584  C 2.63541666666674 0.279017857142861  3.26388888888891 0  4 0  C 4.73611111111109 0  5.36458333333326 0.279017857142861  5.88541666666674 0.837053571428584  C 6.40625 1.39508928571425  6.66666666666674 2.06845238095238  6.66666666666674 2.85714285714286  C 6.66666666666674 3.64583333333337  6.40625 4.31919642857142  5.88541666666674 4.87723214285714  C 5.36458333333326 5.43526785714286  4.73611111111109 5.71428571428575  4 5.71428571428575  C 3.26388888888891 5.71428571428575  2.63541666666674 5.43526785714286  2.11458333333326 4.87723214285714  C 1.59375 4.31919642857142  1.33333333333326 3.64583333333337  1.33333333333326 2.85714285714286  C 1.33333333333326 2.06845238095238  1.59375 1.39508928571425  2.11458333333326 0.837053571428584  Z " fill-rule="nonzero" fill="#00cc00" stroke="none" transform="matrix(1 0 0 1 1175 209 )" />
    <path d="M 18.7083333333335 5.71428571428575  C 19.0098578376353 5.71428571428575  19.2585918103082 5.87530291761291  19.4545454545455 6.19733732430026  L 19.4545454545455 5.02272727272728  C 19.4545454545455 4.73863636363637  19.5539772727273 4.49715909090912  19.752840909091 4.29829545454544  C 19.9517045454545 4.09943181818181  20.193181818182 4  20.4772727272725 4  L 22.5227272727275 4  C 22.806818181818 4  23.0482954545455 4.09943181818181  23.247159090909 4.29829545454544  C 23.4460227272727 4.49715909090912  23.5454545454545 4.73863636363637  23.5454545454545 5.02272727272728  L 23.5454545454545 9.45454545454544  L 27.9772727272725 9.45454545454544  C 28.2613636363635 9.45454545454544  28.5028409090908 9.55397727272725  28.7017045454545 9.75284090909093  C 28.900568181818 9.95170454545456  29 10.1931818181818  29 10.4772727272727  L 29 12.5227272727273  C 29 12.8068181818182  28.900568181818 13.0482954545454  28.7017045454545 13.2471590909091  C 28.5028409090908 13.4460227272727  28.2613636363635 13.5454545454546  27.9772727272725 13.5454545454546  L 23.5454545454545 13.5454545454546  L 23.5454545454545 17.9772727272727  C 23.5454545454545 18.2613636363636  23.4460227272727 18.5028409090909  23.247159090909 18.7017045454546  C 23.0482954545455 18.9005681818182  22.806818181818 19  22.5227272727275 19  L 20.4772727272725 19  C 20.193181818182 19  19.9517045454545 18.9005681818182  19.752840909091 18.7017045454546  C 19.5539772727273 18.5028409090909  19.4545454545455 18.2613636363636  19.4545454545455 17.9772727272727  L 19.4545454545455 13.5454545454546  L 16.875 13.5267857142858  C 16.9861111111111 13.8988095238095  17.078125 14.3024553571429  17.1510416666665 14.7377232142858  C 17.2239583333335 15.1729910714286  17.2725694444443 15.5784970238095  17.296875 15.9542410714286  C 17.3211805555557 16.3299851190476  17.3333333333335 16.7150297619048  17.3333333333335 17.109375  C 17.3333333333335 18.0022321428571  17.0798611111111 18.7072172619048  16.5729166666665 19.2243303571429  C 16.0659722222222 19.741443452381  15.3923611111111 20  14.5520833333335 20  L 5.44791666666674 20  C 4.60763888888891 20  3.93402777777783 19.741443452381  3.42708333333326 19.2243303571429  C 2.92013888888891 18.7072172619048  2.66666666666674 18.0022321428571  2.66666666666674 17.109375  C 2.66666666666674 16.7150297619048  2.67881944444434 16.3299851190476  2.703125 15.9542410714286  C 2.72743055555566 15.5784970238095  2.77604166666674 15.1729910714286  2.84895833333326 14.7377232142858  C 2.921875 14.3024553571429  3.01388888888891 13.8988095238095  3.125 13.5267857142858  C 3.23611111111109 13.1547619047619  3.38541666666674 12.7920386904763  3.57291666666674 12.4386160714286  C 3.76041666666674 12.085193452381  3.97569444444434 11.7838541666666  4.21875 11.5345982142858  C 4.46180555555566 11.2853422619048  4.75868055555566 11.0863095238095  5.109375 10.9375  C 5.46006944444434 10.7886904761905  5.84722222222217 10.7142857142858  6.27083333333326 10.7142857142858  C 6.34027777777783 10.7142857142858  6.48958333333326 10.7942708333334  6.71875 10.9542410714286  C 6.94791666666674 11.1142113095237  7.20138888888891 11.2927827380952  7.47916666666674 11.4899553571429  C 7.75694444444434 11.6871279761905  8.12847222222217 11.8656994047619  8.59375 12.0256696428571  C 9.05902777777783 12.1856398809524  9.52777777777783 12.265625  10 12.265625  C 10.4722222222222 12.265625  10.9409722222222 12.1856398809524  11.40625 12.0256696428571  C 11.8715277777778 11.8656994047619  12.2430555555557 11.6871279761905  12.5208333333335 11.4899553571429  C 12.7986111111111 11.2927827380952  13.0520833333335 11.1142113095237  13.28125 10.9542410714286  C 13.5104166666665 10.7942708333334  13.6597222222222 10.7142857142858  13.7291666666665 10.7142857142858  C 13.8211639943574 10.7142857142858  13.9114417809906 10.7177949817509  14 10.7248135168454  L 14 10.4772727272727  C 14 10.3096257171692  14.0346260006359 10.156818421624  14.103877956361 10.0188508178491  C 14.0116886685198 10.0094290503486  13.9180349052883 10.0031454443989  13.8229166666665 10  C 14.3854166666665 9.12946428571425  14.6666666666665 8.17708333333337  14.6666666666665 7.14285714285714  C 14.6666666666665 6.92708333333337  14.6493055555557 6.68154761904762  14.6145833333335 6.40625  C 15.0729166666665 6.57738095238102  15.5347222222222 6.66294642857139  16 6.66294642857139  C 16.4097222222222 6.66294642857139  16.8229166666665 6.5829613095238  17.2395833333335 6.42299107142861  C 17.65625 6.26302083333337  17.9947916666665 6.10491071428575  18.2552083333335 5.94866071428575  C 18.515625 5.79241071428575  18.6666666666665 5.71428571428575  18.7083333333335 5.71428571428575  Z " stroke-width="6" stroke="#00cc00" fill="none" transform="matrix(1 0 0 1 1175 209 )" mask="url(#clip96)" />
    <path d="M 14.1145833333335 0.837053571428584  C 14.6354166666665 0.279017857142861  15.2638888888889 0  16 0  C 16.7361111111111 0  17.3645833333335 0.279017857142861  17.8854166666665 0.837053571428584  C 18.40625 1.39508928571425  18.6666666666665 2.06845238095238  18.6666666666665 2.85714285714286  C 18.6666666666665 3.64583333333337  18.40625 4.31919642857142  17.8854166666665 4.87723214285714  C 17.3645833333335 5.43526785714286  16.7361111111111 5.71428571428575  16 5.71428571428575  C 15.2638888888889 5.71428571428575  14.6354166666665 5.43526785714286  14.1145833333335 4.87723214285714  C 13.59375 4.31919642857142  13.3333333333335 3.64583333333337  13.3333333333335 2.85714285714286  C 13.3333333333335 2.06845238095238  13.59375 1.39508928571425  14.1145833333335 0.837053571428584  Z " stroke-width="6" stroke="#00cc00" fill="none" transform="matrix(1 0 0 1 1175 209 )" mask="url(#clip96)" />
    <path d="M 7.171875 4.11272321428575  C 7.953125 3.27566964285714  8.89583333333348 2.85714285714286  10 2.85714285714286  C 11.1041666666665 2.85714285714286  12.046875 3.27566964285714  12.828125 4.11272321428575  C 13.609375 4.94977678571425  14 5.95982142857139  14 7.14285714285714  C 14 8.32589285714286  13.609375 9.3359375  12.828125 10.1729910714286  C 12.046875 11.0100446428571  11.1041666666665 11.4285714285714  10 11.4285714285714  C 8.89583333333348 11.4285714285714  7.953125 11.0100446428571  7.171875 10.1729910714286  C 6.390625 9.3359375  6 8.32589285714286  6 7.14285714285714  C 6 5.95982142857139  6.390625 4.94977678571425  7.171875 4.11272321428575  Z " stroke-width="6" stroke="#00cc00" fill="none" transform="matrix(1 0 0 1 1175 209 )" mask="url(#clip96)" />
    <path d="M 4 6.66294642857139  C 4.46527777777783 6.66294642857139  4.92708333333326 6.57738095238102  5.38541666666674 6.40625  C 5.35069444444434 6.68154761904762  5.33333333333326 6.92708333333337  5.33333333333326 7.14285714285714  C 5.33333333333326 8.17708333333337  5.61458333333326 9.12946428571425  6.17708333333326 10  C 5.05208333333326 10.0372023809524  4.13194444444434 10.5133928571429  3.41666666666674 11.4285714285714  L 2.02083333333326 11.4285714285714  C 1.45138888888891 11.4285714285714  0.972222222222172 11.2779017857142  0.583333333333258 10.9765625  C 0.194444444444343 10.6752232142858  0 10.234375  0 9.65401785714286  C 0 7.02752976190476  0.430555555555657 5.71428571428575  1.29166666666674 5.71428571428575  C 1.33333333333326 5.71428571428575  1.484375 5.79241071428575  1.74479166666674 5.94866071428575  C 2.00520833333326 6.10491071428575  2.34375 6.26302083333337  2.76041666666674 6.42299107142861  C 3.17708333333326 6.5829613095238  3.59027777777783 6.66294642857139  4 6.66294642857139  Z " stroke-width="6" stroke="#00cc00" fill="none" transform="matrix(1 0 0 1 1175 209 )" mask="url(#clip96)" />
    <path d="M 2.11458333333326 0.837053571428584  C 2.63541666666674 0.279017857142861  3.26388888888891 0  4 0  C 4.73611111111109 0  5.36458333333326 0.279017857142861  5.88541666666674 0.837053571428584  C 6.40625 1.39508928571425  6.66666666666674 2.06845238095238  6.66666666666674 2.85714285714286  C 6.66666666666674 3.64583333333337  6.40625 4.31919642857142  5.88541666666674 4.87723214285714  C 5.36458333333326 5.43526785714286  4.73611111111109 5.71428571428575  4 5.71428571428575  C 3.26388888888891 5.71428571428575  2.63541666666674 5.43526785714286  2.11458333333326 4.87723214285714  C 1.59375 4.31919642857142  1.33333333333326 3.64583333333337  1.33333333333326 2.85714285714286  C 1.33333333333326 2.06845238095238  1.59375 1.39508928571425  2.11458333333326 0.837053571428584  Z " stroke-width="6" stroke="#00cc00" fill="none" transform="matrix(1 0 0 1 1175 209 )" mask="url(#clip96)" />
  </g>
</svg>