<?xml version="1.0" encoding="utf-8"?>
<svg version="1.1" xmlns:xlink="http://www.w3.org/1999/xlink" width="100px" height="100px" xmlns="http://www.w3.org/2000/svg">
  <g transform="matrix(1 0 0 1 -754 -185 )">
    <path d="M 779.684275034095 191.883928936182  C 787.102582748855 187.700278597483  795.477660206855 185.5  804 185.5  C 831.338095116624 185.5  853.5 207.661904883376  853.5 235  C 853.5 262.338095116624  831.338095116624 284.5  804 284.5  C 776.661904883376 284.5  754.5 262.338095116624  754.5 235  C 754.5 226.477660206855  756.700278597483 218.102582748855  760.883928936182 210.684275034095  L 803.75 235.433012701892  A 0.5 0.5 0 0 0 804.433012701892 234.75 L 779.684275034095 191.883928936182  Z " fill-rule="nonzero" fill="#800080" stroke="none" />
    <path d="M 779.684275034095 191.883928936182  C 787.102582748855 187.700278597483  795.477660206855 185.5  804 185.5  C 831.338095116624 185.5  853.5 207.661904883376  853.5 235  C 853.5 262.338095116624  831.338095116624 284.5  804 284.5  C 776.661904883376 284.5  754.5 262.338095116624  754.5 235  C 754.5 226.477660206855  756.700278597483 218.102582748855  760.883928936182 210.684275034095  L 803.75 235.433012701892  A 0.5 0.5 0 0 0 804.433012701892 234.75 L 779.684275034095 191.883928936182  Z " stroke-width="1" stroke="#797979" fill="none" />
  </g>
</svg>