<?xml version="1.0" encoding="utf-8"?>
<svg version="1.1" xmlns:xlink="http://www.w3.org/1999/xlink" width="100px" height="100px" xmlns="http://www.w3.org/2000/svg">
  <g transform="matrix(1 0 0 1 -754 -185 )">
    <path d="M 842.193341049589 203.511606744988  C 849.499339021914 212.373152947994  853.5 223.504655414247  853.5 235  C 853.5 262.338095116624  831.338095116624 284.5  804 284.5  C 777.044247749809 284.5  755.077524574506 262.941058423913  754.511136539207 236.052346650769  L 804.005579851444 235.499968864288  A 0.5 0.5 0 0 0 804.321945219866 235.382558852212 L 842.193341049585 203.511606744984  Z " fill-rule="nonzero" fill="#ffff00" stroke="none" />
    <path d="M 842.193341049589 203.511606744988  C 849.499339021914 212.373152947994  853.5 223.504655414247  853.5 235  C 853.5 262.338095116624  831.338095116624 284.5  804 284.5  C 777.044247749809 284.5  755.077524574506 262.941058423913  754.511136539207 236.052346650769  L 804.005579851444 235.499968864288  A 0.5 0.5 0 0 0 804.321945219866 235.382558852212 L 842.193341049585 203.511606744984  Z " stroke-width="1" stroke="#797979" fill="none" />
  </g>
</svg>