<?xml version="1.0" encoding="utf-8"?>
<svg version="1.1" xmlns:xlink="http://www.w3.org/1999/xlink" width="100px" height="100px" xmlns="http://www.w3.org/2000/svg">
  <g transform="matrix(1 0 0 1 -754 -185 )">
    <path d="M 851.181371247561 220.027751828266  C 852.717665277386 224.869001049761  853.5 229.918852009067  853.5 235  C 853.5 262.338095116624  831.338095116624 284.5  804 284.5  C 777.044247749809 284.5  755.077524574506 262.941058423913  754.511136539207 236.052346650769  L 804.005579851444 235.499968864288  A 0.5 0.5 0 0 0 804.156041048699 235.475027568801 L 851.181371247561 220.027751828266  Z " fill-rule="nonzero" fill="#00ffff" stroke="none" />
    <path d="M 851.181371247561 220.027751828266  C 852.717665277386 224.869001049761  853.5 229.918852009067  853.5 235  C 853.5 262.338095116624  831.338095116624 284.5  804 284.5  C 777.044247749809 284.5  755.077524574506 262.941058423913  754.511136539207 236.052346650769  L 804.005579851444 235.499968864288  A 0.5 0.5 0 0 0 804.156041048699 235.475027568801 L 851.181371247561 220.027751828266  Z " stroke-width="1" stroke="#797979" fill="none" />
  </g>
</svg>