<?xml version="1.0" encoding="utf-8"?>
<svg version="1.1" xmlns:xlink="http://www.w3.org/1999/xlink" width="20px" height="20px" xmlns="http://www.w3.org/2000/svg">
  <defs>
    <mask fill="white" id="clip97">
      <path d="M 16.484375 8.4765625  C 16.640625 8.3203125  16.71875 8.125  16.71875 7.890625  C 16.71875 7.64756944444446  16.640625 7.44791666666669  16.484375 7.29166666666669  L 15.2994791666666 6.11979166666669  C 15.1345486111111 5.95486111111109  14.9392361111111 5.87239583333331  14.7135416666666 5.87239583333331  C 14.4878472222222 5.87239583333331  14.2925347222222 5.95486111111109  14.1276041666666 6.11979166666669  L 8.81510416666663 11.4192708333334  L 5.87239583333337 8.4765625  C 5.70746527777783 8.31163194444446  5.51215277777783 8.22916666666669  5.28645833333337 8.22916666666669  C 5.06076388888891 8.22916666666669  4.86545138888891 8.31163194444446  4.70052083333337 8.4765625  L 3.515625 9.6484375  C 3.359375 9.8046875  3.28125 10.0043402777778  3.28125 10.2473958333333  C 3.28125 10.4817708333333  3.359375 10.6770833333333  3.515625 10.8333333333333  L 8.22916666666663 15.546875  C 8.39409722222217 15.7118055555555  8.58940972222217 15.7942708333334  8.81510416666663 15.7942708333334  C 9.04947916666663 15.7942708333334  9.24913194444446 15.7118055555555  9.4140625 15.546875  L 16.484375 8.4765625  Z M 18.6588541666666 4.98046875  C 19.5529513888889 6.51258680555554  20 8.18576388888891  20 10  C 20 11.8142361111111  19.5529513888889 13.4874131944445  18.6588541666666 15.01953125  C 17.7647569444445 16.5516493055555  16.5516493055555 17.7647569444445  15.01953125 18.6588541666666  C 13.4874131944445 19.5529513888889  11.8142361111111 20  10 20  C 8.18576388888891 20  6.51258680555554 19.5529513888889  4.98046875 18.6588541666666  C 3.44835069444446 17.7647569444445  2.23524305555554 16.5516493055555  1.34114583333337 15.01953125  C 0.447048611111086 13.4874131944445  0 11.8142361111111  0 10  C 0 8.18576388888891  0.447048611111086 6.51258680555554  1.34114583333337 4.98046875  C 2.23524305555554 3.44835069444446  3.44835069444446 2.23524305555554  4.98046875 1.34114583333331  C 6.51258680555554 0.447048611111086  8.18576388888891 0  10 0  C 11.8142361111111 0  13.4874131944445 0.447048611111086  15.01953125 1.34114583333331  C 16.5516493055555 2.23524305555554  17.7647569444445 3.44835069444446  18.6588541666666 4.98046875  Z " fill-rule="evenodd" />
    </mask>
  </defs>
  <g transform="matrix(1 0 0 1 -663 -552 )">
    <path d="M 16.484375 8.4765625  C 16.640625 8.3203125  16.71875 8.125  16.71875 7.890625  C 16.71875 7.64756944444446  16.640625 7.44791666666669  16.484375 7.29166666666669  L 15.2994791666666 6.11979166666669  C 15.1345486111111 5.95486111111109  14.9392361111111 5.87239583333331  14.7135416666666 5.87239583333331  C 14.4878472222222 5.87239583333331  14.2925347222222 5.95486111111109  14.1276041666666 6.11979166666669  L 8.81510416666663 11.4192708333334  L 5.87239583333337 8.4765625  C 5.70746527777783 8.31163194444446  5.51215277777783 8.22916666666669  5.28645833333337 8.22916666666669  C 5.06076388888891 8.22916666666669  4.86545138888891 8.31163194444446  4.70052083333337 8.4765625  L 3.515625 9.6484375  C 3.359375 9.8046875  3.28125 10.0043402777778  3.28125 10.2473958333333  C 3.28125 10.4817708333333  3.359375 10.6770833333333  3.515625 10.8333333333333  L 8.22916666666663 15.546875  C 8.39409722222217 15.7118055555555  8.58940972222217 15.7942708333334  8.81510416666663 15.7942708333334  C 9.04947916666663 15.7942708333334  9.24913194444446 15.7118055555555  9.4140625 15.546875  L 16.484375 8.4765625  Z M 18.6588541666666 4.98046875  C 19.5529513888889 6.51258680555554  20 8.18576388888891  20 10  C 20 11.8142361111111  19.5529513888889 13.4874131944445  18.6588541666666 15.01953125  C 17.7647569444445 16.5516493055555  16.5516493055555 17.7647569444445  15.01953125 18.6588541666666  C 13.4874131944445 19.5529513888889  11.8142361111111 20  10 20  C 8.18576388888891 20  6.51258680555554 19.5529513888889  4.98046875 18.6588541666666  C 3.44835069444446 17.7647569444445  2.23524305555554 16.5516493055555  1.34114583333337 15.01953125  C 0.447048611111086 13.4874131944445  0 11.8142361111111  0 10  C 0 8.18576388888891  0.447048611111086 6.51258680555554  1.34114583333337 4.98046875  C 2.23524305555554 3.44835069444446  3.44835069444446 2.23524305555554  4.98046875 1.34114583333331  C 6.51258680555554 0.447048611111086  8.18576388888891 0  10 0  C 11.8142361111111 0  13.4874131944445 0.447048611111086  15.01953125 1.34114583333331  C 16.5516493055555 2.23524305555554  17.7647569444445 3.44835069444446  18.6588541666666 4.98046875  Z " fill-rule="nonzero" fill="#009900" stroke="none" transform="matrix(1 0 0 1 663 552 )" />
    <path d="M 16.484375 8.4765625  C 16.640625 8.3203125  16.71875 8.125  16.71875 7.890625  C 16.71875 7.64756944444446  16.640625 7.44791666666669  16.484375 7.29166666666669  L 15.2994791666666 6.11979166666669  C 15.1345486111111 5.95486111111109  14.9392361111111 5.87239583333331  14.7135416666666 5.87239583333331  C 14.4878472222222 5.87239583333331  14.2925347222222 5.95486111111109  14.1276041666666 6.11979166666669  L 8.81510416666663 11.4192708333334  L 5.87239583333337 8.4765625  C 5.70746527777783 8.31163194444446  5.51215277777783 8.22916666666669  5.28645833333337 8.22916666666669  C 5.06076388888891 8.22916666666669  4.86545138888891 8.31163194444446  4.70052083333337 8.4765625  L 3.515625 9.6484375  C 3.359375 9.8046875  3.28125 10.0043402777778  3.28125 10.2473958333333  C 3.28125 10.4817708333333  3.359375 10.6770833333333  3.515625 10.8333333333333  L 8.22916666666663 15.546875  C 8.39409722222217 15.7118055555555  8.58940972222217 15.7942708333334  8.81510416666663 15.7942708333334  C 9.04947916666663 15.7942708333334  9.24913194444446 15.7118055555555  9.4140625 15.546875  L 16.484375 8.4765625  Z " stroke-width="2" stroke="#797979" fill="none" transform="matrix(1 0 0 1 663 552 )" mask="url(#clip97)" />
    <path d="M 18.6588541666666 4.98046875  C 19.5529513888889 6.51258680555554  20 8.18576388888891  20 10  C 20 11.8142361111111  19.5529513888889 13.4874131944445  18.6588541666666 15.01953125  C 17.7647569444445 16.5516493055555  16.5516493055555 17.7647569444445  15.01953125 18.6588541666666  C 13.4874131944445 19.5529513888889  11.8142361111111 20  10 20  C 8.18576388888891 20  6.51258680555554 19.5529513888889  4.98046875 18.6588541666666  C 3.44835069444446 17.7647569444445  2.23524305555554 16.5516493055555  1.34114583333337 15.01953125  C 0.447048611111086 13.4874131944445  0 11.8142361111111  0 10  C 0 8.18576388888891  0.447048611111086 6.51258680555554  1.34114583333337 4.98046875  C 2.23524305555554 3.44835069444446  3.44835069444446 2.23524305555554  4.98046875 1.34114583333331  C 6.51258680555554 0.447048611111086  8.18576388888891 0  10 0  C 11.8142361111111 0  13.4874131944445 0.447048611111086  15.01953125 1.34114583333331  C 16.5516493055555 2.23524305555554  17.7647569444445 3.44835069444446  18.6588541666666 4.98046875  Z " stroke-width="2" stroke="#797979" fill="none" transform="matrix(1 0 0 1 663 552 )" mask="url(#clip97)" />
  </g>
</svg>