<?xml version="1.0" encoding="utf-8"?>
<svg version="1.1" xmlns:xlink="http://www.w3.org/1999/xlink" width="20px" height="20px" xmlns="http://www.w3.org/2000/svg">
  <defs>
    <mask fill="white" id="clip98">
      <path d="M 14.7135416666666 13.5416666666666  C 14.8784722222222 13.3767361111111  14.9609375 13.1770833333334  14.9609375 12.9427083333334  C 14.9609375 12.7170138888889  14.8784722222222 12.5217013888889  14.7135416666666 12.3567708333334  L 12.3567708333334 10  L 14.7135416666666 7.64322916666663  C 14.8784722222222 7.47829861111109  14.9609375 7.28298611111109  14.9609375 7.05729166666663  C 14.9609375 6.82291666666663  14.8784722222222 6.62326388888891  14.7135416666666 6.45833333333337  L 13.5416666666666 5.28645833333337  C 13.3767361111111 5.12152777777783  13.1770833333334 5.0390625  12.9427083333334 5.0390625  C 12.7170138888889 5.0390625  12.5217013888889 5.12152777777783  12.3567708333334 5.28645833333337  L 10 7.64322916666663  L 7.64322916666663 5.28645833333337  C 7.47829861111109 5.12152777777783  7.28298611111109 5.0390625  7.05729166666663 5.0390625  C 6.82291666666663 5.0390625  6.62326388888891 5.12152777777783  6.45833333333337 5.28645833333337  L 5.28645833333337 6.45833333333337  C 5.12152777777783 6.62326388888891  5.0390625 6.82291666666663  5.0390625 7.05729166666663  C 5.0390625 7.28298611111109  5.12152777777783 7.47829861111109  5.28645833333337 7.64322916666663  L 7.64322916666663 10  L 5.28645833333337 12.3567708333334  C 5.12152777777783 12.5217013888889  5.0390625 12.7170138888889  5.0390625 12.9427083333334  C 5.0390625 13.1770833333334  5.12152777777783 13.3767361111111  5.28645833333337 13.5416666666666  L 6.45833333333337 14.7135416666666  C 6.62326388888891 14.8784722222222  6.82291666666663 14.9609375  7.05729166666663 14.9609375  C 7.28298611111109 14.9609375  7.47829861111109 14.8784722222222  7.64322916666663 14.7135416666666  L 10 12.3567708333334  L 12.3567708333334 14.7135416666666  C 12.5217013888889 14.8784722222222  12.7170138888889 14.9609375  12.9427083333334 14.9609375  C 13.1770833333334 14.9609375  13.3767361111111 14.8784722222222  13.5416666666666 14.7135416666666  L 14.7135416666666 13.5416666666666  Z M 18.6588541666666 4.98046875  C 19.5529513888889 6.51258680555554  20 8.18576388888891  20 10  C 20 11.8142361111111  19.5529513888889 13.4874131944445  18.6588541666666 15.01953125  C 17.7647569444445 16.5516493055555  16.5516493055555 17.7647569444445  15.01953125 18.6588541666666  C 13.4874131944445 19.5529513888889  11.8142361111111 20  10 20  C 8.18576388888891 20  6.51258680555554 19.5529513888889  4.98046875 18.6588541666666  C 3.44835069444446 17.7647569444445  2.23524305555554 16.5516493055555  1.34114583333337 15.01953125  C 0.447048611111086 13.4874131944445  0 11.8142361111111  0 10  C 0 8.18576388888891  0.447048611111086 6.51258680555554  1.34114583333337 4.98046875  C 2.23524305555554 3.44835069444446  3.44835069444446 2.23524305555554  4.98046875 1.34114583333337  C 6.51258680555554 0.447048611111086  8.18576388888891 0  10 0  C 11.8142361111111 0  13.4874131944445 0.447048611111086  15.01953125 1.34114583333337  C 16.5516493055555 2.23524305555554  17.7647569444445 3.44835069444446  18.6588541666666 4.98046875  Z " fill-rule="evenodd" />
    </mask>
  </defs>
  <g transform="matrix(1 0 0 1 -1050 -589 )">
    <path d="M 14.7135416666666 13.5416666666666  C 14.8784722222222 13.3767361111111  14.9609375 13.1770833333334  14.9609375 12.9427083333334  C 14.9609375 12.7170138888889  14.8784722222222 12.5217013888889  14.7135416666666 12.3567708333334  L 12.3567708333334 10  L 14.7135416666666 7.64322916666663  C 14.8784722222222 7.47829861111109  14.9609375 7.28298611111109  14.9609375 7.05729166666663  C 14.9609375 6.82291666666663  14.8784722222222 6.62326388888891  14.7135416666666 6.45833333333337  L 13.5416666666666 5.28645833333337  C 13.3767361111111 5.12152777777783  13.1770833333334 5.0390625  12.9427083333334 5.0390625  C 12.7170138888889 5.0390625  12.5217013888889 5.12152777777783  12.3567708333334 5.28645833333337  L 10 7.64322916666663  L 7.64322916666663 5.28645833333337  C 7.47829861111109 5.12152777777783  7.28298611111109 5.0390625  7.05729166666663 5.0390625  C 6.82291666666663 5.0390625  6.62326388888891 5.12152777777783  6.45833333333337 5.28645833333337  L 5.28645833333337 6.45833333333337  C 5.12152777777783 6.62326388888891  5.0390625 6.82291666666663  5.0390625 7.05729166666663  C 5.0390625 7.28298611111109  5.12152777777783 7.47829861111109  5.28645833333337 7.64322916666663  L 7.64322916666663 10  L 5.28645833333337 12.3567708333334  C 5.12152777777783 12.5217013888889  5.0390625 12.7170138888889  5.0390625 12.9427083333334  C 5.0390625 13.1770833333334  5.12152777777783 13.3767361111111  5.28645833333337 13.5416666666666  L 6.45833333333337 14.7135416666666  C 6.62326388888891 14.8784722222222  6.82291666666663 14.9609375  7.05729166666663 14.9609375  C 7.28298611111109 14.9609375  7.47829861111109 14.8784722222222  7.64322916666663 14.7135416666666  L 10 12.3567708333334  L 12.3567708333334 14.7135416666666  C 12.5217013888889 14.8784722222222  12.7170138888889 14.9609375  12.9427083333334 14.9609375  C 13.1770833333334 14.9609375  13.3767361111111 14.8784722222222  13.5416666666666 14.7135416666666  L 14.7135416666666 13.5416666666666  Z M 18.6588541666666 4.98046875  C 19.5529513888889 6.51258680555554  20 8.18576388888891  20 10  C 20 11.8142361111111  19.5529513888889 13.4874131944445  18.6588541666666 15.01953125  C 17.7647569444445 16.5516493055555  16.5516493055555 17.7647569444445  15.01953125 18.6588541666666  C 13.4874131944445 19.5529513888889  11.8142361111111 20  10 20  C 8.18576388888891 20  6.51258680555554 19.5529513888889  4.98046875 18.6588541666666  C 3.44835069444446 17.7647569444445  2.23524305555554 16.5516493055555  1.34114583333337 15.01953125  C 0.447048611111086 13.4874131944445  0 11.8142361111111  0 10  C 0 8.18576388888891  0.447048611111086 6.51258680555554  1.34114583333337 4.98046875  C 2.23524305555554 3.44835069444446  3.44835069444446 2.23524305555554  4.98046875 1.34114583333337  C 6.51258680555554 0.447048611111086  8.18576388888891 0  10 0  C 11.8142361111111 0  13.4874131944445 0.447048611111086  15.01953125 1.34114583333337  C 16.5516493055555 2.23524305555554  17.7647569444445 3.44835069444446  18.6588541666666 4.98046875  Z " fill-rule="nonzero" fill="#ff0000" stroke="none" transform="matrix(1 0 0 1 1050 589 )" />
    <path d="M 14.7135416666666 13.5416666666666  C 14.8784722222222 13.3767361111111  14.9609375 13.1770833333334  14.9609375 12.9427083333334  C 14.9609375 12.7170138888889  14.8784722222222 12.5217013888889  14.7135416666666 12.3567708333334  L 12.3567708333334 10  L 14.7135416666666 7.64322916666663  C 14.8784722222222 7.47829861111109  14.9609375 7.28298611111109  14.9609375 7.05729166666663  C 14.9609375 6.82291666666663  14.8784722222222 6.62326388888891  14.7135416666666 6.45833333333337  L 13.5416666666666 5.28645833333337  C 13.3767361111111 5.12152777777783  13.1770833333334 5.0390625  12.9427083333334 5.0390625  C 12.7170138888889 5.0390625  12.5217013888889 5.12152777777783  12.3567708333334 5.28645833333337  L 10 7.64322916666663  L 7.64322916666663 5.28645833333337  C 7.47829861111109 5.12152777777783  7.28298611111109 5.0390625  7.05729166666663 5.0390625  C 6.82291666666663 5.0390625  6.62326388888891 5.12152777777783  6.45833333333337 5.28645833333337  L 5.28645833333337 6.45833333333337  C 5.12152777777783 6.62326388888891  5.0390625 6.82291666666663  5.0390625 7.05729166666663  C 5.0390625 7.28298611111109  5.12152777777783 7.47829861111109  5.28645833333337 7.64322916666663  L 7.64322916666663 10  L 5.28645833333337 12.3567708333334  C 5.12152777777783 12.5217013888889  5.0390625 12.7170138888889  5.0390625 12.9427083333334  C 5.0390625 13.1770833333334  5.12152777777783 13.3767361111111  5.28645833333337 13.5416666666666  L 6.45833333333337 14.7135416666666  C 6.62326388888891 14.8784722222222  6.82291666666663 14.9609375  7.05729166666663 14.9609375  C 7.28298611111109 14.9609375  7.47829861111109 14.8784722222222  7.64322916666663 14.7135416666666  L 10 12.3567708333334  L 12.3567708333334 14.7135416666666  C 12.5217013888889 14.8784722222222  12.7170138888889 14.9609375  12.9427083333334 14.9609375  C 13.1770833333334 14.9609375  13.3767361111111 14.8784722222222  13.5416666666666 14.7135416666666  L 14.7135416666666 13.5416666666666  Z " stroke-width="2" stroke="#797979" fill="none" transform="matrix(1 0 0 1 1050 589 )" mask="url(#clip98)" />
    <path d="M 18.6588541666666 4.98046875  C 19.5529513888889 6.51258680555554  20 8.18576388888891  20 10  C 20 11.8142361111111  19.5529513888889 13.4874131944445  18.6588541666666 15.01953125  C 17.7647569444445 16.5516493055555  16.5516493055555 17.7647569444445  15.01953125 18.6588541666666  C 13.4874131944445 19.5529513888889  11.8142361111111 20  10 20  C 8.18576388888891 20  6.51258680555554 19.5529513888889  4.98046875 18.6588541666666  C 3.44835069444446 17.7647569444445  2.23524305555554 16.5516493055555  1.34114583333337 15.01953125  C 0.447048611111086 13.4874131944445  0 11.8142361111111  0 10  C 0 8.18576388888891  0.447048611111086 6.51258680555554  1.34114583333337 4.98046875  C 2.23524305555554 3.44835069444446  3.44835069444446 2.23524305555554  4.98046875 1.34114583333337  C 6.51258680555554 0.447048611111086  8.18576388888891 0  10 0  C 11.8142361111111 0  13.4874131944445 0.447048611111086  15.01953125 1.34114583333337  C 16.5516493055555 2.23524305555554  17.7647569444445 3.44835069444446  18.6588541666666 4.98046875  Z " stroke-width="2" stroke="#797979" fill="none" transform="matrix(1 0 0 1 1050 589 )" mask="url(#clip98)" />
  </g>
</svg>