<?xml version="1.0" encoding="utf-8"?>
<svg version="1.1" xmlns:xlink="http://www.w3.org/1999/xlink" width="268px" height="84px" xmlns="http://www.w3.org/2000/svg">
  <defs>
    <mask fill="white" id="clip100">
      <path d="M 223.333333333333 10  L 268 10  L 268 84  L 0 84  L 0 10  L 196.533333333333 10  L 209.933333333333 0  L 223.333333333333 10  Z " fill-rule="evenodd" />
    </mask>
  </defs>
  <g transform="matrix(1 0 0 1 -934 -615 )">
    <path d="M 223.333333333333 10  L 268 10  L 268 84  L 0 84  L 0 10  L 196.533333333333 10  L 209.933333333333 0  L 223.333333333333 10  Z " fill-rule="nonzero" fill="#f2f2f2" stroke="none" transform="matrix(1 0 0 1 934 615 )" />
    <path d="M 223.333333333333 10  L 268 10  L 268 84  L 0 84  L 0 10  L 196.533333333333 10  L 209.933333333333 0  L 223.333333333333 10  Z " stroke-width="2" stroke="#797979" fill="none" transform="matrix(1 0 0 1 934 615 )" mask="url(#clip100)" />
  </g>
</svg>