<?xml version="1.0" encoding="utf-8"?>
<svg version="1.1" xmlns:xlink="http://www.w3.org/1999/xlink" width="35px" height="33px" xmlns="http://www.w3.org/2000/svg">
  <g transform="matrix(1 0 0 1 -2827 -322 )">
    <path d="M 2844.5 322  C 2854.3 322  2862 329.26  2862 338.5  C 2862 347.74  2854.3 355  2844.5 355  C 2834.7 355  2827 347.74  2827 338.5  C 2827 329.26  2834.7 322  2844.5 322  Z " fill-rule="nonzero" fill="#ffffff" stroke="none" />
    <path d="M 2844.5 322.5  C 2854.02 322.5  2861.5 329.54  2861.5 338.5  C 2861.5 347.46  2854.02 354.5  2844.5 354.5  C 2834.98 354.5  2827.5 347.46  2827.5 338.5  C 2827.5 329.54  2834.98 322.5  2844.5 322.5  Z " stroke-width="1" stroke="#797979" fill="none" />
  </g>
</svg>