<?xml version="1.0" encoding="utf-8"?>
<svg version="1.1" xmlns:xlink="http://www.w3.org/1999/xlink" width="30px" height="30px" xmlns="http://www.w3.org/2000/svg">
  <g transform="matrix(1 0 0 1 -632 -203 )">
    <path d="M 647 203  C 655.4 203  662 209.6  662 218  C 662 226.4  655.4 233  647 233  C 638.6 233  632 226.4  632 218  C 632 209.6  638.6 203  647 203  Z " fill-rule="nonzero" fill="#ffffff" stroke="none" />
    <path d="M 647 203.5  C 655.12 203.5  661.5 209.88  661.5 218  C 661.5 226.12  655.12 232.5  647 232.5  C 638.88 232.5  632.5 226.12  632.5 218  C 632.5 209.88  638.88 203.5  647 203.5  Z " stroke-width="1" stroke="#0000ff" fill="none" />
  </g>
</svg>