<?xml version="1.0" encoding="utf-8"?>
<svg version="1.1" xmlns:xlink="http://www.w3.org/1999/xlink" width="25px" height="25px" xmlns="http://www.w3.org/2000/svg">
  <defs>
    <mask fill="white" id="clip89">
      <path d="M 19.482421875 14.2740885416667  C 19.6885850694445 14.0679253472222  19.7916666666667 13.8237847222222  19.7916666666667 13.5416666666667  L 19.7916666666667 11.4583333333333  C 19.7916666666667 11.1762152777778  19.6885850694445 10.9320746527778  19.482421875 10.7259114583333  C 19.2762586805555 10.5197482638889  19.0321180555555 10.4166666666667  18.75 10.4166666666667  L 14.5833333333333 10.4166666666667  L 14.5833333333333 6.25  C 14.5833333333333 5.96788194444446  14.4802517361111 5.72374131944446  14.2740885416667 5.517578125  C 14.0679253472222 5.31141493055554  13.8237847222222 5.20833333333331  13.5416666666667 5.20833333333331  L 11.4583333333333 5.20833333333331  C 11.1762152777778 5.20833333333331  10.9320746527778 5.31141493055554  10.7259114583333 5.517578125  C 10.5197482638889 5.72374131944446  10.4166666666667 5.96788194444446  10.4166666666667 6.25  L 10.4166666666667 10.4166666666667  L 6.25 10.4166666666667  C 5.96788194444446 10.4166666666667  5.72374131944446 10.5197482638889  5.517578125 10.7259114583333  C 5.31141493055554 10.9320746527778  5.20833333333331 11.1762152777778  5.20833333333331 11.4583333333333  L 5.20833333333331 13.5416666666667  C 5.20833333333331 13.8237847222222  5.31141493055554 14.0679253472222  5.517578125 14.2740885416667  C 5.72374131944446 14.4802517361111  5.96788194444446 14.5833333333333  6.25 14.5833333333333  L 10.4166666666667 14.5833333333333  L 10.4166666666667 18.75  C 10.4166666666667 19.0321180555555  10.5197482638889 19.2762586805555  10.7259114583333 19.482421875  C 10.9320746527778 19.6885850694445  11.1762152777778 19.7916666666667  11.4583333333333 19.7916666666667  L 13.5416666666667 19.7916666666667  C 13.8237847222222 19.7916666666667  14.0679253472222 19.6885850694445  14.2740885416667 19.482421875  C 14.4802517361111 19.2762586805555  14.5833333333333 19.0321180555555  14.5833333333333 18.75  L 14.5833333333333 14.5833333333333  L 18.75 14.5833333333333  C 19.0321180555555 14.5833333333333  19.2762586805555 14.4802517361111  19.482421875 14.2740885416667  Z M 23.3235677083333 6.2255859375  C 24.4411892361111 8.14073350694446  25 10.2322048611111  25 12.5  C 25 14.7677951388889  24.4411892361111 16.8592664930555  23.3235677083333 18.7744140625  C 22.2059461805555 20.6895616319445  20.6895616319445 22.2059461805555  18.7744140625 23.3235677083333  C 16.8592664930555 24.4411892361111  14.7677951388889 25  12.5 25  C 10.2322048611111 25  8.14073350694446 24.4411892361111  6.2255859375 23.3235677083333  C 4.31043836805554 22.2059461805555  2.79405381944446 20.6895616319445  1.67643229166669 18.7744140625  C 0.558810763888914 16.8592664930555  0 14.7677951388889  0 12.5  C 0 10.2322048611111  0.558810763888914 8.14073350694446  1.67643229166669 6.2255859375  C 2.79405381944446 4.31043836805554  4.31043836805554 2.79405381944446  6.2255859375 1.67643229166669  C 8.14073350694446 0.558810763888886  10.2322048611111 0  12.5 0  C 14.7677951388889 0  16.8592664930555 0.558810763888886  18.7744140625 1.67643229166669  C 20.6895616319445 2.79405381944446  22.2059461805555 4.31043836805554  23.3235677083333 6.2255859375  Z " fill-rule="evenodd" />
    </mask>
  </defs>
  <g transform="matrix(1 0 0 1 -406 -111 )">
    <path d="M 19.482421875 14.2740885416667  C 19.6885850694445 14.0679253472222  19.7916666666667 13.8237847222222  19.7916666666667 13.5416666666667  L 19.7916666666667 11.4583333333333  C 19.7916666666667 11.1762152777778  19.6885850694445 10.9320746527778  19.482421875 10.7259114583333  C 19.2762586805555 10.5197482638889  19.0321180555555 10.4166666666667  18.75 10.4166666666667  L 14.5833333333333 10.4166666666667  L 14.5833333333333 6.25  C 14.5833333333333 5.96788194444446  14.4802517361111 5.72374131944446  14.2740885416667 5.517578125  C 14.0679253472222 5.31141493055554  13.8237847222222 5.20833333333331  13.5416666666667 5.20833333333331  L 11.4583333333333 5.20833333333331  C 11.1762152777778 5.20833333333331  10.9320746527778 5.31141493055554  10.7259114583333 5.517578125  C 10.5197482638889 5.72374131944446  10.4166666666667 5.96788194444446  10.4166666666667 6.25  L 10.4166666666667 10.4166666666667  L 6.25 10.4166666666667  C 5.96788194444446 10.4166666666667  5.72374131944446 10.5197482638889  5.517578125 10.7259114583333  C 5.31141493055554 10.9320746527778  5.20833333333331 11.1762152777778  5.20833333333331 11.4583333333333  L 5.20833333333331 13.5416666666667  C 5.20833333333331 13.8237847222222  5.31141493055554 14.0679253472222  5.517578125 14.2740885416667  C 5.72374131944446 14.4802517361111  5.96788194444446 14.5833333333333  6.25 14.5833333333333  L 10.4166666666667 14.5833333333333  L 10.4166666666667 18.75  C 10.4166666666667 19.0321180555555  10.5197482638889 19.2762586805555  10.7259114583333 19.482421875  C 10.9320746527778 19.6885850694445  11.1762152777778 19.7916666666667  11.4583333333333 19.7916666666667  L 13.5416666666667 19.7916666666667  C 13.8237847222222 19.7916666666667  14.0679253472222 19.6885850694445  14.2740885416667 19.482421875  C 14.4802517361111 19.2762586805555  14.5833333333333 19.0321180555555  14.5833333333333 18.75  L 14.5833333333333 14.5833333333333  L 18.75 14.5833333333333  C 19.0321180555555 14.5833333333333  19.2762586805555 14.4802517361111  19.482421875 14.2740885416667  Z M 23.3235677083333 6.2255859375  C 24.4411892361111 8.14073350694446  25 10.2322048611111  25 12.5  C 25 14.7677951388889  24.4411892361111 16.8592664930555  23.3235677083333 18.7744140625  C 22.2059461805555 20.6895616319445  20.6895616319445 22.2059461805555  18.7744140625 23.3235677083333  C 16.8592664930555 24.4411892361111  14.7677951388889 25  12.5 25  C 10.2322048611111 25  8.14073350694446 24.4411892361111  6.2255859375 23.3235677083333  C 4.31043836805554 22.2059461805555  2.79405381944446 20.6895616319445  1.67643229166669 18.7744140625  C 0.558810763888914 16.8592664930555  0 14.7677951388889  0 12.5  C 0 10.2322048611111  0.558810763888914 8.14073350694446  1.67643229166669 6.2255859375  C 2.79405381944446 4.31043836805554  4.31043836805554 2.79405381944446  6.2255859375 1.67643229166669  C 8.14073350694446 0.558810763888886  10.2322048611111 0  12.5 0  C 14.7677951388889 0  16.8592664930555 0.558810763888886  18.7744140625 1.67643229166669  C 20.6895616319445 2.79405381944446  22.2059461805555 4.31043836805554  23.3235677083333 6.2255859375  Z " fill-rule="nonzero" fill="#ffffff" stroke="none" transform="matrix(1 0 0 1 406 111 )" />
    <path d="M 19.482421875 14.2740885416667  C 19.6885850694445 14.0679253472222  19.7916666666667 13.8237847222222  19.7916666666667 13.5416666666667  L 19.7916666666667 11.4583333333333  C 19.7916666666667 11.1762152777778  19.6885850694445 10.9320746527778  19.482421875 10.7259114583333  C 19.2762586805555 10.5197482638889  19.0321180555555 10.4166666666667  18.75 10.4166666666667  L 14.5833333333333 10.4166666666667  L 14.5833333333333 6.25  C 14.5833333333333 5.96788194444446  14.4802517361111 5.72374131944446  14.2740885416667 5.517578125  C 14.0679253472222 5.31141493055554  13.8237847222222 5.20833333333331  13.5416666666667 5.20833333333331  L 11.4583333333333 5.20833333333331  C 11.1762152777778 5.20833333333331  10.9320746527778 5.31141493055554  10.7259114583333 5.517578125  C 10.5197482638889 5.72374131944446  10.4166666666667 5.96788194444446  10.4166666666667 6.25  L 10.4166666666667 10.4166666666667  L 6.25 10.4166666666667  C 5.96788194444446 10.4166666666667  5.72374131944446 10.5197482638889  5.517578125 10.7259114583333  C 5.31141493055554 10.9320746527778  5.20833333333331 11.1762152777778  5.20833333333331 11.4583333333333  L 5.20833333333331 13.5416666666667  C 5.20833333333331 13.8237847222222  5.31141493055554 14.0679253472222  5.517578125 14.2740885416667  C 5.72374131944446 14.4802517361111  5.96788194444446 14.5833333333333  6.25 14.5833333333333  L 10.4166666666667 14.5833333333333  L 10.4166666666667 18.75  C 10.4166666666667 19.0321180555555  10.5197482638889 19.2762586805555  10.7259114583333 19.482421875  C 10.9320746527778 19.6885850694445  11.1762152777778 19.7916666666667  11.4583333333333 19.7916666666667  L 13.5416666666667 19.7916666666667  C 13.8237847222222 19.7916666666667  14.0679253472222 19.6885850694445  14.2740885416667 19.482421875  C 14.4802517361111 19.2762586805555  14.5833333333333 19.0321180555555  14.5833333333333 18.75  L 14.5833333333333 14.5833333333333  L 18.75 14.5833333333333  C 19.0321180555555 14.5833333333333  19.2762586805555 14.4802517361111  19.482421875 14.2740885416667  Z " stroke-width="2" stroke="#797979" fill="none" transform="matrix(1 0 0 1 406 111 )" mask="url(#clip89)" />
    <path d="M 23.3235677083333 6.2255859375  C 24.4411892361111 8.14073350694446  25 10.2322048611111  25 12.5  C 25 14.7677951388889  24.4411892361111 16.8592664930555  23.3235677083333 18.7744140625  C 22.2059461805555 20.6895616319445  20.6895616319445 22.2059461805555  18.7744140625 23.3235677083333  C 16.8592664930555 24.4411892361111  14.7677951388889 25  12.5 25  C 10.2322048611111 25  8.14073350694446 24.4411892361111  6.2255859375 23.3235677083333  C 4.31043836805554 22.2059461805555  2.79405381944446 20.6895616319445  1.67643229166669 18.7744140625  C 0.558810763888914 16.8592664930555  0 14.7677951388889  0 12.5  C 0 10.2322048611111  0.558810763888914 8.14073350694446  1.67643229166669 6.2255859375  C 2.79405381944446 4.31043836805554  4.31043836805554 2.79405381944446  6.2255859375 1.67643229166669  C 8.14073350694446 0.558810763888886  10.2322048611111 0  12.5 0  C 14.7677951388889 0  16.8592664930555 0.558810763888886  18.7744140625 1.67643229166669  C 20.6895616319445 2.79405381944446  22.2059461805555 4.31043836805554  23.3235677083333 6.2255859375  Z " stroke-width="2" stroke="#797979" fill="none" transform="matrix(1 0 0 1 406 111 )" mask="url(#clip89)" />
  </g>
</svg>