<?xml version="1.0" encoding="utf-8"?>
<svg version="1.1" xmlns:xlink="http://www.w3.org/1999/xlink" width="20px" height="20px" xmlns="http://www.w3.org/2000/svg">
  <defs>
    <mask fill="white" id="clip85">
      <path d="M 19.6022727272727 7.67045454545456  C 19.8674242424242 7.93560606060606  20 8.25757575757575  20 8.63636363636365  L 20 11.3636363636363  C 20 11.7424242424242  19.8674242424242 12.0643939393939  19.6022727272727 12.3295454545454  C 19.3371212121212 12.5946969696969  19.0151515151515 12.7272727272727  18.6363636363636 12.7272727272727  L 12.7272727272727 12.7272727272727  L 12.7272727272727 18.6363636363637  C 12.7272727272727 19.0151515151515  12.594696969697 19.3371212121212  12.3295454545454 19.6022727272727  C 12.0643939393939 19.8674242424242  11.7424242424242 20  11.3636363636364 20  L 8.63636363636363 20  C 8.25757575757575 20  7.93560606060606 19.8674242424242  7.67045454545456 19.6022727272727  C 7.40530303030303 19.3371212121212  7.27272727272728 19.0151515151515  7.27272727272728 18.6363636363637  L 7.27272727272728 12.7272727272727  L 1.36363636363637 12.7272727272727  C 0.98484848484847 12.7272727272727  0.66287878787881 12.5946969696969  0.39772727272728 12.3295454545454  C 0.132575757575751 12.0643939393939  0 11.7424242424242  0 11.3636363636363  L 0 8.63636363636365  C 0 8.25757575757575  0.132575757575751 7.93560606060606  0.39772727272728 7.67045454545456  C 0.66287878787881 7.40530303030303  0.98484848484847 7.27272727272728  1.36363636363637 7.27272727272728  L 7.27272727272728 7.27272727272728  L 7.27272727272728 1.36363636363637  C 7.27272727272728 0.984848484848499  7.40530303030303 0.66287878787881  7.67045454545456 0.39772727272728  C 7.93560606060606 0.132575757575751  8.25757575757575 0  8.63636363636363 0  L 11.3636363636364 0  C 11.7424242424242 0  12.0643939393939 0.132575757575751  12.3295454545454 0.39772727272728  C 12.594696969697 0.66287878787881  12.7272727272727 0.984848484848499  12.7272727272727 1.36363636363637  L 12.7272727272727 7.27272727272728  L 18.6363636363636 7.27272727272728  C 19.0151515151515 7.27272727272728  19.3371212121212 7.40530303030303  19.6022727272727 7.67045454545456  Z " fill-rule="evenodd" />
    </mask>
  </defs>
  <g transform="matrix(1 0 0 1 -384 -154 )">
    <path d="M 19.6022727272727 7.67045454545456  C 19.8674242424242 7.93560606060606  20 8.25757575757575  20 8.63636363636365  L 20 11.3636363636363  C 20 11.7424242424242  19.8674242424242 12.0643939393939  19.6022727272727 12.3295454545454  C 19.3371212121212 12.5946969696969  19.0151515151515 12.7272727272727  18.6363636363636 12.7272727272727  L 12.7272727272727 12.7272727272727  L 12.7272727272727 18.6363636363637  C 12.7272727272727 19.0151515151515  12.594696969697 19.3371212121212  12.3295454545454 19.6022727272727  C 12.0643939393939 19.8674242424242  11.7424242424242 20  11.3636363636364 20  L 8.63636363636363 20  C 8.25757575757575 20  7.93560606060606 19.8674242424242  7.67045454545456 19.6022727272727  C 7.40530303030303 19.3371212121212  7.27272727272728 19.0151515151515  7.27272727272728 18.6363636363637  L 7.27272727272728 12.7272727272727  L 1.36363636363637 12.7272727272727  C 0.98484848484847 12.7272727272727  0.66287878787881 12.5946969696969  0.39772727272728 12.3295454545454  C 0.132575757575751 12.0643939393939  0 11.7424242424242  0 11.3636363636363  L 0 8.63636363636365  C 0 8.25757575757575  0.132575757575751 7.93560606060606  0.39772727272728 7.67045454545456  C 0.66287878787881 7.40530303030303  0.98484848484847 7.27272727272728  1.36363636363637 7.27272727272728  L 7.27272727272728 7.27272727272728  L 7.27272727272728 1.36363636363637  C 7.27272727272728 0.984848484848499  7.40530303030303 0.66287878787881  7.67045454545456 0.39772727272728  C 7.93560606060606 0.132575757575751  8.25757575757575 0  8.63636363636363 0  L 11.3636363636364 0  C 11.7424242424242 0  12.0643939393939 0.132575757575751  12.3295454545454 0.39772727272728  C 12.594696969697 0.66287878787881  12.7272727272727 0.984848484848499  12.7272727272727 1.36363636363637  L 12.7272727272727 7.27272727272728  L 18.6363636363636 7.27272727272728  C 19.0151515151515 7.27272727272728  19.3371212121212 7.40530303030303  19.6022727272727 7.67045454545456  Z " fill-rule="nonzero" fill="#0000ff" stroke="none" transform="matrix(1 0 0 1 384 154 )" />
    <path d="M 19.6022727272727 7.67045454545456  C 19.8674242424242 7.93560606060606  20 8.25757575757575  20 8.63636363636365  L 20 11.3636363636363  C 20 11.7424242424242  19.8674242424242 12.0643939393939  19.6022727272727 12.3295454545454  C 19.3371212121212 12.5946969696969  19.0151515151515 12.7272727272727  18.6363636363636 12.7272727272727  L 12.7272727272727 12.7272727272727  L 12.7272727272727 18.6363636363637  C 12.7272727272727 19.0151515151515  12.594696969697 19.3371212121212  12.3295454545454 19.6022727272727  C 12.0643939393939 19.8674242424242  11.7424242424242 20  11.3636363636364 20  L 8.63636363636363 20  C 8.25757575757575 20  7.93560606060606 19.8674242424242  7.67045454545456 19.6022727272727  C 7.40530303030303 19.3371212121212  7.27272727272728 19.0151515151515  7.27272727272728 18.6363636363637  L 7.27272727272728 12.7272727272727  L 1.36363636363637 12.7272727272727  C 0.98484848484847 12.7272727272727  0.66287878787881 12.5946969696969  0.39772727272728 12.3295454545454  C 0.132575757575751 12.0643939393939  0 11.7424242424242  0 11.3636363636363  L 0 8.63636363636365  C 0 8.25757575757575  0.132575757575751 7.93560606060606  0.39772727272728 7.67045454545456  C 0.66287878787881 7.40530303030303  0.98484848484847 7.27272727272728  1.36363636363637 7.27272727272728  L 7.27272727272728 7.27272727272728  L 7.27272727272728 1.36363636363637  C 7.27272727272728 0.984848484848499  7.40530303030303 0.66287878787881  7.67045454545456 0.39772727272728  C 7.93560606060606 0.132575757575751  8.25757575757575 0  8.63636363636363 0  L 11.3636363636364 0  C 11.7424242424242 0  12.0643939393939 0.132575757575751  12.3295454545454 0.39772727272728  C 12.594696969697 0.66287878787881  12.7272727272727 0.984848484848499  12.7272727272727 1.36363636363637  L 12.7272727272727 7.27272727272728  L 18.6363636363636 7.27272727272728  C 19.0151515151515 7.27272727272728  19.3371212121212 7.40530303030303  19.6022727272727 7.67045454545456  Z " stroke-width="2" stroke="#797979" fill="none" transform="matrix(1 0 0 1 384 154 )" mask="url(#clip85)" />
  </g>
</svg>