<?xml version="1.0" encoding="utf-8"?>
<svg version="1.1" xmlns:xlink="http://www.w3.org/1999/xlink" width="16px" height="16px" xmlns="http://www.w3.org/2000/svg">
  <defs>
    <mask fill="white" id="clip86">
      <path d="M 15.6818181818182 6.13636363636365  C 15.8939393939394 6.34848484848484  16 6.60606060606059  16 6.90909090909093  L 16 9.09090909090907  C 16 9.39393939393941  15.8939393939394 9.65151515151516  15.6818181818182 9.86363636363635  C 15.4696969696969 10.0757575757576  15.2121212121212 10.1818181818182  14.9090909090909 10.1818181818182  L 10.1818181818182 10.1818181818182  L 10.1818181818182 14.9090909090909  C 10.1818181818182 15.2121212121212  10.0757575757576 15.4696969696969  9.86363636363637 15.6818181818182  C 9.65151515151513 15.8939393939394  9.39393939393938 16  9.09090909090912 16  L 6.90909090909088 16  C 6.60606060606062 16  6.34848484848487 15.8939393939394  6.13636363636363 15.6818181818182  C 5.92424242424244 15.4696969696969  5.81818181818181 15.2121212121212  5.81818181818181 14.9090909090909  L 5.81818181818181 10.1818181818182  L 1.09090909090912 10.1818181818182  C 0.787878787878753 10.1818181818182  0.53030303030306 10.0757575757576  0.318181818181813 9.86363636363635  C 0.106060606060623 9.65151515151516  0 9.39393939393941  0 9.09090909090907  L 0 6.90909090909093  C 0 6.60606060606059  0.106060606060623 6.34848484848484  0.318181818181813 6.13636363636365  C 0.53030303030306 5.92424242424244  0.787878787878753 5.81818181818181  1.09090909090912 5.81818181818181  L 5.81818181818181 5.81818181818181  L 5.81818181818181 1.09090909090909  C 5.81818181818181 0.78787878787881  5.92424242424244 0.53030303030306  6.13636363636363 0.318181818181813  C 6.34848484848487 0.106060606060595  6.60606060606062 0  6.90909090909088 0  L 9.09090909090912 0  C 9.39393939393938 0  9.65151515151513 0.106060606060595  9.86363636363637 0.318181818181813  C 10.0757575757576 0.53030303030306  10.1818181818182 0.78787878787881  10.1818181818182 1.09090909090909  L 10.1818181818182 5.81818181818181  L 14.9090909090909 5.81818181818181  C 15.2121212121212 5.81818181818181  15.4696969696969 5.92424242424244  15.6818181818182 6.13636363636365  Z " fill-rule="evenodd" />
    </mask>
  </defs>
  <g transform="matrix(1 0 0 1 -161 -126 )">
    <path d="M 15.6818181818182 6.13636363636365  C 15.8939393939394 6.34848484848484  16 6.60606060606059  16 6.90909090909093  L 16 9.09090909090907  C 16 9.39393939393941  15.8939393939394 9.65151515151516  15.6818181818182 9.86363636363635  C 15.4696969696969 10.0757575757576  15.2121212121212 10.1818181818182  14.9090909090909 10.1818181818182  L 10.1818181818182 10.1818181818182  L 10.1818181818182 14.9090909090909  C 10.1818181818182 15.2121212121212  10.0757575757576 15.4696969696969  9.86363636363637 15.6818181818182  C 9.65151515151513 15.8939393939394  9.39393939393938 16  9.09090909090912 16  L 6.90909090909088 16  C 6.60606060606062 16  6.34848484848487 15.8939393939394  6.13636363636363 15.6818181818182  C 5.92424242424244 15.4696969696969  5.81818181818181 15.2121212121212  5.81818181818181 14.9090909090909  L 5.81818181818181 10.1818181818182  L 1.09090909090912 10.1818181818182  C 0.787878787878753 10.1818181818182  0.53030303030306 10.0757575757576  0.318181818181813 9.86363636363635  C 0.106060606060623 9.65151515151516  0 9.39393939393941  0 9.09090909090907  L 0 6.90909090909093  C 0 6.60606060606059  0.106060606060623 6.34848484848484  0.318181818181813 6.13636363636365  C 0.53030303030306 5.92424242424244  0.787878787878753 5.81818181818181  1.09090909090912 5.81818181818181  L 5.81818181818181 5.81818181818181  L 5.81818181818181 1.09090909090909  C 5.81818181818181 0.78787878787881  5.92424242424244 0.53030303030306  6.13636363636363 0.318181818181813  C 6.34848484848487 0.106060606060595  6.60606060606062 0  6.90909090909088 0  L 9.09090909090912 0  C 9.39393939393938 0  9.65151515151513 0.106060606060595  9.86363636363637 0.318181818181813  C 10.0757575757576 0.53030303030306  10.1818181818182 0.78787878787881  10.1818181818182 1.09090909090909  L 10.1818181818182 5.81818181818181  L 14.9090909090909 5.81818181818181  C 15.2121212121212 5.81818181818181  15.4696969696969 5.92424242424244  15.6818181818182 6.13636363636365  Z " fill-rule="nonzero" fill="#0000ff" stroke="none" transform="matrix(1 0 0 1 161 126 )" />
    <path d="M 15.6818181818182 6.13636363636365  C 15.8939393939394 6.34848484848484  16 6.60606060606059  16 6.90909090909093  L 16 9.09090909090907  C 16 9.39393939393941  15.8939393939394 9.65151515151516  15.6818181818182 9.86363636363635  C 15.4696969696969 10.0757575757576  15.2121212121212 10.1818181818182  14.9090909090909 10.1818181818182  L 10.1818181818182 10.1818181818182  L 10.1818181818182 14.9090909090909  C 10.1818181818182 15.2121212121212  10.0757575757576 15.4696969696969  9.86363636363637 15.6818181818182  C 9.65151515151513 15.8939393939394  9.39393939393938 16  9.09090909090912 16  L 6.90909090909088 16  C 6.60606060606062 16  6.34848484848487 15.8939393939394  6.13636363636363 15.6818181818182  C 5.92424242424244 15.4696969696969  5.81818181818181 15.2121212121212  5.81818181818181 14.9090909090909  L 5.81818181818181 10.1818181818182  L 1.09090909090912 10.1818181818182  C 0.787878787878753 10.1818181818182  0.53030303030306 10.0757575757576  0.318181818181813 9.86363636363635  C 0.106060606060623 9.65151515151516  0 9.39393939393941  0 9.09090909090907  L 0 6.90909090909093  C 0 6.60606060606059  0.106060606060623 6.34848484848484  0.318181818181813 6.13636363636365  C 0.53030303030306 5.92424242424244  0.787878787878753 5.81818181818181  1.09090909090912 5.81818181818181  L 5.81818181818181 5.81818181818181  L 5.81818181818181 1.09090909090909  C 5.81818181818181 0.78787878787881  5.92424242424244 0.53030303030306  6.13636363636363 0.318181818181813  C 6.34848484848487 0.106060606060595  6.60606060606062 0  6.90909090909088 0  L 9.09090909090912 0  C 9.39393939393938 0  9.65151515151513 0.106060606060595  9.86363636363637 0.318181818181813  C 10.0757575757576 0.53030303030306  10.1818181818182 0.78787878787881  10.1818181818182 1.09090909090909  L 10.1818181818182 5.81818181818181  L 14.9090909090909 5.81818181818181  C 15.2121212121212 5.81818181818181  15.4696969696969 5.92424242424244  15.6818181818182 6.13636363636365  Z " stroke-width="2" stroke="#797979" fill="none" transform="matrix(1 0 0 1 161 126 )" mask="url(#clip86)" />
  </g>
</svg>