<?xml version="1.0" encoding="utf-8"?>
<svg version="1.1" xmlns:xlink="http://www.w3.org/1999/xlink" width="66px" height="62px" xmlns="http://www.w3.org/2000/svg">
  <g transform="matrix(1 0 0 1 -310 -804 )">
    <path d="M 13.7433894230769 56.2739955357143  C 14.7349759615385 55.4090401785714  15.2307692307692 54.3653273809524  15.2307692307692 53.1428571428571  C 15.2307692307692 51.9203869047619  14.7349759615385 50.8766741071429  13.7433894230769 50.01171875  C 12.7518028846154 49.1467633928571  11.5552884615385 48.7142857142857  10.1538461538462 48.7142857142857  C 8.75240384615385 48.7142857142857  7.55588942307692 49.1467633928571  6.56430288461538 50.01171875  C 5.57271634615385 50.8766741071429  5.07692307692308 51.9203869047619  5.07692307692308 53.1428571428571  C 5.07692307692308 54.3653273809524  5.57271634615385 55.4090401785714  6.56430288461538 56.2739955357143  C 7.55588942307692 57.1389508928571  8.75240384615385 57.5714285714286  10.1538461538462 57.5714285714286  C 11.5552884615385 57.5714285714286  12.7518028846154 57.1389508928571  13.7433894230769 56.2739955357143  Z M 28.9741586538462 56.2739955357143  C 29.9657451923077 55.4090401785714  30.4615384615385 54.3653273809524  30.4615384615385 53.1428571428571  C 30.4615384615385 51.9203869047619  29.9657451923077 50.8766741071429  28.9741586538462 50.01171875  C 27.9825721153846 49.1467633928571  26.7860576923077 48.7142857142857  25.3846153846154 48.7142857142857  C 23.9831730769231 48.7142857142857  22.7866586538462 49.1467633928571  21.7950721153846 50.01171875  C 20.8034855769231 50.8766741071429  20.3076923076923 51.9203869047619  20.3076923076923 53.1428571428571  C 20.3076923076923 54.3653273809524  20.8034855769231 55.4090401785714  21.7950721153846 56.2739955357143  C 22.7866586538462 57.1389508928571  23.9831730769231 57.5714285714286  25.3846153846154 57.5714285714286  C 26.7860576923077 57.5714285714286  27.9825721153846 57.1389508928571  28.9741586538462 56.2739955357143  Z M 13.7433894230769 42.98828125  C 14.7349759615385 42.1233258928571  15.2307692307692 41.0796130952381  15.2307692307692 39.8571428571429  C 15.2307692307692 38.6346726190476  14.7349759615385 37.5909598214286  13.7433894230769 36.7260044642857  C 12.7518028846154 35.8610491071429  11.5552884615385 35.4285714285714  10.1538461538462 35.4285714285714  C 8.75240384615385 35.4285714285714  7.55588942307692 35.8610491071429  6.56430288461538 36.7260044642857  C 5.57271634615385 37.5909598214286  5.07692307692308 38.6346726190476  5.07692307692308 39.8571428571429  C 5.07692307692308 41.0796130952381  5.57271634615385 42.1233258928571  6.56430288461538 42.98828125  C 7.55588942307692 43.8532366071429  8.75240384615385 44.2857142857143  10.1538461538462 44.2857142857143  C 11.5552884615385 44.2857142857143  12.7518028846154 43.8532366071429  13.7433894230769 42.98828125  Z M 44.2049278846154 56.2739955357143  C 45.1965144230769 55.4090401785714  45.6923076923077 54.3653273809524  45.6923076923077 53.1428571428571  C 45.6923076923077 51.9203869047619  45.1965144230769 50.8766741071429  44.2049278846154 50.01171875  C 43.2133413461538 49.1467633928571  42.0168269230769 48.7142857142857  40.6153846153846 48.7142857142857  C 39.2139423076923 48.7142857142857  38.0174278846154 49.1467633928571  37.0258413461538 50.01171875  C 36.0342548076923 50.8766741071429  35.5384615384615 51.9203869047619  35.5384615384615 53.1428571428571  C 35.5384615384615 54.3653273809524  36.0342548076923 55.4090401785714  37.0258413461538 56.2739955357143  C 38.0174278846154 57.1389508928571  39.2139423076923 57.5714285714286  40.6153846153846 57.5714285714286  C 42.0168269230769 57.5714285714286  43.2133413461538 57.1389508928571  44.2049278846154 56.2739955357143  Z M 28.9741586538462 42.98828125  C 29.9657451923077 42.1233258928571  30.4615384615385 41.0796130952381  30.4615384615385 39.8571428571429  C 30.4615384615385 38.6346726190476  29.9657451923077 37.5909598214286  28.9741586538462 36.7260044642857  C 27.9825721153846 35.8610491071429  26.7860576923077 35.4285714285714  25.3846153846154 35.4285714285714  C 23.9831730769231 35.4285714285714  22.7866586538462 35.8610491071429  21.7950721153846 36.7260044642857  C 20.8034855769231 37.5909598214286  20.3076923076923 38.6346726190476  20.3076923076923 39.8571428571429  C 20.3076923076923 41.0796130952381  20.8034855769231 42.1233258928571  21.7950721153846 42.98828125  C 22.7866586538462 43.8532366071429  23.9831730769231 44.2857142857143  25.3846153846154 44.2857142857143  C 26.7860576923077 44.2857142857143  27.9825721153846 43.8532366071429  28.9741586538462 42.98828125  Z M 13.7433894230769 29.7025669642857  C 14.7349759615385 28.8376116071429  15.2307692307692 27.7938988095238  15.2307692307692 26.5714285714286  C 15.2307692307692 25.3489583333333  14.7349759615385 24.3052455357143  13.7433894230769 23.4402901785714  C 12.7518028846154 22.5753348214286  11.5552884615385 22.1428571428571  10.1538461538462 22.1428571428571  C 8.75240384615385 22.1428571428571  7.55588942307692 22.5753348214286  6.56430288461538 23.4402901785714  C 5.57271634615385 24.3052455357143  5.07692307692308 25.3489583333333  5.07692307692308 26.5714285714286  C 5.07692307692308 27.7938988095238  5.57271634615385 28.8376116071429  6.56430288461538 29.7025669642857  C 7.55588942307692 30.5675223214286  8.75240384615385 31  10.1538461538462 31  C 11.5552884615385 31  12.7518028846154 30.5675223214286  13.7433894230769 29.7025669642857  Z M 44.2049278846154 42.98828125  C 45.1965144230769 42.1233258928571  45.6923076923077 41.0796130952381  45.6923076923077 39.8571428571429  C 45.6923076923077 38.6346726190476  45.1965144230769 37.5909598214286  44.2049278846154 36.7260044642857  C 43.2133413461538 35.8610491071429  42.0168269230769 35.4285714285714  40.6153846153846 35.4285714285714  C 39.2139423076923 35.4285714285714  38.0174278846154 35.8610491071429  37.0258413461538 36.7260044642857  C 36.0342548076923 37.5909598214286  35.5384615384615 38.6346726190476  35.5384615384615 39.8571428571429  C 35.5384615384615 41.0796130952381  36.0342548076923 42.1233258928571  37.0258413461538 42.98828125  C 38.0174278846154 43.8532366071429  39.2139423076923 44.2857142857143  40.6153846153846 44.2857142857143  C 42.0168269230769 44.2857142857143  43.2133413461538 43.8532366071429  44.2049278846154 42.98828125  Z M 28.9741586538462 29.7025669642857  C 29.9657451923077 28.8376116071429  30.4615384615385 27.7938988095238  30.4615384615385 26.5714285714286  C 30.4615384615385 25.3489583333333  29.9657451923077 24.3052455357143  28.9741586538462 23.4402901785714  C 27.9825721153846 22.5753348214286  26.7860576923077 22.1428571428571  25.3846153846154 22.1428571428571  C 23.9831730769231 22.1428571428571  22.7866586538462 22.5753348214286  21.7950721153846 23.4402901785714  C 20.8034855769231 24.3052455357143  20.3076923076923 25.3489583333333  20.3076923076923 26.5714285714286  C 20.3076923076923 27.7938988095238  20.8034855769231 28.8376116071429  21.7950721153846 29.7025669642857  C 22.7866586538462 30.5675223214286  23.9831730769231 31  25.3846153846154 31  C 26.7860576923077 31  27.9825721153846 30.5675223214286  28.9741586538462 29.7025669642857  Z M 59.4158653846154 56.2566964285714  C 60.4206730769231 55.3802083333333  60.9230769230769 54.3422619047619  61 53.1428571428571  L 61 39.8571428571429  C 60.9230769230769 38.6577380952381  60.4206730769231 37.6197916666667  59.4158653846154 36.7433035714286  C 58.4110576923077 35.8668154761905  57.2211538461538 35.4285714285714  55.8461538461538 35.4285714285714  C 54.4711538461539 35.4285714285714  53.28125 35.8668154761905  52.2764423076923 36.7433035714286  C 51.2716346153846 37.6197916666667  50.7692307692308 38.6577380952381  50 39.8571428571429  L 50 53.1428571428571  C 50.7692307692308 54.3422619047619  51.2716346153846 55.3802083333333  52.2764423076923 56.2566964285714  C 53.28125 57.1331845238095  54.4711538461539 57.5714285714286  55.8461538461538 57.5714285714286  C 57.2211538461538 57.5714285714286  58.4110576923077 57.1331845238095  59.4158653846154 56.2566964285714  Z M 44.2049278846154 29.7025669642857  C 45.1965144230769 28.8376116071429  45.6923076923077 27.7938988095238  45.6923076923077 26.5714285714286  C 45.6923076923077 25.3489583333333  45.1965144230769 24.3052455357143  44.2049278846154 23.4402901785714  C 43.2133413461538 22.5753348214286  42.0168269230769 22.1428571428571  40.6153846153846 22.1428571428571  C 39.2139423076923 22.1428571428571  38.0174278846154 22.5753348214286  37.0258413461538 23.4402901785714  C 36.0342548076923 24.3052455357143  35.5384615384615 25.3489583333333  35.5384615384615 26.5714285714286  C 35.5384615384615 27.7938988095238  36.0342548076923 28.8376116071429  37.0258413461538 29.7025669642857  C 38.0174278846154 30.5675223214286  39.2139423076923 31  40.6153846153846 31  C 42.0168269230769 31  43.2133413461538 30.5675223214286  44.2049278846154 29.7025669642857  Z M 60.1694711538462 17.0569196428571  C 60.671875 16.6186755952381  60.9230769230769 16.0997023809524  60.9230769230769 15.5  L 60.9230769230769 6.64285714285714  C 60.9230769230769 6.04315476190476  60.671875 5.52418154761904  60.1694711538462 5.0859375  C 59.6670673076923 4.64769345238095  59.0721153846154 4.42857142857143  58.3846153846154 5  L 7.61538461538462 5  C 6.92788461538462 4.42857142857143  6.33293269230769 4.64769345238095  5.83052884615385 5.0859375  C 5.328125 5.52418154761904  5.07692307692308 6.04315476190476  5.07692307692308 6.64285714285714  L 5.07692307692308 15.5  C 5.07692307692308 16.0997023809524  5.328125 16.6186755952381  5.83052884615385 17.0569196428571  C 6.33293269230769 17.4951636904762  6.92788461538462 17.7142857142857  7.61538461538462 18  L 58.3846153846154 18  C 59.0721153846154 17.7142857142857  59.6670673076923 17.4951636904762  60.1694711538462 17.0569196428571  Z M 59.4356971153846 29.7025669642857  C 60.4272836538462 28.8376116071429  60.9230769230769 27.7938988095238  60.9230769230769 26.5714285714286  C 60.9230769230769 25.3489583333333  60.4272836538462 24.3052455357143  59.4356971153846 23.4402901785714  C 58.4441105769231 22.5753348214286  57.2475961538462 22.1428571428571  55.8461538461538 22.1428571428571  C 54.4447115384615 22.1428571428571  53.2481971153846 22.5753348214286  52.2566105769231 23.4402901785714  C 51.2650240384615 24.3052455357143  50.7692307692308 25.3489583333333  50.7692307692308 26.5714285714286  C 50.7692307692308 27.7938988095238  51.2650240384615 28.8376116071429  52.2566105769231 29.7025669642857  C 53.2481971153846 30.5675223214286  54.4447115384615 31  55.8461538461538 31  C 57.2475961538462 31  58.4441105769231 30.5675223214286  59.4356971153846 29.7025669642857  Z M 64.4927884615385 1.31473214285714  C 65.4975961538462 2.19122023809524  66 3.22916666666666  66 4.42857142857143  L 66 57.5714285714286  C 66 58.7708333333333  65.4975961538462 59.8087797619048  64.4927884615385 60.6852678571429  C 63.4879807692308 61.561755952381  62.2980769230769 62  60.9230769230769 62  L 5.07692307692308 62  C 3.70192307692308 62  2.51201923076923 61.561755952381  1.50721153846154 60.6852678571429  C 0.502403846153846 59.8087797619048  0 58.7708333333333  0 57.5714285714286  L 0 4.42857142857143  C 0 3.22916666666666  0.502403846153846 2.19122023809524  1.50721153846154 1.31473214285714  C 2.51201923076923 0.438244047619051  3.70192307692308 0  5.07692307692308 0  L 60.9230769230769 0  C 62.2980769230769 0  63.4879807692308 0.438244047619051  64.4927884615385 1.31473214285714  Z " fill-rule="nonzero" fill="#333333" stroke="none" transform="matrix(1 0 0 1 310 804 )" />
  </g>
</svg>