<?xml version="1.0" encoding="utf-8"?>
<svg version="1.1" xmlns:xlink="http://www.w3.org/1999/xlink" width="14px" height="14px" xmlns="http://www.w3.org/2000/svg">
  <g transform="matrix(1 0 0 1 -1084 -351 )">
    <path d="M 1091 351  C 1094.92 351  1098 354.08  1098 358  C 1098 361.92  1094.92 365  1091 365  C 1087.08 365  1084 361.92  1084 358  C 1084 354.08  1087.08 351  1091 351  Z " fill-rule="nonzero" fill="#ffffff" stroke="none" fill-opacity="0" />
    <path d="M 1091 351.5  C 1094.64 351.5  1097.5 354.36  1097.5 358  C 1097.5 361.64  1094.64 364.5  1091 364.5  C 1087.36 364.5  1084.5 361.64  1084.5 358  C 1084.5 354.36  1087.36 351.5  1091 351.5  Z " stroke-width="1" stroke="#d9d9d9" fill="none" />
  </g>
</svg>