<?xml version="1.0" encoding="utf-8"?>
<svg version="1.1" xmlns:xlink="http://www.w3.org/1999/xlink" width="12px" height="12px" viewBox="1624 172  12 12" xmlns="http://www.w3.org/2000/svg">
  <path d="M 1630 172  C 1633.36 172  1636 174.64  1636 178  C 1636 181.36  1633.36 184  1630 184  C 1626.64 184  1624 181.36  1624 178  C 1624 174.64  1626.64 172  1630 172  Z " fill-rule="nonzero" fill="#ffffff" stroke="none" />
  <path d="M 1630 172.5  C 1633.08 172.5  1635.5 174.92  1635.5 178  C 1635.5 181.08  1633.08 183.5  1630 183.5  C 1626.92 183.5  1624.5 181.08  1624.5 178  C 1624.5 174.92  1626.92 172.5  1630 172.5  Z " stroke-width="1" stroke="#797979" fill="none" />
  <path d="M 1630 181  C 1628.32 181  1627 179.68  1627 178  C 1627 176.32  1628.32 175  1630 175  C 1631.68 175  1633 176.32  1633 178  C 1633 179.68  1631.68 181  1630 181  " fill-rule="nonzero" fill="#797979" stroke="none" />
</svg>