<?xml version="1.0" encoding="utf-8"?>
<svg version="1.1" xmlns:xlink="http://www.w3.org/1999/xlink" width="12px" height="12px" viewBox="382 453  12 12" xmlns="http://www.w3.org/2000/svg">
  <path d="M 388 453  C 391.36 453  394 455.64  394 459  C 394 462.36  391.36 465  388 465  C 384.64 465  382 462.36  382 459  C 382 455.64  384.64 453  388 453  Z " fill-rule="nonzero" fill="#ffffff" stroke="none" />
  <path d="M 388 453.5  C 391.08 453.5  393.5 455.92  393.5 459  C 393.5 462.08  391.08 464.5  388 464.5  C 384.92 464.5  382.5 462.08  382.5 459  C 382.5 455.92  384.92 453.5  388 453.5  Z " stroke-width="1" stroke="#797979" fill="none" />
  <path d="M 388 462  C 386.32 462  385 460.68  385 459  C 385 457.32  386.32 456  388 456  C 389.68 456  391 457.32  391 459  C 391 460.68  389.68 462  388 462  " fill-rule="nonzero" fill="#797979" stroke="none" />
</svg>