<?xml version="1.0" encoding="utf-8"?>
<svg version="1.1" xmlns:xlink="http://www.w3.org/1999/xlink" width="43px" height="40px" xmlns="http://www.w3.org/2000/svg">
  <g transform="matrix(1 0 0 1 -114 -188 )">
    <path d="M 33.509765625 22.8385416666667  C 33.8643663194444 22.5086805555556  34.0416666666667 22.1180555555556  34.0416666666667 21.6666666666667  L 34.0416666666667 18.3333333333333  C 34.0416666666667 17.8819444444444  33.8643663194444 17.4913194444444  33.509765625 17.1614583333333  C 33.1551649305556 16.8315972222222  32.7352430555556 16.6666666666667  32.25 16.6666666666667  L 25.0833333333333 16.6666666666667  L 25.0833333333333 10  C 25.0833333333333 9.54861111111111  24.9060329861111 9.15798611111111  24.5514322916667 8.828125  C 24.1968315972222 8.49826388888889  23.7769097222222 8.33333333333334  23.2916666666667 8.33333333333334  L 19.7083333333333 8.33333333333334  C 19.2230902777778 8.33333333333334  18.8031684027778 8.49826388888889  18.4485677083333 8.828125  C 18.0939670138889 9.15798611111111  17.9166666666667 9.54861111111111  17.9166666666667 10  L 17.9166666666667 16.6666666666667  L 10.75 16.6666666666667  C 10.2647569444444 16.6666666666667  9.84483506944444 16.8315972222222  9.490234375 17.1614583333333  C 9.13563368055556 17.4913194444444  8.95833333333333 17.8819444444444  8.95833333333333 18.3333333333333  L 8.95833333333333 21.6666666666667  C 8.95833333333333 22.1180555555556  9.13563368055556 22.5086805555556  9.490234375 22.8385416666667  C 9.84483506944444 23.1684027777778  10.2647569444444 23.3333333333333  10.75 23.3333333333333  L 17.9166666666667 23.3333333333333  L 17.9166666666667 30  C 17.9166666666667 30.4513888888889  18.0939670138889 30.8420138888889  18.4485677083333 31.171875  C 18.8031684027778 31.5017361111111  19.2230902777778 31.6666666666667  19.7083333333333 31.6666666666667  L 23.2916666666667 31.6666666666667  C 23.7769097222222 31.6666666666667  24.1968315972222 31.5017361111111  24.5514322916667 31.171875  C 24.9060329861111 30.8420138888889  25.0833333333333 30.4513888888889  25.0833333333333 30  L 25.0833333333333 23.3333333333333  L 32.25 23.3333333333333  C 32.7352430555556 23.3333333333333  33.1551649305556 23.1684027777778  33.509765625 22.8385416666667  Z M 40.1165364583333 9.9609375  C 42.0388454861111 13.0251736111111  43 16.3715277777778  43 20  C 43 23.6284722222222  42.0388454861111 26.9748263888889  40.1165364583333 30.0390625  C 38.1942274305556 33.1032986111111  35.5860460069444 35.5295138888889  32.2919921875 37.3177083333333  C 28.9979383680556 39.1059027777778  25.4006076388889 40  21.5 40  C 17.5993923611111 40  14.0020616319444 39.1059027777778  10.7080078125 37.3177083333333  C 7.41395399305556 35.5295138888889  4.80577256944444 33.1032986111111  2.88346354166667 30.0390625  C 0.961154513888889 26.9748263888889  0 23.6284722222222  0 20  C 0 16.3715277777778  0.961154513888889 13.0251736111111  2.88346354166667 9.9609375  C 4.80577256944444 6.89670138888889  7.41395399305556 4.47048611111111  10.7080078125 2.68229166666667  C 14.0020616319444 0.894097222222219  17.5993923611111 0  21.5 0  C 25.4006076388889 0  28.9979383680556 0.894097222222219  32.2919921875 2.68229166666667  C 35.5860460069444 4.47048611111111  38.1942274305556 6.89670138888889  40.1165364583333 9.9609375  Z " fill-rule="nonzero" fill="#ffffff" stroke="none" transform="matrix(1 0 0 1 114 188 )" />
  </g>
</svg>