<?xml version="1.0" encoding="utf-8"?>
<svg version="1.1" xmlns:xlink="http://www.w3.org/1999/xlink" width="37px" height="38px" xmlns="http://www.w3.org/2000/svg">
  <g transform="matrix(1 0 0 1 -64 -1009 )">
    <path d="M 82.5 1009  C 92.86 1009  101 1017.36  101 1028  C 101 1038.64  92.86 1047  82.5 1047  C 72.14 1047  64 1038.64  64 1028  C 64 1017.36  72.14 1009  82.5 1009  Z " fill-rule="nonzero" fill="#e4e4e4" stroke="none" />
    <path d="M 82.5 1009.5  C 92.58 1009.5  100.5 1017.64  100.5 1028  C 100.5 1038.36  92.58 1046.5  82.5 1046.5  C 72.42 1046.5  64.5 1038.36  64.5 1028  C 64.5 1017.64  72.42 1009.5  82.5 1009.5  Z " stroke-width="1" stroke="#797979" fill="none" />
  </g>
</svg>