<?xml version="1.0" encoding="utf-8"?>
<svg version="1.1" xmlns:xlink="http://www.w3.org/1999/xlink" width="12px" height="12px" viewBox="223 308  12 12" xmlns="http://www.w3.org/2000/svg">
  <path d="M 229 308  C 232.36 308  235 310.64  235 314  C 235 317.36  232.36 320  229 320  C 225.64 320  223 317.36  223 314  C 223 310.64  225.64 308  229 308  Z " fill-rule="nonzero" fill="#ffffff" stroke="none" />
  <path d="M 229 308.5  C 232.08 308.5  234.5 310.92  234.5 314  C 234.5 317.08  232.08 319.5  229 319.5  C 225.92 319.5  223.5 317.08  223.5 314  C 223.5 310.92  225.92 308.5  229 308.5  Z " stroke-width="1" stroke="#797979" fill="none" />
  <path d="M 229 317  C 227.32 317  226 315.68  226 314  C 226 312.32  227.32 311  229 311  C 230.68 311  232 312.32  232 314  C 232 315.68  230.68 317  229 317  " fill-rule="nonzero" fill="#797979" stroke="none" />
</svg>