<?xml version="1.0" encoding="utf-8"?>
<svg version="1.1" xmlns:xlink="http://www.w3.org/1999/xlink" width="625px" height="16px" xmlns="http://www.w3.org/2000/svg">
  <g transform="matrix(1 0 0 1 -327 -94 )">
    <path d="M 327.5 109.434328358209  C 327.5 109.434328358209  327.5 109.723880597015  327.5 109.723880597015  C 327.5 109.723880597015  495.665136088858 109.723880597015  495.665136088858 109.723880597015  C 495.665136088858 109.723880597015  503.048881508093 95.0170025940748  503.048881508093 95.0170025940748  C 503.048881508093 95.0170025940748  512.297022645685 109.723880597015  512.297022645685 109.723880597015  C 512.297022645685 109.723880597015  951.5 109.723880597015  951.5 109.723880597015  C 951.5 109.723880597015  951.5 109.434328358209  951.5 109.434328358209  C 951.5 109.434328358209  327.5 109.434328358209  327.5 109.434328358209  Z " fill-rule="nonzero" fill="#ffffff" stroke="none" fill-opacity="0" />
    <path d="M 327 109.934328358209  C 327 109.934328358209  327 109.223880597015  327 109.223880597015  C 327 109.223880597015  495.356687898089 109.223880597015  495.356687898089 109.223880597015  C 495.356687898089 109.223880597015  503 93.9999999999998  503 93.9999999999998  C 503 93.9999999999998  512.573248407643 109.223880597015  512.573248407643 109.223880597015  C 512.573248407643 109.223880597015  952 109.223880597015  952 109.223880597015  C 952 109.223880597015  952 109.934328358209  952 109.934328358209  C 952 109.934328358209  327 109.934328358209  327 109.934328358209  Z M 328 108.934328358209  C 328 108.934328358209  951 108.934328358209  951 108.934328358209  C 951 108.934328358209  951 110.223880597015  951 110.223880597015  C 951 110.223880597015  512.020796883728 110.223880597015  512.020796883728 110.223880597015  C 512.020796883728 110.223880597015  503.097763016186 96.0340051881497  503.097763016186 96.0340051881497  C 503.097763016186 96.0340051881497  495.973584279626 110.223880597015  495.973584279626 110.223880597015  C 495.973584279626 110.223880597015  328 110.223880597015  328 110.223880597015  C 328 110.223880597015  328 108.934328358209  328 108.934328358209  Z " fill-rule="nonzero" fill="#ff6600" stroke="none" />
  </g>
</svg>