<?xml version="1.0" encoding="utf-8"?>
<svg version="1.1" xmlns:xlink="http://www.w3.org/1999/xlink" width="12px" height="12px" viewBox="197 372  12 12" xmlns="http://www.w3.org/2000/svg">
  <path d="M 203 372  C 206.36 372  209 374.64  209 378  C 209 381.36  206.36 384  203 384  C 199.64 384  197 381.36  197 378  C 197 374.64  199.64 372  203 372  Z " fill-rule="nonzero" fill="#ffffff" stroke="none" />
  <path d="M 203 372.5  C 206.08 372.5  208.5 374.92  208.5 378  C 208.5 381.08  206.08 383.5  203 383.5  C 199.92 383.5  197.5 381.08  197.5 378  C 197.5 374.92  199.92 372.5  203 372.5  Z " stroke-width="1" stroke="#797979" fill="none" />
  <path d="M 203 381  C 201.32 381  200 379.68  200 378  C 200 376.32  201.32 375  203 375  C 204.68 375  206 376.32  206 378  C 206 379.68  204.68 381  203 381  " fill-rule="nonzero" fill="#797979" stroke="none" />
</svg>