<?xml version="1.0" encoding="utf-8"?>
<svg version="1.1" xmlns:xlink="http://www.w3.org/1999/xlink" width="12px" height="12px" viewBox="197 609  12 12" xmlns="http://www.w3.org/2000/svg">
  <path d="M 203 609  C 206.36 609  209 611.64  209 615  C 209 618.36  206.36 621  203 621  C 199.64 621  197 618.36  197 615  C 197 611.64  199.64 609  203 609  Z " fill-rule="nonzero" fill="#ffffff" stroke="none" />
  <path d="M 203 609.5  C 206.08 609.5  208.5 611.92  208.5 615  C 208.5 618.08  206.08 620.5  203 620.5  C 199.92 620.5  197.5 618.08  197.5 615  C 197.5 611.92  199.92 609.5  203 609.5  Z " stroke-width="1" stroke="#797979" fill="none" />
  <path d="M 203 618  C 201.32 618  200 616.68  200 615  C 200 613.32  201.32 612  203 612  C 204.68 612  206 613.32  206 615  C 206 616.68  204.68 618  203 618  " fill-rule="nonzero" fill="#797979" stroke="none" />
</svg>