<?xml version="1.0" encoding="utf-8"?>
<svg version="1.1" xmlns:xlink="http://www.w3.org/1999/xlink" width="12px" height="12px" viewBox="197 481  12 12" xmlns="http://www.w3.org/2000/svg">
  <path d="M 203 481  C 206.36 481  209 483.64  209 487  C 209 490.36  206.36 493  203 493  C 199.64 493  197 490.36  197 487  C 197 483.64  199.64 481  203 481  Z " fill-rule="nonzero" fill="#ffffff" stroke="none" />
  <path d="M 203 481.5  C 206.08 481.5  208.5 483.92  208.5 487  C 208.5 490.08  206.08 492.5  203 492.5  C 199.92 492.5  197.5 490.08  197.5 487  C 197.5 483.92  199.92 481.5  203 481.5  Z " stroke-width="1" stroke="#797979" fill="none" />
  <path d="M 203 490  C 201.32 490  200 488.68  200 487  C 200 485.32  201.32 484  203 484  C 204.68 484  206 485.32  206 487  C 206 488.68  204.68 490  203 490  " fill-rule="nonzero" fill="#797979" stroke="none" />
</svg>