<?xml version="1.0" encoding="utf-8"?>
<svg version="1.1" xmlns:xlink="http://www.w3.org/1999/xlink" width="12px" height="12px" viewBox="197 333  12 12" xmlns="http://www.w3.org/2000/svg">
  <path d="M 203 333  C 206.36 333  209 335.64  209 339  C 209 342.36  206.36 345  203 345  C 199.64 345  197 342.36  197 339  C 197 335.64  199.64 333  203 333  Z " fill-rule="nonzero" fill="#ffffff" stroke="none" />
  <path d="M 203 333.5  C 206.08 333.5  208.5 335.92  208.5 339  C 208.5 342.08  206.08 344.5  203 344.5  C 199.92 344.5  197.5 342.08  197.5 339  C 197.5 335.92  199.92 333.5  203 333.5  Z " stroke-width="1" stroke="#797979" fill="none" />
  <path d="M 203 342  C 201.32 342  200 340.68  200 339  C 200 337.32  201.32 336  203 336  C 204.68 336  206 337.32  206 339  C 206 340.68  204.68 342  203 342  " fill-rule="nonzero" fill="#797979" stroke="none" />
</svg>