<?xml version="1.0" encoding="utf-8"?>
<svg version="1.1" xmlns:xlink="http://www.w3.org/1999/xlink" width="12px" height="12px" viewBox="4401 663  12 12" xmlns="http://www.w3.org/2000/svg">
  <path d="M 4407 663  C 4410.36 663  4413 665.64  4413 669  C 4413 672.36  4410.36 675  4407 675  C 4403.64 675  4401 672.36  4401 669  C 4401 665.64  4403.64 663  4407 663  Z " fill-rule="nonzero" fill="#ffffff" stroke="none" />
  <path d="M 4407 663.5  C 4410.08 663.5  4412.5 665.92  4412.5 669  C 4412.5 672.08  4410.08 674.5  4407 674.5  C 4403.92 674.5  4401.5 672.08  4401.5 669  C 4401.5 665.92  4403.92 663.5  4407 663.5  Z " stroke-width="1" stroke="#797979" fill="none" />
  <path d="M 4407 672  C 4405.32 672  4404 670.68  4404 669  C 4404 667.32  4405.32 666  4407 666  C 4408.68 666  4410 667.32  4410 669  C 4410 670.68  4408.68 672  4407 672  " fill-rule="nonzero" fill="#797979" stroke="none" />
</svg>