<?xml version="1.0" encoding="utf-8"?>
<svg version="1.1" xmlns:xlink="http://www.w3.org/1999/xlink" width="12px" height="12px" viewBox="4466 663  12 12" xmlns="http://www.w3.org/2000/svg">
  <path d="M 4472 663  C 4475.36 663  4478 665.64  4478 669  C 4478 672.36  4475.36 675  4472 675  C 4468.64 675  4466 672.36  4466 669  C 4466 665.64  4468.64 663  4472 663  Z " fill-rule="nonzero" fill="#ffffff" stroke="none" />
  <path d="M 4472 663.5  C 4475.08 663.5  4477.5 665.92  4477.5 669  C 4477.5 672.08  4475.08 674.5  4472 674.5  C 4468.92 674.5  4466.5 672.08  4466.5 669  C 4466.5 665.92  4468.92 663.5  4472 663.5  Z " stroke-width="1" stroke="#797979" fill="none" />
  <path d="M 4472 672  C 4470.32 672  4469 670.68  4469 669  C 4469 667.32  4470.32 666  4472 666  C 4473.68 666  4475 667.32  4475 669  C 4475 670.68  4473.68 672  4472 672  " fill-rule="nonzero" fill="#797979" stroke="none" />
</svg>