<?xml version="1.0" encoding="utf-8"?>
<svg version="1.1" xmlns:xlink="http://www.w3.org/1999/xlink" width="12px" height="12px" viewBox="3985 829  12 12" xmlns="http://www.w3.org/2000/svg">
  <path d="M 3991 829  C 3994.36 829  3997 831.64  3997 835  C 3997 838.36  3994.36 841  3991 841  C 3987.64 841  3985 838.36  3985 835  C 3985 831.64  3987.64 829  3991 829  Z " fill-rule="nonzero" fill="#ffffff" stroke="none" />
  <path d="M 3991 829.5  C 3994.08 829.5  3996.5 831.92  3996.5 835  C 3996.5 838.08  3994.08 840.5  3991 840.5  C 3987.92 840.5  3985.5 838.08  3985.5 835  C 3985.5 831.92  3987.92 829.5  3991 829.5  Z " stroke-width="1" stroke="#797979" fill="none" />
  <path d="M 3991 838  C 3989.32 838  3988 836.68  3988 835  C 3988 833.32  3989.32 832  3991 832  C 3992.68 832  3994 833.32  3994 835  C 3994 836.68  3992.68 838  3991 838  " fill-rule="nonzero" fill="#797979" stroke="none" />
</svg>