<?xml version="1.0" encoding="utf-8"?>
<svg version="1.1" xmlns:xlink="http://www.w3.org/1999/xlink" width="367px" height="508px" xmlns="http://www.w3.org/2000/svg">
  <g transform="matrix(1 0 0 1 -517 -8 )">
    <path d="M 518 12  A 3 3 0 0 1 521 9 L 880 9  A 3 3 0 0 1 883 12 L 883 512  A 3 3 0 0 1 880 515 L 521 515  A 3 3 0 0 1 518 512 L 518 12  Z " fill-rule="nonzero" fill="#ff3399" stroke="none" fill-opacity="0.0980392156862745" />
    <path d="M 517.5 12  A 3.5 3.5 0 0 1 521 8.5 L 880 8.5  A 3.5 3.5 0 0 1 883.5 12 L 883.5 512  A 3.5 3.5 0 0 1 880 515.5 L 521 515.5  A 3.5 3.5 0 0 1 517.5 512 L 517.5 12  Z " stroke-width="1" stroke-dasharray="9,4" stroke="#ff3399" fill="none" stroke-dashoffset="0.5" />
  </g>
</svg>