<?xml version="1.0" encoding="utf-8"?>
<svg version="1.1" xmlns:xlink="http://www.w3.org/1999/xlink" width="20px" height="20px" xmlns="http://www.w3.org/2000/svg">
  <g transform="matrix(1 0 0 1 -1380 -23 )">
    <path d="M 8.13775510204073 18.2890625  C 8.12925170068024 18.3463541666667  8.13775510204073 18.4166666666667  8.16326530612241 18.5  C 8.16326530612241 18.5416666666667  8.16751700680265 18.6458333333333  8.17602040816337 18.8125  C 8.18452380952385 18.9791666666667  8.18664965986386 19.1171875  8.18239795918362 19.2265625  C 8.17814625850338 19.3359375  8.16539115646265 19.4583333333333  8.14413265306121 19.59375  C 8.12287414965977 19.7291666666667  8.08035714285711 19.8307291666667  8.01658163265301 19.8984375  C 7.95280612244892 19.9661458333333  7.86564625850338 20  7.75510204081638 20  L 3.67346938775518 20  C 2.66156462585036 20  1.79634353741494 19.5598958333333  1.07780612244892 18.6796875  C 0.359268707482897 17.7994791666667  0 16.7395833333333  0 15.5  L 0 4.5  C 0 3.26041666666666  0.359268707482897 2.20052083333333  1.07780612244892 1.3203125  C 1.79634353741494 0.440104166666664  2.66156462585036 0  3.67346938775518 0  L 7.75510204081638 0  C 7.86564625850338 0  7.96130952380963 0.0494791666666643  8.0420918367347 0.1484375  C 8.12287414965977 0.247395833333332  8.16326530612241 0.364583333333332  8.16326530612241 0.5  C 8.16326530612241 0.541666666666664  8.16751700680265 0.645833333333332  8.17602040816337 0.8125  C 8.18452380952385 0.979166666666664  8.18664965986386 1.1171875  8.18239795918362 1.2265625  C 8.17814625850338 1.3359375  8.16539115646265 1.45833333333333  8.14413265306121 1.59375  C 8.12287414965977 1.72916666666666  8.08035714285711 1.83072916666666  8.01658163265301 1.8984375  C 7.95280612244892 1.96614583333333  7.86564625850338 2  7.75510204081638 2  L 3.67346938775518 2  C 3.11224489795927 2  2.63180272108843 2.24479166666666  2.23214285714289 2.734375  C 1.83248299319735 3.22395833333333  1.63265306122457 3.8125  2 4.5  L 2 15.5  C 1.63265306122457 16.1875  1.83248299319735 16.7760416666667  2.23214285714289 17.265625  C 2.63180272108843 17.7552083333333  3.11224489795927 18  3.67346938775518 18  L 7.34693877551013 18  L 7.48724489795927 18  L 7.65306122448987 18  C 7.65306122448987 18  7.70195578231301 18.0052083333333  7.79974489795927 18.015625  C 7.89753401360554 18.0260416666667  7.94642857142867 18.0416666666667  7.94642857142867 18.0625  C 7.94642857142867 18.0833333333333  7.98044217687084 18.1119791666667  8.04846938775518 18.1484375  C 8.11649659863951 18.1848958333333  8.14625850340144 18.2317708333333  8.13775510204073 18.2890625  Z M 19.7576530612246 9.296875  C 19.9192176870749 9.49479166666666  20 9.72916666666666  20 10  C 20 10.2708333333333  19.9192176870749 10.5052083333333  19.7576530612246 10.703125  L 12.8188775510205 19.203125  C 12.6573129251701 19.4010416666667  12.4659863945578 19.5  12.2448979591836 19.5  C 12.0238095238096 19.5  11.8324829931973 19.4010416666667  11.670918367347 19.203125  C 11.5093537414966 19.0052083333333  11.4285714285713 18.7708333333333  11.4285714285713 18.5  L 11.4285714285713 14  L 5.71428571428578 14  C 5.49319727891157 14  5.30187074829928 13.9010416666667  5.14030612244892 13.703125  C 4.97874149659856 13.5052083333333  4.89795918367349 13.2708333333333  4.89795918367349 13  L 4.89795918367349 7  C 4.89795918367349 6.72916666666666  4.97874149659856 6.49479166666666  5.14030612244892 6.296875  C 5.30187074829928 6.09895833333334  5.49319727891157 6  5.71428571428578 6  L 11.4285714285713 6  L 11.4285714285713 1.5  C 11.4285714285713 1.22916666666666  11.5093537414966 0.994791666666663  11.670918367347 0.796874999999998  C 11.8324829931973 0.598958333333332  12.0238095238096 0.5  12.2448979591836 0.5  C 12.4659863945578 0.5  12.6573129251701 0.598958333333332  12.8188775510205 0.796874999999998  L 19.7576530612246 9.296875  Z " fill-rule="nonzero" fill="#333333" stroke="none" transform="matrix(1 0 0 1 1380 23 )" />
  </g>
</svg>