<?xml version="1.0" encoding="utf-8"?>
<svg version="1.1" xmlns:xlink="http://www.w3.org/1999/xlink" width="20px" height="16px" xmlns="http://www.w3.org/2000/svg">
  <g transform="matrix(1 0 0 1 -141 -572 )">
    <path d="M 18.9795918367347 3.19791666666667  C 19.2837134853942 3.30208333333333  19.5198079231693 3.45138888888889  19.68787515006 3.64583333333333  C 20.0080032012805 4.04166666666667  20.0800320128051 4.48958333333333  19.9039615846339 4.98958333333333  L 16.6026410564226 14.4270833333333  C 16.4505802320928 14.8715277777778  16.1444577831132 15.2447916666667  15.6842737094838 15.546875  C 15.2240896358543 15.8489583333333  14.733893557423 16  14.2136854741897 16  L 3.13325330132053 16  C 2.51700680272109 16  1.92276910764306 15.8142361111111  1.35054021608643 15.4427083333333  C 0.778311324529812 15.0711805555556  0.38015206082433 14.6145833333333  0.156062424969988 14.0729166666667  C -0.0360144057623049 13.6076388888889  -0.0440176070428171 13.1666666666667  0.132052821128451 12.75  C 0.132052821128451 12.7222222222222  0.14405762304922 12.6284722222222  0.168067226890756 12.46875  C 0.192076830732293 12.3090277777778  0.208083233293317 12.1805555555556  0.21608643457383 12.0833333333333  C 0.224089635854342 12.0277777777778  0.212084833933573 11.953125  0.180072028811525 11.859375  C 0.148059223689476 11.765625  0.136054421768707 11.6979166666667  0.14405762304922 11.65625  C 0.160064025610244 11.5798611111111  0.192076830732293 11.5069444444444  0.240096038415366 11.4375  C 0.288115246098439 11.3680555555556  0.354141656662665 11.2864583333333  0.438175270108043 11.1927083333333  C 0.522208883553421 11.0989583333333  0.588235294117647 11.0173611111111  0.63625450180072 10.9479166666667  C 0.820328131252501 10.6840277777778  1.00040016006403 10.3663194444444  1.17647058823529 9.99479166666667  C 1.35254101640656 9.62326388888889  1.47258903561425 9.30555555555555  1.53661464585834 9.04166666666667  C 1.56062424969988 8.97222222222222  1.56262505002001 8.86805555555555  1.54261704681873 8.72916666666667  C 1.52260904361745 8.59027777777778  1.52060824329732 8.49305555555555  1.53661464585834 8.4375  C 1.56062424969988 8.36111111111111  1.62865146058423 8.26388888888889  1.7406962785114 8.14583333333333  C 1.85274109643858 8.02777777777778  1.92076830732293 7.94791666666667  1.94477791116447 7.90625  C 2.11284513805522 7.65625  2.28091236494598 7.33680555555556  2.44897959183673 6.94791666666667  C 2.61704681872749 6.55902777777778  2.71708683473389 6.24652777777778  2.74909963985594 6.01041666666667  C 2.75710284113645 5.94791666666667  2.74709883953581 5.83680555555556  2.71908763505402 5.67708333333333  C 2.69107643057223 5.51736111111111  2.69307723089236 5.42013888888889  2.72509003601441 5.38541666666667  C 2.75710284113645 5.29513888888889  2.84513805522209 5.18923611111111  2.98919567827131 5.06770833333333  C 3.13325330132053 4.94618055555556  3.22128851540616 4.86805555555556  3.25330132052821 4.83333333333333  C 3.40536214485794 4.65277777777778  3.57543017206883 4.359375  3.76350540216086 3.953125  C 3.9515806322529 3.546875  4.06162464985994 3.21180555555556  4.09363745498199 2.94791666666667  C 4.10164065626251 2.89236111111111  4.08963585434174 2.80381944444444  4.05762304921969 2.68229166666667  C 4.02561024409764 2.56076388888889  4.01760704281713 2.46875  4.03361344537815 2.40625  C 4.04961984793918 2.35069444444444  4.08563425370148 2.28819444444444  4.14165666266507 2.21875  C 4.19767907162865 2.14930555555556  4.26970788315326 2.06944444444444  4.3577430972389 1.97916666666667  C 4.44577831132453 1.88888888888889  4.51380552220888 1.81597222222222  4.56182472989196 1.76041666666667  C 4.62585034013606 1.67708333333333  4.69187675070028 1.57118055555556  4.75990396158463 1.44270833333333  C 4.82793117246899 1.31423611111111  4.88795518207283 1.19270833333333  4.93997599039616 1.078125  C 4.99199679871949 0.963541666666666  5.05602240896359 0.838541666666666  5.13205282112845 0.703125  C 5.20808323329332 0.567708333333334  5.28611444577831 0.456597222222221  5.36614645858343 0.369791666666666  C 5.44617847138856 0.282986111111109  5.55222088835534 0.201388888888888  5.68427370948379 0.125  C 5.81632653061225 0.0486111111111089  5.96038415366147 0.00868055555555536  6.11644657863145 0.00520833333333393  C 6.27250900360144 0.00173611111110894  6.46258503401361 0.0208333333333339  6.68667466986795 0.0625  L 6.67466986794718 0.09375  C 6.97879151660664 0.03125  7.1828731492597 0  7.28691476590636 0  L 16.422569027611 0  C 17.014805922369 0  17.4709883953581 0.194444444444443  17.7911164465786 0.583333333333334  C 18.1112444977991 0.972222222222221  18.1832733093237 1.42361111111111  18.0072028811525 1.9375  L 14.7178871548619 11.375  C 14.4297719087635 12.2013888888889  14.1436574629852 12.734375  13.859543817527 12.9739583333333  C 13.5754301720688 13.2135416666667  13.0612244897959 13.3333333333333  12.3169267707083 13.3333333333333  L 1.88475390156062 13.3333333333333  C 1.66866746698679 13.3333333333333  1.51660664265706 13.3854166666667  1.42857142857143 13.4895833333333  C 1.34053621448579 13.6006944444444  1.33653461384554 13.75  1.41656662665066 13.9375  C 1.60864345738295 14.4236111111111  2.18487394957983 14.6666666666667  3.1452581032413 14.6666666666667  L 14.2256902761104 14.6666666666667  C 14.4577831132453 14.6666666666667  14.6818727490996 14.6128472222222  14.8979591836735 14.5052083333333  C 15.1140456182473 14.3975694444444  15.2541016406563 14.2534722222222  15.3181272509004 14.0729166666667  L 18.9195678271309 3.79166666666667  C 18.9755902360944 3.63888888888889  18.9955982392957 3.44097222222222  18.9795918367347 3.19791666666667  Z M 7.16686674669868 3  L 6.91476590636255 3.66666666666667  C 6.8827531012405 3.75694444444444  6.89075630252101 3.83506944444444  6.93877551020408 3.90104166666667  C 6.98679471788715 3.96701388888889  7.06682673069228 4  7.17887154861945 4  L 14.4777911164466 4  C 14.5818327330932 4  14.6838735494198 3.96701388888889  14.7839135654262 3.90104166666667  C 14.8839535814326 3.83506944444444  14.9499799919968 3.75694444444444  14.9819927971188 3.66666666666667  L 15.234093637455 3  C 15.266106442577 2.90972222222222  15.2581032412965 2.83159722222222  15.2100840336134 2.765625  C 15.1620648259304 2.69965277777778  15.0820328131253 2.66666666666667  14.9699879951981 2.66666666666667  L 7.67106842737095 2.66666666666667  C 7.56702681072429 2.66666666666667  7.46498599439776 2.69965277777778  7.36494597839136 2.765625  C 7.26490596238495 2.83159722222222  7.19887955182073 2.90972222222222  7.16686674669868 3  Z M 6.17046818727491 5.66666666666667  L 5.91836734693878 6.33333333333333  C 5.88635454181673 6.42361111111111  5.89435774309724 6.50173611111111  5.94237695078031 6.56770833333333  C 5.99039615846339 6.63368055555556  6.07042817126851 6.66666666666667  6.18247298919568 6.66666666666667  L 13.4813925570228 6.66666666666667  C 13.5854341736695 6.66666666666667  13.687474989996 6.63368055555556  13.7875150060024 6.56770833333333  C 13.8875550220088 6.50173611111111  13.953581432573 6.42361111111111  13.9855942376951 6.33333333333333  L 14.2376950780312 5.66666666666667  C 14.2697078831533 5.57638888888889  14.2617046818727 5.49826388888889  14.2136854741897 5.43229166666667  C 14.1656662665066 5.36631944444444  14.0856342537015 5.33333333333333  13.9735894357743 5.33333333333333  L 6.67466986794718 5.33333333333333  C 6.57062825130052 5.33333333333333  6.46858743497399 5.36631944444444  6.36854741896759 5.43229166666667  C 6.26850740296119 5.49826388888889  6.20248099239696 5.57638888888889  6.17046818727491 5.66666666666667  Z " fill-rule="nonzero" fill="#ffcccc" stroke="none" transform="matrix(1 0 0 1 141 572 )" />
  </g>
</svg>