<?xml version="1.0" encoding="utf-8"?>
<svg version="1.1" xmlns:xlink="http://www.w3.org/1999/xlink" width="20px" height="20px" xmlns="http://www.w3.org/2000/svg">
  <g transform="matrix(1 0 0 1 -141 -611 )">
    <path d="M 19.7009102730819 8.2444733420026  L 17.9063719115735 10  L 19.7009102730819 11.7555266579974  C 19.9609882964889 11.9982661465106  20.047680970958 12.3016905071521  19.9609882964889 12.665799739922  C 19.8569570871261 13.0212397052449  19.6315561335067 13.2423060251409  19.2847854356307 13.3289986996099  L 16.8400520156047 13.9531859557867  L 17.5292587776333 16.371911573472  C 17.6332899869961 16.727351538795  17.5509319462505 17.0307758994365  17.2821846553966 17.2821846553966  C 17.0307758994365 17.5509319462505  16.727351538795 17.6332899869961  16.371911573472 17.5292587776333  L 13.9531859557867 16.8400520156047  L 13.3289986996099 19.2847854356307  C 13.2423060251409 19.6315561335067  13.0212397052449 19.8569570871261  12.665799739922 19.9609882964889  C 12.5617685305592 19.9783268313827  12.4794104898136 19.9869960988297  12.4187256176853 19.9869960988297  C 12.1499783268314 19.9869960988297  11.9289120069354 19.8916341569137  11.7555266579974 19.7009102730819  L 10 17.9063719115735  L 8.2444733420026 19.7009102730819  C 8.00173385348938 19.9609882964889  7.69830949284786 20.047680970958  7.33420026007802 19.9609882964889  C 6.97876029475509 19.865626354573  6.75769397485913 19.6402254009536  6.67100130039012 19.2847854356307  L 6.04681404421326 16.8400520156047  L 3.62808842652796 17.5292587776333  C 3.27264846120503 17.6332899869961  2.9692241005635 17.5509319462505  2.71781534460338 17.2821846553966  C 2.44906805374946 17.0307758994365  2.3667100130039 16.727351538795  2.47074122236671 16.371911573472  L 3.15994798439532 13.9531859557867  L 0.715214564369311 13.3289986996099  C 0.368443866493281 13.2423060251409  0.143042912873862 13.0212397052449  0.0390117035110533 12.665799739922  C -0.0476809709579541 12.3016905071521  0.0390117035110533 11.9982661465106  0.299089726918075 11.7555266579974  L 2.09362808842653 10  L 0.299089726918075 8.2444733420026  C 0.0390117035110533 8.00173385348938  -0.0476809709579541 7.69830949284786  0.0390117035110533 7.33420026007802  C 0.143042912873862 6.97876029475509  0.368443866493281 6.75769397485912  0.715214564369311 6.67100130039012  L 3.15994798439532 6.04681404421326  L 2.47074122236671 3.62808842652796  C 2.3667100130039 3.27264846120503  2.44906805374946 2.9692241005635  2.71781534460338 2.71781534460338  C 2.9692241005635 2.44906805374946  3.27264846120503 2.3667100130039  3.62808842652796 2.47074122236671  L 6.04681404421326 3.15994798439532  L 6.67100130039012 0.715214564369311  C 6.75769397485913 0.359774599046379  6.97876029475509 0.13870827915041  7.33420026007802 0.0520156046814035  C 7.68964022540095 -0.0520156046814035  7.99306458604248 0.0303424360641524  8.2444733420026 0.299089726918076  L 10 2.10663198959688  L 11.7555266579974 0.299089726918076  C 12.0069354139575 0.0390117035110538  12.310359774599 -0.0433463372345066  12.665799739922 0.0520156046814035  C 13.0212397052449 0.13870827915041  13.2423060251409 0.359774599046379  13.3289986996099 0.715214564369311  L 13.9531859557867 3.15994798439532  L 16.371911573472 2.47074122236671  C 16.727351538795 2.3667100130039  17.0307758994365 2.44906805374946  17.2821846553966 2.71781534460338  C 17.5509319462505 2.9692241005635  17.6332899869961 3.27264846120503  17.5292587776333 3.62808842652796  L 16.8400520156047 6.04681404421326  L 19.2847854356307 6.67100130039012  C 19.6315561335067 6.75769397485912  19.8569570871261 6.97876029475509  19.9609882964889 7.33420026007802  C 20.047680970958 7.69830949284786  19.9609882964889 8.00173385348938  19.7009102730819 8.2444733420026  Z " fill-rule="nonzero" fill="#00bfbf" stroke="none" transform="matrix(1 0 0 1 141 611 )" />
  </g>
</svg>