<?xml version="1.0" encoding="utf-8"?>
<svg version="1.1" xmlns:xlink="http://www.w3.org/1999/xlink" width="20px" height="14px" xmlns="http://www.w3.org/2000/svg">
  <g transform="matrix(1 0 0 1 -261 -613 )">
    <path d="M 18.8839285714286 5.37926136363636  C 19.3080357142857 5.12073863636364  19.6800595238095 4.83238636363636  20 4.51420454545455  L 20 12.4090909090909  C 20 12.8465909090909  19.8251488095238 13.2211174242424  19.4754464285714 13.5326704545455  C 19.1257440476191 13.8442234848485  18.7053571428571 14  18.2142857142857 14  L 1.78571428571429 14  C 1.29464285714286 14  0.874255952380952 13.8442234848485  0.524553571428571 13.5326704545455  C 0.17485119047619 13.2211174242424  0 12.8465909090909  0 12.4090909090909  L 0 4.51420454545455  C 0.327380952380952 4.83901515151515  0.703125 5.12736742424242  1.12723214285714 5.37926136363636  C 3.82068452380952 7.00994318181818  5.66964285714286 8.15340909090909  6.67410714285714 8.80965909090909  C 7.09821428571429 9.08806818181818  7.44233630952381 9.30516098484848  7.70647321428571 9.4609375  C 7.97061011904762 9.61671401515152  8.32217261904762 9.77580492424242  8.76116071428571 9.93821022727273  C 9.20014880952381 10.100615530303  9.609375 10.1818181818182  9.98883928571429 10.1818181818182  L 10 10.1818181818182  L 10.0111607142857 10.1818181818182  C 10.390625 10.1818181818182  10.7998511904762 10.100615530303  11.2388392857143 9.93821022727273  C 11.6778273809524 9.77580492424242  12.0293898809524 9.61671401515152  12.2935267857143 9.4609375  C 12.5576636904762 9.30516098484848  12.9017857142857 9.08806818181818  13.3258928571429 8.80965909090909  C 14.5907738095238 7.99431818181818  16.4434523809524 6.85085227272727  18.8839285714286 5.37926136363636  Z M 19.4698660714286 0.467329545454545  C 19.8232886904762 0.778882575757575  20 1.15340909090909  20 1.59090909090909  C 20 2.11458333333333  19.8177083333333 2.61505681818182  19.453125 3.09232954545455  C 19.0885416666667 3.56960227272727  18.6346726190476 3.97727272727273  18.0915178571429 4.31534090909091  C 15.2938988095238 6.04545454545455  13.5528273809524 7.12263257575758  12.8683035714286 7.546875  C 12.7938988095238 7.59327651515151  12.6357886904762 7.69436553030303  12.3939732142857 7.85014204545455  C 12.1521577380952 8.00591856060606  11.9512648809524 8.13186553030303  11.7912946428571 8.22798295454545  C 11.6313244047619 8.32410037878788  11.4378720238095 8.43181818181818  11.2109375 8.55113636363636  C 10.9840029761905 8.67045454545455  10.7700892857143 8.75994318181818  10.5691964285714 8.81960227272727  C 10.3683035714286 8.87926136363636  10.1822916666667 8.90909090909091  10.0111607142857 8.90909090909091  L 10 8.90909090909091  L 9.98883928571429 8.90909090909091  C 9.81770833333333 8.90909090909091  9.63169642857143 8.87926136363636  9.43080357142857 8.81960227272727  C 9.22991071428571 8.75994318181818  9.01599702380952 8.67045454545455  8.7890625 8.55113636363636  C 8.56212797619048 8.43181818181818  8.36867559523809 8.32410037878788  8.20870535714286 8.22798295454545  C 8.04873511904762 8.13186553030303  7.84784226190476 8.00591856060606  7.60602678571429 7.85014204545455  C 7.36421130952381 7.69436553030303  7.20610119047619 7.59327651515151  7.13169642857143 7.546875  C 6.45461309523809 7.12263257575758  5.47991071428571 6.51775568181818  4.20758928571429 5.73224431818182  C 2.93526785714286 4.94673295454545  2.17261904761905 4.47443181818182  1.91964285714286 4.31534090909091  C 1.45833333333333 4.03693181818182  1.02306547619048 3.65411931818182  0.613839285714286 3.16690340909091  C 0.204613095238095 2.6796875  0 2.22727272727273  0 1.80965909090909  C 0 1.29261363636364  0.154389880952381 0.861742424242422  0.463169642857143 0.517045454545455  C 0.771949404761905 0.172348484848484  1.21279761904762 0  1.78571428571429 0  L 18.2142857142857 0  C 18.6979166666667 0  19.116443452381 0.155776515151513  19.4698660714286 0.467329545454545  Z " fill-rule="nonzero" fill="#ffcccc" stroke="none" transform="matrix(1 0 0 1 261 613 )" />
  </g>
</svg>