<?xml version="1.0" encoding="utf-8"?>
<svg version="1.1" xmlns:xlink="http://www.w3.org/1999/xlink" width="20px" height="20px" xmlns="http://www.w3.org/2000/svg">
  <g transform="matrix(1 0 0 1 -21 -571 )">
    <path d="M 19.9502840909091 15.2799479166667  C 19.983428030303 15.7183159722222  20 16.1675347222222  20 16.6276041666667  C 20 17.6692708333333  19.6543560606061 18.4917534722222  18.9630681818182 19.0950520833333  C 18.2717803030303 19.6983506944444  17.3532196969697 20  16.2073863636364 20  L 3.79261363636364 20  C 2.6467803030303 20  1.7282196969697 19.6983506944444  1.03693181818182 19.0950520833333  C 0.345643939393939 18.4917534722222  0 17.6692708333333  0 16.6276041666667  C 0 16.1675347222222  0.0165719696969697 15.7183159722222  0.0497159090909091 15.2799479166667  C 0.0828598484848485 14.8415798611111  0.149147727272727 14.3684895833333  0.248579545454545 13.8606770833333  C 0.348011363636364 13.3528645833333  0.473484848484849 12.8819444444444  0.625 12.4479166666667  C 0.776515151515151 12.0138888888889  0.980113636363636 11.5907118055556  1.23579545454545 11.1783854166667  C 1.49147727272727 10.7660590277778  1.78503787878788 10.4144965277778  2.11647727272727 10.1236979166667  C 2.44791666666667 9.83289930555556  2.85274621212121 9.60069444444444  3.33096590909091 9.42708333333333  C 3.80918560606061 9.25347222222222  4.33712121212121 9.16666666666667  4.91477272727273 9.16666666666667  C 5 9.16666666666667  5.19886363636364 9.25998263888889  5.51136363636364 9.44661458333333  C 5.82386363636364 9.63324652777778  6.17660984848485 9.84157986111111  6.56960227272727 10.0716145833333  C 6.9625946969697 10.3016493055556  7.47395833333333 10.5099826388889  8.10369318181818 10.6966145833333  C 8.73342803030303 10.8832465277778  9.3655303030303 10.9765625  10 10.9765625  C 10.6344696969697 10.9765625  11.266571969697 10.8832465277778  11.8963068181818 10.6966145833333  C 12.5260416666667 10.5099826388889  13.0374053030303 10.3016493055556  13.4303977272727 10.0716145833333  C 13.8233901515152 9.84157986111111  14.1761363636364 9.63324652777778  14.4886363636364 9.44661458333333  C 14.8011363636364 9.25998263888889  15 9.16666666666667  15.0852272727273 9.16666666666667  C 15.6628787878788 9.16666666666667  16.1908143939394 9.25347222222222  16.6690340909091 9.42708333333333  C 17.1472537878788 9.60069444444444  17.5520833333333 9.83289930555556  17.8835227272727 10.1236979166667  C 18.2149621212121 10.4144965277778  18.5085227272727 10.7660590277778  18.7642045454545 11.1783854166667  C 19.0198863636364 11.5907118055556  19.2234848484849 12.0138888888889  19.375 12.4479166666667  C 19.5265151515152 12.8819444444444  19.6519886363636 13.3528645833333  19.7514204545455 13.8606770833333  C 19.8508522727273 14.3684895833333  19.9171401515152 14.8415798611111  19.9502840909091 15.2799479166667  Z M 13.8565340909091 1.46484375  C 14.921875 2.44140625  15.4545454545455 3.61979166666667  15.4545454545455 5  C 15.4545454545455 6.38020833333333  14.921875 7.55859375  13.8565340909091 8.53515625  C 12.7911931818182 9.51171875  11.5056818181818 10  10 10  C 8.49431818181818 10  7.20880681818182 9.51171875  6.14346590909091 8.53515625  C 5.078125 7.55859375  4.54545454545455 6.38020833333333  4.54545454545455 5  C 4.54545454545455 3.61979166666667  5.078125 2.44140625  6.14346590909091 1.46484375  C 7.20880681818182 0.48828125  8.49431818181818 0  10 0  C 11.5056818181818 0  12.7911931818182 0.48828125  13.8565340909091 1.46484375  Z " fill-rule="nonzero" fill="#ffcccc" stroke="none" transform="matrix(1 0 0 1 21 571 )" />
  </g>
</svg>