<?xml version="1.0" encoding="utf-8"?>
<svg version="1.1" xmlns:xlink="http://www.w3.org/1999/xlink" width="15px" height="15px" xmlns="http://www.w3.org/2000/svg">
  <g transform="matrix(1 0 0 1 -18 -226 )">
    <path d="M 25.5 227  C 29.14 227  32 229.86  32 233.5  C 32 237.14  29.14 240  25.5 240  C 21.86 240  19 237.14  19 233.5  C 19 229.86  21.86 227  25.5 227  Z " fill-rule="nonzero" fill="#ffffff" stroke="none" />
    <path d="M 25.5 227  C 29.14 227  32 229.86  32 233.5  C 32 237.14  29.14 240  25.5 240  C 21.86 240  19 237.14  19 233.5  C 19 229.86  21.86 227  25.5 227  Z " stroke-width="2" stroke="#ffffff" fill="none" />
  </g>
</svg>