<?xml version="1.0" encoding="utf-8"?>
<svg version="1.1" xmlns:xlink="http://www.w3.org/1999/xlink" width="10px" height="10px" xmlns="http://www.w3.org/2000/svg">
  <g transform="matrix(1 0 0 1 -20 -372 )">
    <path d="M 25 373  C 27.24 373  29 374.76  29 377  C 29 379.24  27.24 381  25 381  C 22.76 381  21 379.24  21 377  C 21 374.76  22.76 373  25 373  Z " fill-rule="nonzero" fill="#ffffff" stroke="none" />
    <path d="M 25 373  C 27.24 373  29 374.76  29 377  C 29 379.24  27.24 381  25 381  C 22.76 381  21 379.24  21 377  C 21 374.76  22.76 373  25 373  Z " stroke-width="2" stroke="#ffffff" fill="none" />
  </g>
</svg>