<?xml version="1.0" encoding="utf-8"?>
<svg version="1.1" xmlns:xlink="http://www.w3.org/1999/xlink" width="18px" height="20px" xmlns="http://www.w3.org/2000/svg">
  <g transform="matrix(1 0 0 1 -5 -15 )">
    <path d="M 17.6025815217391 8.01668806161746  C 17.867527173913 8.33761232349166  18 8.72486093281985  18 9.17843388960205  L 18 10.8215661103979  C 18 11.2751390671801  17.867527173913 11.6623876765083  17.6025815217391 11.9833119383825  C 17.3376358695652 12.3042362002567  16.9932065217391 12.4646983311938  16.5692934782609 12.4646983311938  L 7.96059782608696 12.4646983311938  L 11.5434782608696 16.2387676508344  C 11.8532608695652 16.5468549422336  12.008152173913 16.9319640564827  12.008152173913 17.3940949935815  C 12.008152173913 17.8562259306804  11.8532608695652 18.2413350449294  11.5434782608696 18.5494223363286  L 10.6263586956522 19.5250320924262  C 10.3247282608696 19.8416773641421  9.95788043478261 20  9.5258152173913 20  C 9.10190217391304 20  8.73097826086957 19.8416773641421  8.41304347826087 19.5250320924262  L 0.452445652173913 11.1553273427471  C 0.150815217391304 10.8386820710312  0 10.4535729567822  0 10  C 0 9.55498502353445  0.150815217391304 9.16559691912709  0.452445652173913 8.83183568677792  L 8.41304347826087 0.487804878048781  C 8.72282608695652 0.162601626016259  9.09375 0  9.5258152173913 0  C 9.94972826086956 0  10.3165760869565 0.162601626016259  10.6263586956522 0.487804878048781  L 11.5434782608696 1.43774069319641  C 11.8532608695652 1.76294394522893  12.008152173913 2.15233204963628  12.008152173913 2.60590500641849  C 12.008152173913 3.05947796320068  11.8532608695652 3.44886606760804  11.5434782608696 3.77406931964057  L 7.96059782608696 7.53530166880616  L 16.5692934782609 7.53530166880616  C 16.9932065217391 7.53530166880616  17.3376358695652 7.69576379974326  17.6025815217391 8.01668806161746  Z " fill-rule="nonzero" fill="#f2f2f2" stroke="none" transform="matrix(1 0 0 1 5 15 )" />
  </g>
</svg>