<?xml version="1.0" encoding="utf-8"?>
<svg version="1.1" xmlns:xlink="http://www.w3.org/1999/xlink" width="20px" height="20px" xmlns="http://www.w3.org/2000/svg">
  <g transform="matrix(1 0 0 1 -287 -431 )">
    <path d="M 9.79247730220493 10.5844155844156  L 0.583657587548638 19.8051948051948  C 0.41936878512754 19.969696969697  0.281020319930826 20.025974025974  0.168612191958495 19.974025974026  C 0.0562040639861652 19.9220779220779  0 19.7835497835498  0 19.5584415584416  L 0 0.441558441558441  C 0 0.216450216450215  0.0562040639861652 0.0779220779220768  0.168612191958495 0.0259740259740249  C 0.281020319930826 -0.0259740259740271  0.41936878512754 0.0303030303030294  0.583657587548638 0.194805194805194  L 9.79247730220493 9.41558441558442  C 9.87029831387808 9.49350649350649  9.92650237786425 9.57575757575757  9.96108949416342 9.66233766233766  L 9.96108949416342 0.441558441558441  C 9.96108949416342 0.216450216450215  10.0172935581496 0.0779220779220768  10.1297016861219 0.0259740259740249  C 10.2421098140943 -0.0259740259740271  10.380458279291 0.0303030303030294  10.5447470817121 0.194805194805194  L 19.7535667963684 9.41558441558442  C 19.9178555987895 9.58008658008658  20 9.77489177489177  20 10  C 20 10.2251082251082  19.9178555987895 10.4199134199134  19.7535667963684 10.5844155844156  L 10.5447470817121 19.8051948051948  C 10.380458279291 19.969696969697  10.2421098140943 20.025974025974  10.1297016861219 19.974025974026  C 10.0172935581496 19.9220779220779  9.96108949416342 19.7835497835498  9.96108949416342 19.5584415584416  L 9.96108949416342 10.3376623376623  C 9.92650237786425 10.4242424242424  9.87029831387808 10.5064935064935  9.79247730220493 10.5844155844156  Z " fill-rule="nonzero" fill="#80ffff" stroke="none" transform="matrix(1 0 0 1 287 431 )" />
  </g>
</svg>