<?xml version="1.0" encoding="utf-8"?>
<svg version="1.1" xmlns:xlink="http://www.w3.org/1999/xlink" width="350px" height="155px" xmlns="http://www.w3.org/2000/svg">
  <g transform="matrix(1 0 0 1 -5 -131 )">
    <path d="M 6 141  A 9 9 0 0 1 15 132 L 345 132  A 9 9 0 0 1 354 141 L 354 276  A 9 9 0 0 1 345 285 L 15 285  A 9 9 0 0 1 6 276 L 6 141  Z " fill-rule="nonzero" fill="#ffffff" stroke="none" fill-opacity="0" />
    <path d="M 5.5 141  A 9.5 9.5 0 0 1 15 131.5 L 345 131.5  A 9.5 9.5 0 0 1 354.5 141 L 354.5 276  A 9.5 9.5 0 0 1 345 285.5 L 15 285.5  A 9.5 9.5 0 0 1 5.5 276 L 5.5 141  Z " stroke-width="1" stroke="#00ffff" fill="none" stroke-opacity="0.737254901960784" />
  </g>
</svg>