<?xml version="1.0" encoding="utf-8"?>
<svg version="1.1" xmlns:xlink="http://www.w3.org/1999/xlink" width="350px" height="93px" xmlns="http://www.w3.org/2000/svg">
  <g transform="matrix(1 0 0 1 -5 -306 )">
    <path d="M 6 316  A 9 9 0 0 1 15 307 L 345 307  A 9 9 0 0 1 354 316 L 354 389  A 9 9 0 0 1 345 398 L 15 398  A 9 9 0 0 1 6 389 L 6 316  Z " fill-rule="nonzero" fill="#ffffff" stroke="none" fill-opacity="0" />
    <path d="M 5.5 316  A 9.5 9.5 0 0 1 15 306.5 L 345 306.5  A 9.5 9.5 0 0 1 354.5 316 L 354.5 389  A 9.5 9.5 0 0 1 345 398.5 L 15 398.5  A 9.5 9.5 0 0 1 5.5 389 L 5.5 316  Z " stroke-width="1" stroke="#00ffff" fill="none" stroke-opacity="0.737254901960784" />
  </g>
</svg>