<?xml version="1.0" encoding="utf-8"?>
<svg version="1.1" xmlns:xlink="http://www.w3.org/1999/xlink" width="36px" height="36px" xmlns="http://www.w3.org/2000/svg">
  <g transform="matrix(1 0 0 1 -375 -164 )">
    <path d="M 393 164  C 403.08 164  411 171.92  411 182  C 411 192.08  403.08 200  393 200  C 382.92 200  375 192.08  375 182  C 375 171.92  382.92 164  393 164  Z " fill-rule="nonzero" fill="#0000ff" stroke="none" />
    <path d="M 393 164.5  C 402.8 164.5  410.5 172.2  410.5 182  C 410.5 191.8  402.8 199.5  393 199.5  C 383.2 199.5  375.5 191.8  375.5 182  C 375.5 172.2  383.2 164.5  393 164.5  Z " stroke-width="1" stroke="#797979" fill="none" />
  </g>
</svg>