<?xml version="1.0" encoding="utf-8"?>
<svg version="1.1" xmlns:xlink="http://www.w3.org/1999/xlink" width="12px" height="12px" viewBox="662 222  12 12" xmlns="http://www.w3.org/2000/svg">
  <path d="M 668 222  C 671.36 222  674 224.64  674 228  C 674 231.36  671.36 234  668 234  C 664.64 234  662 231.36  662 228  C 662 224.64  664.64 222  668 222  Z " fill-rule="nonzero" fill="#ffffff" stroke="none" />
  <path d="M 668 222.5  C 671.08 222.5  673.5 224.92  673.5 228  C 673.5 231.08  671.08 233.5  668 233.5  C 664.92 233.5  662.5 231.08  662.5 228  C 662.5 224.92  664.92 222.5  668 222.5  Z " stroke-width="1" stroke="#797979" fill="none" />
  <path d="M 668 231  C 666.32 231  665 229.68  665 228  C 665 226.32  666.32 225  668 225  C 669.68 225  671 226.32  671 228  C 671 229.68  669.68 231  668 231  " fill-rule="nonzero" fill="#797979" stroke="none" />
</svg>