<?xml version="1.0" encoding="utf-8"?>
<svg version="1.1" xmlns:xlink="http://www.w3.org/1999/xlink" width="12px" height="12px" viewBox="662 149  12 12" xmlns="http://www.w3.org/2000/svg">
  <path d="M 668 149  C 671.36 149  674 151.64  674 155  C 674 158.36  671.36 161  668 161  C 664.64 161  662 158.36  662 155  C 662 151.64  664.64 149  668 149  Z " fill-rule="nonzero" fill="#ffffff" stroke="none" />
  <path d="M 668 149.5  C 671.08 149.5  673.5 151.92  673.5 155  C 673.5 158.08  671.08 160.5  668 160.5  C 664.92 160.5  662.5 158.08  662.5 155  C 662.5 151.92  664.92 149.5  668 149.5  Z " stroke-width="1" stroke="#797979" fill="none" />
  <path d="M 668 158  C 666.32 158  665 156.68  665 155  C 665 153.32  666.32 152  668 152  C 669.68 152  671 153.32  671 155  C 671 156.68  669.68 158  668 158  " fill-rule="nonzero" fill="#797979" stroke="none" />
</svg>