<?xml version="1.0" encoding="utf-8"?>
<svg version="1.1" xmlns:xlink="http://www.w3.org/1999/xlink" width="12px" height="12px" viewBox="662 374  12 12" xmlns="http://www.w3.org/2000/svg">
  <path d="M 668 374  C 671.36 374  674 376.64  674 380  C 674 383.36  671.36 386  668 386  C 664.64 386  662 383.36  662 380  C 662 376.64  664.64 374  668 374  Z " fill-rule="nonzero" fill="#ffffff" stroke="none" />
  <path d="M 668 374.5  C 671.08 374.5  673.5 376.92  673.5 380  C 673.5 383.08  671.08 385.5  668 385.5  C 664.92 385.5  662.5 383.08  662.5 380  C 662.5 376.92  664.92 374.5  668 374.5  Z " stroke-width="1" stroke="#797979" fill="none" />
  <path d="M 668 383  C 666.32 383  665 381.68  665 380  C 665 378.32  666.32 377  668 377  C 669.68 377  671 378.32  671 380  C 671 381.68  669.68 383  668 383  " fill-rule="nonzero" fill="#797979" stroke="none" />
</svg>