<?xml version="1.0" encoding="utf-8"?>
<svg version="1.1" xmlns:xlink="http://www.w3.org/1999/xlink" width="12px" height="12px" viewBox="662 295  12 12" xmlns="http://www.w3.org/2000/svg">
  <path d="M 668 295  C 671.36 295  674 297.64  674 301  C 674 304.36  671.36 307  668 307  C 664.64 307  662 304.36  662 301  C 662 297.64  664.64 295  668 295  Z " fill-rule="nonzero" fill="#ffffff" stroke="none" />
  <path d="M 668 295.5  C 671.08 295.5  673.5 297.92  673.5 301  C 673.5 304.08  671.08 306.5  668 306.5  C 664.92 306.5  662.5 304.08  662.5 301  C 662.5 297.92  664.92 295.5  668 295.5  Z " stroke-width="1" stroke="#797979" fill="none" />
  <path d="M 668 304  C 666.32 304  665 302.68  665 301  C 665 299.32  666.32 298  668 298  C 669.68 298  671 299.32  671 301  C 671 302.68  669.68 304  668 304  " fill-rule="nonzero" fill="#797979" stroke="none" />
</svg>