<?xml version="1.0" encoding="utf-8"?>
<svg version="1.1" xmlns:xlink="http://www.w3.org/1999/xlink" width="12px" height="12px" viewBox="662 338  12 12" xmlns="http://www.w3.org/2000/svg">
  <path d="M 668 338  C 671.36 338  674 340.64  674 344  C 674 347.36  671.36 350  668 350  C 664.64 350  662 347.36  662 344  C 662 340.64  664.64 338  668 338  Z " fill-rule="nonzero" fill="#ffffff" stroke="none" />
  <path d="M 668 338.5  C 671.08 338.5  673.5 340.92  673.5 344  C 673.5 347.08  671.08 349.5  668 349.5  C 664.92 349.5  662.5 347.08  662.5 344  C 662.5 340.92  664.92 338.5  668 338.5  Z " stroke-width="1" stroke="#797979" fill="none" />
  <path d="M 668 347  C 666.32 347  665 345.68  665 344  C 665 342.32  666.32 341  668 341  C 669.68 341  671 342.32  671 344  C 671 345.68  669.68 347  668 347  " fill-rule="nonzero" fill="#797979" stroke="none" />
</svg>