<?xml version="1.0" encoding="utf-8"?>
<svg version="1.1" xmlns:xlink="http://www.w3.org/1999/xlink" width="12px" height="12px" viewBox="740 417  12 12" xmlns="http://www.w3.org/2000/svg">
  <path d="M 746 417  C 749.36 417  752 419.64  752 423  C 752 426.36  749.36 429  746 429  C 742.64 429  740 426.36  740 423  C 740 419.64  742.64 417  746 417  Z " fill-rule="nonzero" fill="#ffffff" stroke="none" />
  <path d="M 746 417.5  C 749.08 417.5  751.5 419.92  751.5 423  C 751.5 426.08  749.08 428.5  746 428.5  C 742.92 428.5  740.5 426.08  740.5 423  C 740.5 419.92  742.92 417.5  746 417.5  Z " stroke-width="1" stroke="#797979" fill="none" />
  <path d="M 746 426  C 744.32 426  743 424.68  743 423  C 743 421.32  744.32 420  746 420  C 747.68 420  749 421.32  749 423  C 749 424.68  747.68 426  746 426  " fill-rule="nonzero" fill="#797979" stroke="none" />
</svg>