<?xml version="1.0" encoding="utf-8"?>
<svg version="1.1" xmlns:xlink="http://www.w3.org/1999/xlink" width="12px" height="12px" viewBox="502 178  12 12" xmlns="http://www.w3.org/2000/svg">
  <path d="M 508 178  C 511.36 178  514 180.64  514 184  C 514 187.36  511.36 190  508 190  C 504.64 190  502 187.36  502 184  C 502 180.64  504.64 178  508 178  Z " fill-rule="nonzero" fill="#ffffff" stroke="none" />
  <path d="M 508 178.5  C 511.08 178.5  513.5 180.92  513.5 184  C 513.5 187.08  511.08 189.5  508 189.5  C 504.92 189.5  502.5 187.08  502.5 184  C 502.5 180.92  504.92 178.5  508 178.5  Z " stroke-width="1" stroke="#797979" fill="none" />
  <path d="M 508 187  C 506.32 187  505 185.68  505 184  C 505 182.32  506.32 181  508 181  C 509.68 181  511 182.32  511 184  C 511 185.68  509.68 187  508 187  " fill-rule="nonzero" fill="#797979" stroke="none" />
</svg>