<?xml version="1.0" encoding="utf-8"?>
<svg version="1.1" xmlns:xlink="http://www.w3.org/1999/xlink" width="12px" height="12px" viewBox="1514 135  12 12" xmlns="http://www.w3.org/2000/svg">
  <path d="M 1520 135  C 1523.36 135  1526 137.64  1526 141  C 1526 144.36  1523.36 147  1520 147  C 1516.64 147  1514 144.36  1514 141  C 1514 137.64  1516.64 135  1520 135  Z " fill-rule="nonzero" fill="#ffffff" stroke="none" />
  <path d="M 1520 135.5  C 1523.08 135.5  1525.5 137.92  1525.5 141  C 1525.5 144.08  1523.08 146.5  1520 146.5  C 1516.92 146.5  1514.5 144.08  1514.5 141  C 1514.5 137.92  1516.92 135.5  1520 135.5  Z " stroke-width="1" stroke="#797979" fill="none" />
  <path d="M 1520 144  C 1518.32 144  1517 142.68  1517 141  C 1517 139.32  1518.32 138  1520 138  C 1521.68 138  1523 139.32  1523 141  C 1523 142.68  1521.68 144  1520 144  " fill-rule="nonzero" fill="#797979" stroke="none" />
</svg>