<?xml version="1.0" encoding="utf-8"?>
<svg version="1.1" xmlns:xlink="http://www.w3.org/1999/xlink" width="12px" height="12px" viewBox="2934 102  12 12" xmlns="http://www.w3.org/2000/svg">
  <path d="M 2940 102  C 2943.36 102  2946 104.64  2946 108  C 2946 111.36  2943.36 114  2940 114  C 2936.64 114  2934 111.36  2934 108  C 2934 104.64  2936.64 102  2940 102  Z " fill-rule="nonzero" fill="#ffffff" stroke="none" />
  <path d="M 2940 102.5  C 2943.08 102.5  2945.5 104.92  2945.5 108  C 2945.5 111.08  2943.08 113.5  2940 113.5  C 2936.92 113.5  2934.5 111.08  2934.5 108  C 2934.5 104.92  2936.92 102.5  2940 102.5  Z " stroke-width="1" stroke="#797979" fill="none" />
  <path d="M 2940 111  C 2938.32 111  2937 109.68  2937 108  C 2937 106.32  2938.32 105  2940 105  C 2941.68 105  2943 106.32  2943 108  C 2943 109.68  2941.68 111  2940 111  " fill-rule="nonzero" fill="#797979" stroke="none" />
</svg>