<?xml version="1.0" encoding="utf-8"?>
<svg version="1.1" xmlns:xlink="http://www.w3.org/1999/xlink" width="12px" height="12px" viewBox="1400 418  12 12" xmlns="http://www.w3.org/2000/svg">
  <path d="M 1406 418  C 1409.36 418  1412 420.64  1412 424  C 1412 427.36  1409.36 430  1406 430  C 1402.64 430  1400 427.36  1400 424  C 1400 420.64  1402.64 418  1406 418  Z " fill-rule="nonzero" fill="#ffffff" stroke="none" />
  <path d="M 1406 418.5  C 1409.08 418.5  1411.5 420.92  1411.5 424  C 1411.5 427.08  1409.08 429.5  1406 429.5  C 1402.92 429.5  1400.5 427.08  1400.5 424  C 1400.5 420.92  1402.92 418.5  1406 418.5  Z " stroke-width="1" stroke="#797979" fill="none" />
  <path d="M 1406 427  C 1404.32 427  1403 425.68  1403 424  C 1403 422.32  1404.32 421  1406 421  C 1407.68 421  1409 422.32  1409 424  C 1409 425.68  1407.68 427  1406 427  " fill-rule="nonzero" fill="#797979" stroke="none" />
</svg>