<?xml version="1.0" encoding="utf-8"?>
<svg version="1.1" xmlns:xlink="http://www.w3.org/1999/xlink" width="12px" height="12px" viewBox="1288 418  12 12" xmlns="http://www.w3.org/2000/svg">
  <path d="M 1294 418  C 1297.36 418  1300 420.64  1300 424  C 1300 427.36  1297.36 430  1294 430  C 1290.64 430  1288 427.36  1288 424  C 1288 420.64  1290.64 418  1294 418  Z " fill-rule="nonzero" fill="#ffffff" stroke="none" />
  <path d="M 1294 418.5  C 1297.08 418.5  1299.5 420.92  1299.5 424  C 1299.5 427.08  1297.08 429.5  1294 429.5  C 1290.92 429.5  1288.5 427.08  1288.5 424  C 1288.5 420.92  1290.92 418.5  1294 418.5  Z " stroke-width="1" stroke="#797979" fill="none" />
  <path d="M 1294 427  C 1292.32 427  1291 425.68  1291 424  C 1291 422.32  1292.32 421  1294 421  C 1295.68 421  1297 422.32  1297 424  C 1297 425.68  1295.68 427  1294 427  " fill-rule="nonzero" fill="#797979" stroke="none" />
</svg>