<?xml version="1.0" encoding="utf-8"?>
<svg version="1.1" xmlns:xlink="http://www.w3.org/1999/xlink" width="40px" height="40px" xmlns="http://www.w3.org/2000/svg">
  <defs>
    <filter x="310px" y="382px" width="40px" height="40px" filterUnits="userSpaceOnUse" id="filter69">
      <feOffset dx="1" dy="1" in="SourceAlpha" result="shadowOffsetInner" />
      <feGaussianBlur stdDeviation="2.5" in="shadowOffsetInner" result="shadowGaussian" />
      <feComposite in2="shadowGaussian" operator="atop" in="SourceAlpha" result="shadowComposite" />
      <feColorMatrix type="matrix" values="0 0 0 0 0  0 0 0 0 0  0 0 0 0 0  0 0 0 0.698039215686274 0  " in="shadowComposite" />
    </filter>
    <g id="widget70">
      <path d="M 329 386  C 337.4 386  344 392.6  344 401  C 344 409.4  337.4 416  329 416  C 320.6 416  314 409.4  314 401  C 314 392.6  320.6 386  329 386  Z " fill-rule="nonzero" fill="#009dd9" stroke="none" />
      <path d="M 329 386.5  C 337.12 386.5  343.5 392.88  343.5 401  C 343.5 409.12  337.12 415.5  329 415.5  C 320.88 415.5  314.5 409.12  314.5 401  C 314.5 392.88  320.88 386.5  329 386.5  Z " stroke-width="1" stroke="#ffffff" fill="none" />
    </g>
  </defs>
  <g transform="matrix(1 0 0 1 -310 -382 )">
    <use xlink:href="#widget70" filter="url(#filter69)" />
    <use xlink:href="#widget70" />
  </g>
</svg>